<mxfile host="app.diagrams.net" modified="2024-04-05T10:25:31.271Z" agent="Mozilla/5.0 (Windows NT 10.0; Win64; x64) AppleWebKit/537.36 (KHTML, like Gecko) Chrome/123.0.0.0 Safari/537.36" etag="GIwyFhiXtHrO7HHC_shD" version="24.1.0" type="github">
  <diagram name="Page-1" id="ANH8fw4AWad5RAdCGLYy">
    <mxGraphModel dx="3217" dy="1261" grid="1" gridSize="10" guides="1" tooltips="1" connect="1" arrows="1" fold="1" page="1" pageScale="1" pageWidth="1169" pageHeight="827" background="#FFFFFF" math="0" shadow="0">
      <root>
        <mxCell id="0" />
        <mxCell id="1" parent="0" />
        <UserObject label="" tags="Background" id="f_0w462XN24zRGfIKmap-78">
          <mxCell style="vsdxID=1022;fillColor=#FFFF99;gradientColor=none;shape=stencil(nZBLDoAgDERP0z3SIyjew0SURgSD+Lu9kMZoXLhwN9O+tukAlrNpJg1SzDH4QW/URgNYgZTkjA4UkwJUgGXng+6DX1zLfmoymdXo17xh5zmRJ6Q42BWCfc2oJfdAr+Yv+AP9Cb7OJ3H/2JG1HNGz/84klThPVCc=);points=[[0.5,1,0],[1,0.5,0],[0.5,0,0],[0,0.5,0],[0.5,0.5,0]];labelBackgroundColor=none;rounded=0;html=1;whiteSpace=wrap;" vertex="1" parent="1">
            <mxGeometry x="-382" y="-78" width="150" height="85" as="geometry" />
          </mxCell>
        </UserObject>
        <mxCell id="f_0w462XN24zRGfIKmap-1" value="" style="rounded=0;whiteSpace=wrap;html=1;fillColor=#6666FF;fontColor=#333333;strokeColor=#666666;dashed=1;" vertex="1" parent="1">
          <mxGeometry x="-1010" y="30" width="1180" height="470" as="geometry" />
        </mxCell>
        <mxCell id="f_0w462XN24zRGfIKmap-3" value="" style="shape=image;verticalLabelPosition=bottom;labelBackgroundColor=#6666ff;verticalAlign=top;aspect=fixed;imageAspect=0;image=data:image/png,iVBORw0KGgoAAAANSUhEUgAAAWAAAAFgCAYAAACFYaNMAAAAAXNSR0IArs4c6QAAAARnQU1BAACxjwv8YQUAAAAJcEhZcwAAFxEAABcRAcom8z8AAP+lSURBVHhe7J0FgFzV2f6xFiuF6lehxUmIZ93dIzgUSuX7l7bfV3ekSDy7Mazu7vK1ReKGa4Hi8fXZcZ+5Ms//ec7shkC3kLSELOG+ybszc+fOzL3n3vM7z7H3HALPPPPMM88OiHkA9swzzzw7QOYB2DPPPPPsAJkHYM8888yzA2QegD3zzDPPDpB5APbMM888O0DmAdgzzzzz7ACZB2DPPPPMswNkHoA988wzzw6QeQD2zDPPPDtA5gHYM8888+wAmQdgzzzzzLMDZB6APfPMM88OkHkA9swzzzw7QOYB2DPPPPPsAJkHYM8888yzA2QegD3zzDPPDpB5APbMM888O0DmAdgzzzzz7ACZB2DPPPPMswNkHoA988wzzw6QeQD2zDPPPDtA5gHYM8888+wAmQdgzzzzzLMDZB6APfPMM88OkHkA9swzzzw7QOYB2DPPPPPsAJkHYM8888yzA2QegD3zzDPPDpB5APbMM888O0DmAdgzzzzz7ACZB2DPPPPMswNkHoA988wzzw6QeQD2zDPPPDtA5gHYM8888+wAmQdgzzzzzLMDZB6APfPMM88OkHkA9swzzzw7QOYB2DPPPPPsAJkHYM8888yzA2QegD3zzDPPDpB5APbMM888O0DmAdgzzzzz7ACZB2DPPPPMswNkHoA988wzzw6QeQD2zDPPPDtA5gHYM8888+wAmQdgzzzzzLMDZB6APfPMM88OkHkA9swzzzw7QOYB2DPPPPPsAJkHYM8888yzA2QegD3zzDPPDpB5APbMM888O0DmAdgzzzzz7ACZB2DPPPPMswNkHoA988wzzw6QeQD2zDPPPDtA5gHYM8888+wAmQdgzzzzzLMDZB6APfPMM88OkHkA9swzzzw7QOYB2LO9s1wOruvCdm1kchZS9CQcpJBDlm/bdFe76Y9eWMOu5w49l39fTy1+l8XvcXI2v3aPHfSfO7l86dBtPfK1M/zZ3V/N15b2G9k44vqal3J9hk/kuZENu51fKtOD+S4+kesHR5zn4/LHHZvpwAPl0Ru36Fl6hh/U8+Fv8syzlzUPwJ69vIkohJFDKmbdDBK5FCJyIidKkCUFIO4jcHITSGU4dDvNz5DOhrGCH/ex+CdDsqatLCxHyBK6hC1+WJDX79jcQs/qka9tbs8jMw+6FF+n+D36LnfEuZ/L/QXI3a7Xe2zT8dvD//RsBMR5d+k8QJ0rv48lTZ7yWTlfZ/hu2oWb5iezNrIOPedws4s0PUlPsFBJMxH0FZ55tjfmAdizlzcDJT4IdIQO0cN/aeMWiWtTDbuSqwIVwUs2I5J14HcsxI1q1of5X4zlPk7GMe4SiEQav0NqUvSmxMwRsS63jLi+2wA673ru0PWbI0p8t3P/F3uanlShQU/xu/UNQu/ub5Uap+dxrKPROfKRB+sSqDl+LuekWYhQ61t8tPQ6a94zTlCrwLAJajvBY0tLJnsI9mzvzAOwZy9v5Kfho1zPCR5KQcIyQY8RUjFCKI6slUA6m0TKSiLiJhGiNk4S0jYhbaBJ4FpUlY5Rlvye4WYKm6rZIsCdXJpfz+81MvpFzvfy/vw2i8/Tcj6X/6t/PCIk9Jf7OkYp81R4LjYf5ZaOgcdk84VtW0aZWzw/203x8Hhe1PrZXIS/x/PMqeFF77Hg4YE7GRYYLGykkJHgY4pOoHvm2d6YB2DPXt4EXTUjyFmVN8Sy1MYg+EaoRkNEUhAx+Pl3iOD1U3kG4fA9F1F6giBLcZ8sq+qqthOCEsX8Gqll8hs2q/cZo1ClTfPNAsO0p+s5f1wS2rwW4OhUqsaHX+ebEfI+8k+qlugnhgVWKlqxe4TxKgTURMLnbooATtuwMhlkM0kWJnQ7QRUd49GHie8YP5YwOE/zXFIsYFJ2EplsiupXBOd3yXWInnm2l+YB2LOXN/FthIWsblOu0kktQjhHEOUBGyOawtSKYf4LIW4FkMoEuSsh7CZYK6di5L/h1l7jEsKqsacIwRS/kiw2TBTH9FP/jplDpPNrDWPFWrm+WyKVwjX/hnYYASYf1U5tmhKk0glqdRJabpbHR9gStNnh49c/FROmEUbv0zPal4XKyLEruTzzbG/MA7BnL2vSlOrtly7NqXqtoQmiZ4b0MuQkzTJUrlmiieo4bWcRtBLwZeOI2FS+pFu+m+t5OOlRsBILDRyHX+fhLOVK1DlUo2kqzjhVaDiMmD+AyKAPwYEBBHv7Ee/uR2rXANLdg0j1+JDsG0JiwI/EUBDJYASpWByZVArW8HEJoQl+c5q/rt968fHotZpv1ZloWll4Wk6aR5PhCxU8w7A2HX7c0VHbMRW4RWWulukszzN/pp55tnfmAdizlzV1UKk1VF1uprNMhBHBUnwS5hM/PUjwRAnoON+i5AyRZoPcJUhP0KVCs4SVo2ER6tBy4gRZlK8jVJ5hOIkBuIPbkNv1FJxtjyPz1EOI//1uhO/diKGNq9C38q/Y+X+/x3O//QWe+OWP8cRPf4idP/oxfD/8KXw//jkGf/YL+H71G/h//weE/vIXxFbejtT6tcjetQnOvXfDeeA+JLY+jMHkEywYnmXBsANJpx9ZN8CyJELVG4edTeVhO6KS5ZK1I67XI80XUtAEcU6jHkhq01nnEu1qV/EQ7Nlemgdgz17WHP7LV7r1Lz/8Kk0FSNFLhcnHeA5pUjZNOEkMJ8mwJD8nF6vEao2SyMUjhGw37GcJ2Ps3I7mSoPztLxH50fcRW7EYiWu+guRXPov4lz+N6Of+B+FPfxzh//kYwp/4fwhf/hEEP3oZhj54CQYuvhD9F54P3yUXIXDZJfB/6BIMfehS+D58KQY++kH0/78PYuBjl6H/8svQ+/EPofvjl2GH/Isfw44Fn0f3iqsx+J1FCPzqW4je9mvE7lqJ+OP3IbnrWVgRvzljmTAqnBrW0iWCNdhDCjnfHE0AO3zX4Ym71PFq0M6J1B6APds78wDs2V4Y5SyVndRdlmovTujku9cACl4DWqncKMHjJ678VgKpAT+c53phPbkNmQceRWrtRqT++CckfkDYLulC5IorCNVPIHTRpQjMOAeBqgoEJp+GwPj3wX/WSQjQQxNOQWzy6UhPHw+7cALcoklwC+nTJ8IpmIh0+RTEa6chVjPVeKR6CgKVEzFYPh69JWdgR8HJeG7K+/DkxHfhsbPegafHvwe7Jp6JvoJpGKyvxtC5M+H/2Icx9NXPw7d4Lnzf/waC//dbJO5ai8wj9yLx5KMY6tmJwUgQsXTMjIFWA8PzeFWzimoFrB8QvqojqOnEA7Bne2segD17eVPjqJF/OVi2i7hrGwDHCJoEH9U0keaWeGoXhoJPYOCZzQj/368Qu/lGBBYsQP8XvoRdl34Yu9rPRndNIwbKqxEsq0KiqhrZunpYjQ1I1pUgWH46/KWEb+kp9FO5z2kIcVu08kzEq8dx//FIVNMrxyNeNQ7R2vGINExAtGEiYo0TEW+ahBg9Sg9ze6BuPPy14+CrPgMDVadioPQ0+ArHIUCQhyoKEKotQ6CxCgONNehuqseO1ibsnDUDvRdcgKELL8bg5ZfjuZsW4+mVv8bAfXcg/dwDyAW3sywKMUHyLdcO6wQa3RHl8xDTQenh4dezvTUPwJ69vBHA6pQSWQyLh92yqf0G+hB/9EFEV/0R4R/fgMDSqxG8+n8Q+fj5iFzUDN/ManTXFmAbwbd10qnYMfFk9E4haIsIzuppSDaXINVegVh7OfzNxRhqLkSgtRiBtlJ6CYZaS+Dja19LkfGhtmL420uN6/1gC5376DFMj8hbS+lliLaVId5WgQS/P9leiUgjv69yKlUyVXNdERL1JVTQRQhTSfsKqIwnnYSes96H/gnvR2Di+xEs4raZldj537PR+9lL4bv2s/B/czGCf/oFEvdvgr1zG6W/RoHkcawagWoDnnm2t+YB+LVuklsiAB/NU0FST17kGr2g6rNp3dT+uz+jbfnZYepg09hZfUS2x8fz2zT0LB6GPTiAzNNPIbVhLaI//gGC112NwEc/iHBrPWJFU5GYOh7JcqrU+gkI1Z2FISrRgfrx6G+aiIH2KRicUYChWYTtzCL4OwoJ2UL4mooxWF8OX0MlQVwNf0uNcR+fDzZRpcqbqzDYWg1fex2GOurhb6tFoIn70oeoZIfqKzBUS5APe4CvQ/VViFLhxppqEeS2wbKpGCqfiggBnGwqRaqlDImmQsQaJiNMRR2qORPReirulrOQajwLyZLTEJlwIgYI5B3Tx2Ebj7H7kgvgu/KriHzn20jdejuyDz0Gd3sPnKFB2FmNsxhOrz2NGzSARNfGNB9zQ35cyMiz/PUZmZGXb+jY40Nm4PTwNs8OGvMA/Fo39RCpZ56SVK0EGhWWGY59YGSqcRdZx0I0ZyGmoVPaX1KN72lkQoxVaM1ai7ACrekSgrBMoJCyy+p1qh/Y9gCslb/C0E3zsOvz/42ei9vho8IM105HvHIKUqWTkKKyTRSdhUjlZMJ3KoL1VJwN0wnKAgK1kNB8XsH6jcKV6qUTwEON3NZUhkCznACl++lDfD3i/hZua60wHuDz/D7czs/59fmG5z3A14HGMgT5XqiJ+/L1UB1/n/ANUg2HCeAIPxumCg83F3GfQnoBn9Nbi/geHysmIDDtVAxOPgUDU6ncSyYR0iX8zSr0tNVhxzmt6PvYJUhc90XkvtsJ6+HbqYQHoSFv+cSniZ1Ka3qSz+OEaJLvaXKKO/xMqR7nY5TPEnRtMz19mqqXyfLDLPx4DfOIzl8fz1775gH4NW6O8ifzZjppI51iRk4RtmkCWONX0xYVWRaWrQkDGWZsAdhFIksAcB/ugpTDjG8x42fSiGsK7vD3ihqZ2BBCW5+C7661GPr9DwjeORj84kewfXY1thSdiu4J70RwwjuQLHgfUlVUvI3TCcZi9LeVwkdlGRBMX+wEYh6MezhBGGgqIUyL6UX/gfPzLXv4i7+vRb/B35fzN/0v8OHjG3Z/I4EtaDfzvcYiKuvpBO80pGoLYdVSPVdMgY9g3j7h3djG8x9onoTIB+sRvu6T8P3yWwivvhXJ5x5GOjHINNU4kufLSgUT0tjoNOGbInaV6grqk+TFjLOWkaYrBoY+leK2BK9PysrCVgwKi9/A554QPjjMA/Br3DQDK+44iCSYmaNJ5DQGLMPqbIaZNp1AzIojkTMTcZFzbRPrIMyMPOQ6VMR5VaapuAqzYIboMrPbiSCy2x9FfPVv4P/GfGz/zOV46txz8HRLC7Y31aCnmkCqmIRo5QQka6h4G6dQMRagv6MYW2aV4blZ5ehro/IkXIMGrnvjIwDen87fGPW3R3Edu9RxOxV+ezlCUsn1hUhQPWdZiNhU3mnuF2koxEDjNOxqmYod7dPRU0+FXdWAwEWXwtd1PYaYhqGdDyER70XGjlK/qj6Rb2DQxI24m2XtREo3fx0UYoPloJnoIVUc4nUa4nUL8jHJRyvFrSnt4BH4YDAPwK9xc5gp05ptprbHLHMvAavJAYoEFnLS8DNHx6TBVJ1NZpELJxFNJhDifppzYMazDlsqkYD/7w+i7xc/RN81X4Tv8nMRuLgGgwRNz/QS9E4pwVBxEcJlBYhVTkWsmuCtm0z1OIXALcDOmYTv+TXYel4tBjoqTDV/VLiN6mMPwFK/wQ7CdyYhzPOJtpYhwW0pKuRMSwUy7VVIdVQZQPc0F+C5uknoLp+IeOFU+nQMVZWh7/wZ6Pnqp9D/05sw9MhqxJM7yFrpYEGWBWiKjzE18dBVAJpaiVSyNrG2ks7wM9TJ6SwSVMMxdXxqTLXH34PCPAC/1o2yNWclmIvVnphldZYZlVk8xurrSCicJDNthqrJinKfMPdISg/nzSaoM8F+pJ96FOE//wY9112BrYTGc+WTsbP4VAxUnoJw9WQkyyuQKiNwKkuRqC5ElNXxYM1kVs0nYbCBAG4qRG8ble+segzMboS/reqgAPBAazEGZ5QiNKsK8VnVZkRFlOcVqi1g4VOIGI872lpuRm30qZmjrQhWWzEyVRMRnHAS+s84Ed3Tx6H7nEb0XfW/CPziG0jduxa57VvBktAoX015VngNteFn1D5M8KppyLII2hSvb4KqlyDOsmAdGXft8ffgMA/Ar3VjpjTxHBUUhvAN8W+Q8I0zh6p5QsPHrCSBHE0gwuqrAtKoxptzcsgkIwg+9wgG1b579ecRPKcN/orpGCgeh57ycdhZcxZ21k6Er64AiYYqJBuqETHNCkXwU/H5WvIda8GWYoSoCsONlYjU19BrEWqsIMheuwBW04mfx9TL8+xt52dnVyJ+Tg1iHZUI1hfCVzHZeLB2OqItLJRmVCE2sxrxDqnk6Yg1T2aaTESgYTwC1WciVDoOoZIpCDU0IPr/Po7UTd+Ac9fdcIcGELPSCOZsgtVEwEDOJnQzRHGWtRmCOEcgaxSLoKvLLfcIfHCYB+DXuClbKiBMOid15FDxqq2Q25LMoUHSN8LMy/psUgHSua+Pn4naESSeexxDf/w1dlz9VTx3Xht21EzBIBVvlB4vPQPRqkmEawnVbC0GZtZgiJAZJHh7Cd3utuno6Sik2i3G0OxyhGdSHbZWI1VfhXR5JZWyRkaUEdKjw210H4sApqpt4TkTwEOzeJ6zKhFqL0OwoRD+mumsAUxDpKEIcQ1lowqW+1kY9RLA/a18r6MAmRnTYLVMhl01DonCUzE07Qz0VpWg76ILEPrilxC55WbsvGs1dvm3ImWHeXXUPKGG4BQsejKXNWMleCXz0E3zj9wbCHFQmAfg17ipL0ar5iSpaNWMqGqsVK/aFd0hPolxJ2VcKih/PIxnt/0dO2/7MfoWfRnbP3Q+nq0oxjOTzsSWojPRXT8Fvg5WrztKzYSGWEs5FR0VLVXfEEHU1zIduwhfdTZtn1GIXQRwz+wyDM6qQLCtklXzSiSrKpGoIoDrDg4AD7aXYmBGGdOlFEN8PkTAqgagoWsxnp/gq0eBOEQo99cXYBdf92mYG59nmwhgwtgiiGMzp6C/YxK2NU3CVsK7p5j719Xhuc9/Cjt+9QMkHloP2/csHHeIfI0RvKy10DVM0HTd8frmtDSSqjG6pp695s0D8Gvd1JygFgi5ho7SFR9GMcLVrqiOHlhJYNc2+NesxtML52ALgbKr8N3Yxqrx1sbp2NZQhu31ldjZVIOdHQ3YdU4Des+uIogKkCgdj1TFRMK4mOqvhBAiiKl+d84owA4qvG3thdjRVoSe1hIMUiUHmisQaq7kZzWM65/B9q99bAF4pA3Y31EOnwDMcx9kGvia1fzCtGABpaaHqODbyNeEbaCWqriOIG6oZAFUjlCtnk9HqHU6awnTETh7OgZnT0Ff60T01YxDH2sb/QV8rKjAwAUXw3/9FQj+5YeIbt9MNbydAA5CgeA1NtsMSiN0tVSdooF6/D04zAPwa90IWubQYWdVNWHnF7PkS7E3lfHD/+Ba9N2yDP0f/x8MNTQiOP7tCJ35BgyWvZfgpKqdXY+eWe0YaJsBf2MbAg318NWXoqduAnbUnIyeqtPgr5xkqtyaVDHUUsh9CWLCuLuNMG7N+y56twDdxio7waQJEKPCbVQfowBupbfJNWmkxDQxDFEB+xoKjA8JvA2FiDQVs5DSrLoyJKn+Y7UlCNbn95VqDrQWIajJHUyvKGsRodYpGGybCF/TRMRLpyIxrYBQLse2D52NXUsJ4g2/RnbwCYI2BE3KyK9ll3s+EptnB4V5AH6Nm4KDW6yS2hrCRM9kXWi1YHXi2L5dGFr7Rzxz7efwZHs1BqeeBbdgApzqs5BuOAvxuokI1E+lsiuhwqsmFGoJj2qky6nsyqaju3YSnmifiKebzkJP+VkYKJuIwaqpGKorgJ9V7gChY4DUUsTvIJSbp6O3WSMiphjwvKYBPOx+qludZ4ggNuOB+ehrLERf7VTjA3XTMNRIsGqIWnslYlTIwZqJVMITEWa6hDVTsJlp21CFcG0lovUViLOWEOkog/8cHs85hUi1TEW2bDyCU0/FrqlnYEdjFfo/+3HEfvF92E8+gFzUx5rM8GQO/rFZunrD0A4O8wD8GrdUzkbAzSBkZlZJ9brIRSKw7nsQ/lu+gW0f/TCeqytFb8GpSBS+B07lKYgTGOHWGsRbKpAkTGJ1kxCqO5NgPZ3AOYtQnWZmtA00lKC3phh9UnIKikPYDtYXYaBmOnxV0+GvZtW6VnEUisx3xhqnI6qYCvQgX+dnl40Otn/2MQhgDaOrL0SQ56cxwLEOwrStzBQuA/XTjQvG+m4FAwrxHAZrJ6Cn+n0YbDiVSrcQiY5qxFpZ62DNw1fLmkVdHdO4BkFCOP+ZKUzDU5FkTSNbPw7p6skIlU5DT0Ulus+9CKFrF8L+yypg54Bp21fAnwjhq9qNZ6998wA8Bk1KJ8vqpjpeXILVSB6z8GM+23ELMnJmxDArpz6kmDH5iWwM2PokrN//DoNf+iKeamrAE1S9O4vGIVRzFpINZxKW4wkAqrjmWiq0KqoxVp3rFd/gdALiVPQ3j0P/jGkYnEn110TFV1VGONNnVCIwQ3EZCBkNw6qlCq4p4HsjAC6mFyLeIAizik1IqRPLgHVv/QWw3B8+ym++pPMzPDcVJuGWUkQIXylgfZcg7KfruUCqR39DIfqpfHtZkPkax7OQY9q0VSLSUsPvqiGUazDQWM33Krkvv4uFWahW46m5L69Lom0aUu1MR/6mnzWQnsJCdNc3of9jn0Tw299C5qG7kEr0sqB9vg1CIXwUj3hksaXhgWz5JiipZMUEMUsqee0WY9E8AI9BU8iVpGtR3VrQwpBuVtNP08iZjOSaUQ8akB+h59ccjiGrqa4PbERqRRd8F5yHrUUT8dTUk/Bsxelmmmy/oo4p1KOGUBGWfjUfCDCCSJO20ZsKCBbtp46mYcAQPmYfQUZtmbthps8+/zz4In/Bfq8jN+lG3x2bwrgAvacPb2e6Bvk62lKOcHMZ4VzAApCFV0cJ4jM0rroA3aUT8GTpRDxzfhN8i7+IxMafIz3AQjaTMSpYcdQsN0oP8L6JEsUZ3hs50yWg5iktUZKL897RnHPPxpx5AB6D5pp4DEnYmayJVpZwHcQ1m42ZKJew4CZdsx6mqqOKF+CEdiK8/i947qqv4PHGBjwz/kz0TTvTRCIbmlGIne3TsKVxMnoIX0UPU6b3C7qCLSGgSGTq2dfEAwNmNR+YJoQ9QLwHbI0LxsNuPruHv2C/15mb+MRmNEgetM/D+MWef0/7aqhfjO5rLUN/G9N7ZgkirIHEWGD6KyaxBnMWnq2ZjqcvbMTTX7gUz/xsKXZueQDxbNJMX84lCdl02hTWYWpgFcy2Jm5YKTiZJNKsPdlmOIxnY808AI8l04ynJLVLhPo2xkcCN00V42P10cf6ZIzv21p0TTEnCWQrFUf8mccw8IsfYMuXPovHm5rw+FkTseus8YhXFyEzuwqhcyuwg1XbZ+snYmf9NPgEWWV+wXUffE/IeP7KuNJVhWGktRzR9koEZ1RgaGYZnfAmiON8L9Oodno1YdRhW30lHqkqwX0XteAfN16N4IN3wYlkkGVhrBhMccI4wkeNCdeYxJwTY0GdNLUlvuXZGDQPwGPIcgStOxSC4wtT0TBXUcWkbBe+dAaDlk11I8Vrk9PMUoFuuPduRt/i+Xh41gz8o6oKA1U1SJRXwKooQbKGardxGnrbpmPXzEJ0zyhGNxVvb00BfPVSwqOD9l/5aADx/BVw1SzMSAsWjO2l8FH5DvJa+QVgqmOntRa5tiY4ba2INzSit7ISW4qmYLtCal7/FcTu2YxANIEBMjfIsjmjiRpSxoSvJjerGUtAtjwBPCbNA/BYMs37j7IqGWK1UQFzqHoduqJfKXqZFryMIgE7swvWXbcidNXXsLWuHk9OmYxdU6YiWVYGVFcCtay+Vk1Fb/V47GyejL6zS+E/t5qZuhKDNcUE8OiQfSkfFR6e/0dummsIYI2ekJup3xpf3VqIfgWv53uxpnKkG6vhNDUg19SMLD1aWY6BorPQVzsBfZ/7EPr+/GcEfDEzCkar9MHqYWE+hAz/pamEbQLZ1RhFz8aceQAeY6aeayvjIs36ZDZDtcvX6j5Rp0qE+A0O/gPBdb+B77ovYkdtJXqnTEK0pgyJylIkS6cjXTEdqdoChOoJ4IaJ6G6bisHZZYicXYtYW7UZ0RBQzNpRIPtSPhpAPP/PXABWh2WyrQLJ1nIz2qKP121Xw1R0NxegR9O/qY59dYQ0C1UFQ7JbGxFvb0RPQwH6pr0FQ0X/haGPXoTwz38Je9tTvFF28E7pIYnDiDo2olaSitjPwl0x1Dwba+YBeAwZWWtga7PK6EgBpywTlpBZiNrXQqb3GQR/+X3s+MSHsaW+DLtKJiLaUAxrZi3SikZWNQWhmimItBDAHUUYUMCcGUWmWhvRwpcN5YhUMfNLAXtNEAfcdQ00pTndUYksIRyqm47eqknYVUNvKsCu9lLs7CjHztZS7CKcBzRsrbEUA02l2NY4DYHG05GtfjdrO+/F4HnlGFpyFTIPbQbSMdg5BwHLRSATYy0qwJtLRbhnY808AI8h0+wmszgCM07athBjtVHrhKWdCLJbHkPiJ99D8MMfZvWzGIMFExCgUgpoeJnJjNMR6ShB9JwKRM6vgv+cMhOzoa+d77drzTMCurIQgZIpZnmdfe2IGw0gnv9nnh8FUYI4AZtUU0TdNAyyEO2vnooepvmuGeXYcU41tp1bhe2zy7Groxh9bVoeaQr8lRMR1FC1c6ciWHc0egoOwT86puHezu/j4QeC6I3lhyqmCF790+hgz8aeeQAeS6aOklQOdsaBVrGIaExnZgCJxzci+o0uBC9mVbOkFLHpk5GonYYoAdvfMhk7KsexSjoZQ7NK4D+vAr5zK9A3swS9rQUYZDVWQ53CmtVVMQ2+UgVR9wA8lnyoideDhajG/UbrixGuK4GvoRQ9vG7bZ1UQwJXYeX4les8tw8DsYiQaJyFXNR6h1hrsOq8OfbNOpiJ+M/7WUYFrP/UdfPXHvfjN3230KByp1gTkbSX3bOyZB+CxZE4OuYRr2oBTanJw/Ij9fQ0GOq/CwDntCJcWIlo0kSA9C4O1ZzGTTmImLECorRgDzQXYVjcRT1ePxzO1E00VdqiN4G2tMKv/Koi4onUF6jTpYnTIvpSPBg7P/zM347Gpgntap6Gnbaq5jmktddRQiWhtGfpri7G9sRBbqXp3zixC/yxeBz5mOiYBbWch1liKvoZG7GhvxL2XnodlX1iA1nl3YspNg7js50H8fn0Yvu0pEy3Ps7FpHoDHkCneq4YSSbjYoTBw750IL7wOOzrq0F10JsI1zHStVLCtE9BTfyYGCNyIpv+2lCHUXIpuquLnWDXdUjkZ/VRS0dYqJFurEWkooeql+tWqxVoWXpMnRoHsS/loAPH8P3MDYNZQdswuwNZzCzHYXowklW+uuhxOZTniNazN1Jeht6kEAwpp2V6AVHsRsm0TkWp+P2tBJ6K3oQKbLvgsvvmF3+KTi59G/TI/zpzrw+Q5ffjgt0P41cYkBvuTZlywZ2PPPADvb1PPmgld5fKpIlrpH5/nN1H15vdRC12C3s0NfZEgUhs3I3n9QqrYmegrnoqByrMQmjkV0XOn83EKldMkM843oBCRVcycVEOKvOVvKSdoFYu3AjET66ECIcJ4sG4aBljV9akNkZl+NMi+lI8GEM//Mw82sSBsLUb32cXYeY6ai6awkC1AoqoS6do6ZBvrCNpKFrq8trxm8eZCuE1TYNeNQ7j6VAw2nob7L5qNFZ/5Lj44dyfaunKYsSCL+qsGMemKAUzuSuCyX6bxy3sj2OXXytgjxhvPxLXUPanJzLz/1P9g3uMTxR+R67ln+9U8AO9P052tYCi2TeAmkUYUYQ0my6XgaGS8iDs8TUmTLHqJ4WCqG5EH/or+xVdj+9kz0FNSgnBFMeL1yoTMuG2FrKoWItpCr5+GYPVUqtsCk5lDLaUIUg0rjq2ieYWMlxDUhC6Vsq9pJM7DP8PgZV3fsw+en9a8L77vqvzV8FHT4mV8tO/5V26mJetaskCN14+n4i3GjuZW7GyfiWB7Lay2qciy1hPWFOeGIliVJ8OtPBO+ljY8eNHl+N6nl+Kj129GyYowptwIVCy10DgvhNrrAihbGOf2LM7/aRbffMDFk9H8Lec6aTjJGJDhI0Gc4K0YpmsdQUc3o+PnPauRE3kke7b/zAPw/jTdvwKwkyWDQ4ha/Qi5Q2RuEg4lhya0OcwHaqPT/P3BdACRB/+CweWfw1OXNuMf1dPRW1mMVGMtUk21CLI66mukcmovQ6yNGbJmMvzVWhaemVlgJWDznn9uAuvsfv28jwaNl3ZBNQ/1vXV/I6G6T/76A7CJmcyCMVk7EamaSfA3lGN7azO2dLRgV0cVQu1TkGybgEjbdAy2smbTMB2JyveZAvX+S7+EH33mR/j819ejuWs7Jt6cwPibLRQtz6BlcQznzQ9h9oIISqmIp3a5uOiHSXz/ngSeCmomexZuJo5cOgXbcqDlAwXgKO/TjBXje0O8b0MegF8F8wC8H80MK6NrLYOMFUE8OYhMNsLtjqnyJVgnjNO1T86iQn7sHvQsuQKPX1iHx6lit9VSwTZUsRpai0hjJQYIqn6FQzy7EsGZZeivn4x+Zlyp233J+C8Gxsu7B+B98dG+ZzRXEKRgYwHidRMw1FCK59rOIXzPMW3DVuPJyDadwlrNdPRpuf/WEgy0TEM3lfCGiz+M5V/4Dj5z7Tqcv+AJVC0JYuoKB0XLcqhbnMXZ8yK4eI4fF8wNom1hCjULMqi/ZgCX39SLn25O47mQi1TORdayDYBd/nPU6WslkKIytlNUBFr3yLP9bh6A96MpLmuKrvgNWTcNK5Og2iVx7fzMtgESesDsR6XxzONILO/EM7Ob8VDReDxXoVUnqpFsrUeypZaQLTUjG7q1Ntm5lfCdo0w5Df0NU0fN3C/lo0Hjpd0D8L74aN/zUj7I9NrR2oit7bPha2uA3TgBqDsJqYaz4OP7vubJCLScge0zS7H2A5dj4ee+jwsX3IO6pTsI3xBKl9go7QRqFwEd87M4f24YF88dxAXzfJi9KIqWBQlUfcWHui/sxMduGMAv7k/huYQ6exVVT3eiVm6l8iWArTRra1lNgaco4FbP9q95AN6PluEtHCNcFSpbS8fng2OrRSKHyDB8NWM/PvgMkt+9Cb6ZM7Ft+hRsK5oMX1UpEs11SLU1ItpWg34q4u0aatZWiO5ZxRiYVQLfDKqo1tEz9Uv5aNB4afcAvC8+2veM5lr0VNHptrU3Y2tHKyFbQvieBbdhIhKNap4oRbh+ApIN78FQ++nYeMkH0PnZn+C8eU+j8IYAJt+YRsmSHKoWAo3zgHb6rHlpzF4YwKzF/ejoHERrVxjNnQk0zomh4kt+VHxhEB++JYSfPGThuZQEQoDCYDty2SETfU9NwHrwFl5+dcwD8H40hczWhIokAeyonUHxUMwNLgArVpWNRHALen/3bWy/5Gz0TaXSKZiGaK2mDVcj3lyDSGsNAu1VGOioQHdbMSE8DTsap6C/aRpCrcUIs2qqwN6jZfB/5aNB46XdA/C++GjfM5oHGglgFawzWtDbUYNM46nI1b3fLBM10NzA90uRqj+F11ijHWZhxadvwWXXPo7KJUlMvSGHwmVUvYRv6xxg9nX0uS7aFxG2S32oXdFP5+OyKJqWJjFzeQpN81OY9kV+9vNhXP7DKFbvshCwBpAMPwU37mO1zDX9ESlWyExnnbmLPduf5gF4P5qWEk/wjk5aGaoMGy7hq8EPUhcZtUOE+hC741d47GPn4+/TT8fAtHGIVxYxA1Yj0lhh2gX7mEH7O8oxNKsKvo4y9DZMQ3fFBAyUT0C0ZjpiBJcCuvxbIxv22j0A74uP9j2juibEaP/2CsTbp8NpPAXp+nEIKT2YhokGzXabiHsv+gC6Pv1jXHjdM6jvDBoAl3cBdYuAGXNyOO9aFxdcZ2MWAduwJITymwZRcssAHwOoW5pAW1caZ9+YQNOyGKZ+PYXxXyaMF0cx5/8CeHDXIOz0IBDzIxeJI2dlec9aiPP+1CA1z/aveQDej6aujYybRjIRRzqeNstySQTr1kbSh+zaP6P3cx/D42WT8dTUkzFQMxnBukIE6kow0FCMXQ0FVLzTsUtjd2eUI9RWZmazDZVMRLBoAuLlUxGrU1BvZmINUdsDAq+sewDeFx/te0ZzdcJpOah062RYbZOQaJmGcBML1XqtWn0Kgtx+1wc+jIWf+w1mzB1E0RKgakkEzYsH0LgoibYFFs6Zm8Z5c1I4Z14crYtDqFk+hNKbh1B+M+G7PIpZi9QmbGHmoihqlwyibCnfWx5DNQE8a8EAvvnXGHp9OTjxBHIJH+zcEGtmMboWwvcAvL/NA/B+Nd7YThapaBzJmAKi5NvVcmk/rPtXo+/KT2FbBauhBRPgq56CXY1T0VM3Bf2KitVShJ1thdjaOt00O/SzuhqqL0SsugCximkGvokqPq8fzvQvgsAr6x6A98VH+57R3IyCEICbJyPZWoihtkoWplOQqX8voi2n4t6LP0D4/hYz5g9gynKgkF7XFSZo+wnhEFo7I5ixKEgPoK3TjwbCtWaFnx5CI9XuzMUpXDrHwYeusTHjujhquwbQ9M1uNH6nBxWL/aj8ahwfWeji53cAu4Zc2G4AKezItwt7DRCvinkA3t+WU2yHLLIp3tJmXS4Xyafvw1PXfxaPVU/G4LQz4dYUI9Zcjm3109FNAPuaCzA4owS9sxSOsNC0+fZpufKKqUgSwKnaYlZPFeFM648RjqNA4JV1D8D74qN9z79ytd9H6aGWCgy0ViHQOgmB9nF4+MIOLP/M9zFzng+TCN7pK1w0dMXRsjiMxk56lx+NBG7j0kGCdxD1fF6/LIimpVG0dSWpfDO4YH4WH7zewmXXZTF7noXmJYT2TdvR+o2tqOfnS79qoeRTFj6yNIU/PpZDr5Om9g1QBUfN6iyeAN7/5gF4f5p4y5vYYJePuWwW6f6d2P7jm7CpvQT/mPIuMwDfbipBpKEKA7UVCDQUI9xSgKGOIvTPLEbvjCIMNE9HoGaqUb6p6kIDX38b4TyzFD0dhCMhrLiy+QUhX95Hg8ZL+2gALnuRv/D9PFT1OOJ7wpbft9sJrBE3s+H+lY8OsH/P/3lyym7fHago/7vm3Idd43PlI+li2m93p1G+Ld40B+3+vABbuNv12iyAat7nc7NvMSJ1rMnUTeM+CrpTjTsvuQzf+NTNpsOtrMtGwTKbyjeOmVS6MxbG0dyZIoDDqFtGtbucqne5n/ANo7krgZkLszh3voPz57k4d4GaHpJo12eX8/nSJDo6BzCDSri9K4bqOWlM+GIQhVcP4H9/ncBftuTQr8A9BDEVgwfgV8E8AO9P00Qi2/w3ZodC2P77X+Oh//4AnqpXXN7TEWuaAH/1JISqq5BuaEW6sRJhvqdJFj3NUzHQVogIYZ0m1LK1JQQ2M3lDEba3F+HRWYV4loDWUjZmqupe+ggw9t75mRcBNu//PoDlAnD+OUH0kgAegeKr7cPnPux7wnc0F3z1uOd37Alf+Z4A9pl0LUS68gw45e832+686GNUvj/DR659Es2Lg1SqATQuHsw3OSxKYPbCJM5emEDb4jgVcRS1yyIEcQyNS5KEs4Xz5+Rw8fXABRqW1mmh4qY4Cr8ZRN2NIZxNEJ9PZXzePCriRRZaV0RRuKQXp12zHdOvG8BXfpXBA1sBK5Xgvas1t71miP1tHoD3xXQ/kqau48LJafpElpssCgUbOQU3yU97MztqW9rRgoj5jrdcPIjkutXY/r//g63lxYjXFiDVMR2+jkkGtP7aSsK1Acm6cmg5+f7ayehrIKSbCxGl2k21liNFkMWokKXSdrYW4mk1TxDEAvAroYBHwPBiH2opw1BbNYZYRfYr1gS3KQB8sHEqQk305mn0AgKIUOGxDWpmXpOCxCv28EQMarZePffXZ9urWahUobupEjvrK9BdX4OBxgb4WAUfauf+7RPga5sIXys/x+q4r3UyfQp9Ko9hGpV/Afzt/P42VtsJ+khDKcJygjxMiMtDPD55mGkXbpEXINJaYAqpcFMFt7OQ42OoscyA38fj7ec+A+1q+inEIK9LXwsLwcaJfF9BjybzGCehl4/9vFZD+j6mV5LXI8XCJ9ZSzuMqQ3d7MXpalTYFiNZNYkE5Fb3NFdjW1oDuthoEW6cj0TyRn9XkmUJe50ms0ZwKp+oMRHn8D5//Qdzyv9/BB65/GqVLLBQvy6JpMVXvggG0LQwQuDE0LQmjtZMwXpwglFPclqQaTlIVp9FBAJ89z8G5c23MWmBTEWdQfmMCRbeEUHvjIDq6hjCLinj2QgezluTQcVOS20OYPs+HiV/qw6w5A/jGX0N4elCDJwXgCG/eJJyklrjXTZy/s61cmq5R7vltuudzpoqnDZ7ti3kA3lvTzcWbUOMk7awNy1XEXg3W4Q3KG9K1CWKtD24rvpTWH0jxFk4hxGdaGjz9yJ0IXnslgnX1yEybglzldGbcAvTPZoY/r5JV2QoECOZALdUSweEnFEaqyiNV2xGFZZwwEXj1uCdE99VfAFr+5gu9wPggAdPfUYf+9hpCuJQgEdC09NEEwmw8gk3jebyEJqE7wO8caFGQ8Snw140jfMdhoHYCoSx4Engd1egjgHc2VmF7XRV21dWhr7GF0K3ge2cQwCfz86cQfiejr/5k9Nadir7aMzDA7/LVTyDcpuahyuMNVTFtygoRKmctoZLHpE7Jmuks3KbRpyBBCCbqJtDH8/WZSBCIiaYqxFtrEG2pJKRZsKjAaJpuwj36ZhLuvB5Ds6ajnwVAX8OZCNSPIyjHoZfHsL3+TOxs4vYWnguvTayhBMmmciRaef06tPx/EQsWHh8Lz1gNC5D6ImxpacITHe3YwfOOtk1AtvV0RFWosMCKVp8Mu+K/TMF27wc/j+9+6lu4/Jq7UL4kgDNvACYuB6oXW+iYF8XseUOErA8Vy/0oX6524AQVcYoQJnz38BZCucU85l838XVTF/dd4UfT0l5UE+aNSxJovxGEeQ5Ni3JoXWij5fogmq/cgo/c8Bx+9nAUPWqGwCCQCMEKuXC1pBxBa1N4pNwIPcb7nplC8OU979pOHsKe7ZN5AN5b072ltgTKWdcmYHMa1RDn/afJxlnefLwTqYCljm3X5pY0/2WRysWR2PEEhn70LfRcchGGiguRKZ4Mu64A8TZmdjUhzCJ8CSUFYzFVcRNYh4Acrq4aUO7hei3FaxTdqwDgAR5TD9VmL1Wa2i219FHy7FIkZlFRt04jnCZgR9UE7OQ5Dc6sI8Qa0V9Xij5CcUjKdhZVb0c5QUulqeBBVQRUHdUgfzMu5dw4haCbiDBhGaohzMvPxEDRaeiddgp6Jp9KPwP9U8ZjaPokhIoKkCyvQLychULhFGyfPg7dhQR8yST4yyYTxFMQr5yMRAXBW3YGYsWnIDLtRIQm/xcixSchzt+KtE8j9NS8Q+djkEBNsNDLNJcg21zKxzLux1pFA6Eup3r310w1IT17qfw1I/FpFjZPE7bbWBgMtElZFyNWzXMqPwsxpkU3C5inW2dia1srC6UixJrO4G+cgVDbFCptfobAj9SfwvQdj02X/D/c9IUf4vNXr0HHoi2YujyJ8QTw9KU5NC5I4Zw5QVx4/QDOnu9HQ2cU1V0pApiQHQXATQSzcaOQuc/CFNVyEu3LQ2hc2o+KBf2oXRJF03IX9YuA5oXArKXA2Z1U11c/h7brnsBXfhvG+h05pK0E7/kU3BRFBYWHYvOoxmfnErz3KTp0yzNPWBQmFu97j7/7bh6A99Z4c5ngUHQ1N+RMFUzz6NXAwDuRpvsvy7sy6Th8RwN5LDixXfD/5ZfY9qlPMuM2ok8xHuo1i40ZkNXpkIKk1xJUrBb7Z9TC30oIDyvfER8NnHvTpLA3vufv/DOA8z7YQEVYN4WPrDoTVBqPHKTi81O19hOw3Y3l2NVYie6WWirlZnoLtzWit6EBwbYWxLgt2lJNoBVRHVKVapxrkxTpSQTmW+ErOJJwfTdiJVSTFY1Uq42INbcjMuschC68GMGPfASBT34S/i98Fv4rvozAtVdh6Lorsevqz2H7lf+D7qs/hcGvfxbBaz6LyNc/g9jXPonI5/mZT1yI/g/OwI7zG7BlZiXTfzJ6q05Cb+m7sKvo3egtPhH+itOokCfDahJ8K5DkucRqSxGpKESwsgi+OhYgjdUI1lYiWlOBUG05eutL8STT5BHWAv4xYzp2sRCNMZ1ypVNgF59lwoM+1TaDyvd8DLZWw6GSz9W+G9GG8ehvltpmbaFtPLo7CrHh4suw4As/wCVzH0THwq2o7AoQvFkULnWofpOYOd+Hi67vxiXX9eGC6yOYMddC8wIHzaPAd1TXfoR129IYmpcEUbsogNrFMdR3ZVC7MEt17GDWjTmcvSKN5rndqLnyKcxc2INlf0thW19+4pC5s13W8FyqYi3uqfYIxRLme5bFXEBPUw0re3i2b+YBeB9MJb4rlUuFKwCbwA6SxaqK8b9uwBR3ivPO1PTjnBOG9Y9N2LXgSjzT0oyeilL4aovQT/D2UAkNNVN9sao8WDqJKrIY/TNqmDGlgscWgP0N0xBsmIxwMx+p5gZY9d5ZU4Rt1SXYodEbBGxg9gwEZrWjr6mWSphQntEA36wmhAmvTFUZ3MpSqn46jzfTMR2BGWehu/UkbG14B7bUHG/Wr4t+4ONIX34lrC9dC3fBMrjf+yHcP/0ezsZVSP/9TkS23A9f7yPo9j2GXUOPY7DvHwh1P4FI9z8Qp6d2PIbUcw8h8dhdCN+zCoMr/4Adv/sxnv7Zt/D492/EE9d/Dls+UI8dVK+9VMmBYqrkoknIaCl/Lf3OAqKvbip2Vk/Ersoz0V3FR0K5p70RvoY6xGqqkaquosItg6+6ED0sSHXcQzNKEGsrQpKF1FBtIbY01+NZKt9+Fjqpxklw609HkoWOv2EK0/EMRJregz6e/8ZLLkXXZ3+Ic+Y9ReDGULgkg+IlDso6c4QvgbgwgNkLduH8+dtw/rx+nD03gY45ObTOc4fBmle5e+OtXQm0dMWpjmNU0XHU02sWxamKU5hxk41ZNxHsiwMou3IbCr70HD6yYhB/3myjJ6y7XHd2lPd4gDc5H1kDNLc9N2dsB3EKDoW1VjOxZ/tmHoD30qRu1cdmE7C2QzWgNjLNLZYMEHzpmmKcZj3MjOTRhwaeRvqnN2L7pedga6naLMuoBKmgqHy2thC6aietnYq+Elbfq6ajh+p3sEWjCJ6Honw0cL4SAN7zN+SjwVcebJxGaBDAOl6+7m8oRTchu0ttuA21hG4dfM11/M4qArfctM8OdEzDwExW9wnbdNN0ZMsnIzXtLCQmjUeidCoiM2sw9D/nYue8j+C5b30Ku353AyJr1yJ914PIPPQQnKeeRK5nBxAaZMJGmMSam5XhX5socBChK9OraXK4GDT1EAVXtK0ssvEEkv4QIr0DCOzswdBW1kT+/hCCq/+AyG++h8Q3lyHz9a/Bobp2m9uQmVqAyGmnYPCM96Cn+P3onjUO/ZcVIXhpEyLntiEyg8q8pQaZ+gpYlcWwiqYgXTABydKJpjkl2K412wrx7KxaPDmjjUq3GFkqX6f+NEQaizHQVGk63TJ172Tt50Tcd3EHbvjMLfjAnCdRsCyLs1YABV0YDqyTQ9u8JNoX+tC+eAfhuZ1KdQCNBGnjghya5GrbNc0NanZ4eReEWzrTaF2aQfPSJOqXRFDbGUL90jCaVyTQeiOBvyyFijlBTPpyD2q/1o+rvp/EuqcBP1PXxhB1Rg+reEHe5EStKn+84bOOjQRJrC47XQfP9s08AO+lGQDTLQLYsbPI2QQwQayGL7V9ZfhmglUxPZr4qpkoMmv+gOAnPoAdNYXoqypEiooo3VGFodZC7GyczCr7NPS3FqGnbhq6awqMshxiZh1rAA4QoBrtEFRzSVMxYVtBr6WCr8NgQyUGqd6Hqqexij4RFhWf0zye1fgTMVT1TlbhT8Rg0xlU9tMxNLsWgUvOQeQz/4NE5yKkf/8rxB/ciKHuxxBI9xu4qkFHQYyyTG2NM1EsZVVujauwM6UgrwfrxrZNANBtcw1yfJ/O57nhtnh1DsnNhROhR0xVaX8/8NjDwP/9CVi6HO5nPoPsBbMJ2XKq1Em8LjzmmeOQnVkC8JoltcApC84YPdtcQEVPZTttHOwpZyJRMhEKfL/rnHI8dx4VNmsyscYz4Na9i8qXICd8B5pKEW84HeGW03HvRedg+ae/gcuufYRqNIDCZZZRvrULXHRcn8PZ17mYPSeFtoUh1C4dQMUNfSi70Y/KZUnULXbQuMghVPcNwI1UzC2dWbQts9G6PIWGpRFCOIi6JX7UdgUJ4hiab8iige+XzE1SBUcx65oYlt6awiPhBGIEMBUFM0CEpR4T05R+CjKl7mYPwP+ueQDeSxOAhQKbpb0r5atFDln1UjXMJhdSfBlPubB4bzrZOCLPPoy+BVeiu4JwLRxnhnIlZhLAbZWI1hN4DQXoay9G9+wydM8sNTFhQ/UEKqvBLwbjaPB8NQFsVtbQOnKtZQiojbq53CwW6SN4tcpyvKmAUJoKq2kcUjUnIlHxX0hXnoho+fvRU3EytlAN7/zChfD/ZAHiD/0Z8V0PIza4HRm/H66f2A0StqpQMI3znkeuAKxed4sFXda2mLZUYqzyWkxwPXfcDKGrTtAUP5N3jUqxkCDA4wRC3rPDrxV0fLcJyOk03FgArm873O5H4P79NmR+cyMiV3yctZMK9Jx1CpJTT4ddOQ7BqtPQ33gahmZOQPzcqcjMmEaFOwmpMirgsskIMC3U3jvUUY5I20Qkm083EBbMgw3cp+EMpt9E3H3RJVj8mV/g3DndqCZAGzsHUd9FXxxEx7wYzrsujfOvtTB7bsYoXsVtKLopjJIbI6hZGkfrwjTaF1DFSg2PAtp/5Q2L0lTNWSrgLFqW8ne7wmgUgLuGULVoCNWaYUcAt34DqF2ew/QrCOLPx/Hhmwbxi4f70J0OMcESzAjEbIZXKcEckWKO4LVRE4V4rMLTs30zD8B7aVJYFkt7yzQ7MCMLxFRaAm6a92OaIM5m82o47e/F9t/9CE+e34ZdZ74PQ6VnIXAOle/MCrNCcaqazqq6j5l1+7nl2HVuBULt5VRLmhFHEL4IjKPB85UAsHzP3xkVvnRfC+HSXoGhGVWm422IxzhQMQmDZeMRrD4L6dapsGdORartTAyUvwU7ik5AfwtV80cvQOjqT2Ho+4sRuvN3SPU9QO710zMms0qYqgDTpKssAWwTsoKqqzHWfEOFXda1mb4a+sSq7rDHXGZ4XgM7xw/lBIUEIZx3l849+P2sgdA1GDBpPIKsRUzE+MssKM114u8rFLlCLwr2Jii5fysy925A+Gc/h2/BfAQ/eg4LnLOwvfJ92FL2btZU3o9A2zjEZk9FfFYBIu0aZ8zrwesZrKtGggVrhio31Mb0YQ0n1HAasnVvR4jb7rz4Usz/bD6wzrRlQMlSoHVRD9o7n0Vr5zbMXNiLc+aFCF+q3/kW6jodlC9zULYiQ/gm0b4oigvnRHA+Qa1JGY1UwXu2876UNy5OU21n0NRF9buY6pfAb+wKGQVes8iP6kV8vjyNlluAuhuA4uuBwq9oJY2duPp3z+Ke/gjTUDKErqQyIf34RHmCG0aagTzbN/MAvJfmsvprKaykpBoBoY43CmATOzVJAAsoqiEjnUHq/rvw5JWfxWOlE+GbfCpiAtz5NehmNdZXU0yVWI5sUw0zciWrqyXonkX121aCpEYJNI5BALeWYqCjEn16bJgOf91khOqGh43Vj8cgq9ndjeOxg9DZNnMKtl7WiG1zvgr/734N99H7gEgvE2Zk1YUI7FSMaZmFxQTTWJK40EmoZu0sbK2fR/BqsUibmTsz7Gm+TnF7gp9RJ6cJcq9aiOmdpxPIxokDXinCgKqZrqGAyZxCLPIxnWINOk61nTaqTW3JQe4doaf53OH3qqAVncWYVDyC8NpfY2DBJ7Djk7OwbUYpdlWNZ+FzBnwal6zxvDOZRqzFBJg+wYZKxDStuHkC+tsKmV5TEW56HyIt78H9F87Cos/8DO1zBzCN4C1a5hJ+SbQt8qGN8G1eSgh37UCrZr0RtI1Uq/WdOUIYBKaDdirf8+ZF8MHrArhoboif20cAd6WptJP8zhhqF4ZQvzDI7RE0d0b4W2ED5YYlfH+5haolGVQuclA1jwXAlb245IZn8ON7Q9gayxnuGlMCqTnIDD9T3D/VXDzbV/MAvJem9kWHAHYk1ajCDIB5/6Xoqn6Z9i8Nk9i2Banv3oJnzmnG01NPpUKcgsRMKsfZNdilsbQ1ZQjX1yDRVI8gq7m9BO5AayGr9tPMKINAc8ELoCgfDZyvJoDVMdjTWoIdBG9v1RmINE6ANbsQ1nklZuHIJytPw13VE/DQxa3ovf7LiP3hZwg98QiiQT9rrHu2DKoJJ4u4lUJQzTRag0xLNQmYgp/abU3bLZ9nqEmTxGeC0EymCM0s019tjhpnzQwvV8Y310HAfN7VVCQUZ7g9RZgmbLqV4+/ZCNrUwm6KAM8QzHI1WuQHFJp+JfoISMQaO+5D6rm7Ebv15wgt+jqGPnwR+psr0E31v6PsNOyqG0/YslCaWYpAeymvqa7fFDPcrJeA3jFjMu6/qA03/e8NOP+6bZi6BCgggBs7o5i5SJHN1EQQpDLtJQD7UbfEh/olCrYjuFpoX+BgJkF49rwMzp2vxTaDmE2AaiacOuJGg+1oXr8kgdqlUdR1EbSEbRMhLxXdxvfaVRB0qT05jloCuYrHU7ssiQYWEmVfJ6ipgq/82RBWPZ3FEJWGUbpKHJNAdGWEkdee7ZN5AN4X0/CbLFWXHpmxde+p+qoVjfMApprbsA79//sxdJdMQF/x6ay2M1POIoBbqtDfUEWlWIfe5gYzrClcXYF4VTESVE2K/TrQrmrr9N0TMEZ8NHDuBjDBqFjA++KBFn7niDeNzLij0m0sMNNyzfL1w65RD5rd1ttSiH6CJdQ4DvGm0xFvPAXB+pPRT/W7dXYlnv7c5djxne8icfcDgM9PAOaBppqBVmLSeFLlU8FRnW0RO4UYPeMSrKbJgdDkPmpPVyAuO+uY9cmyqQzhm4Gb5Sf1plFd6mijzuXnWCcxSleaV/+oi/m21DE/T0irvTibpWdcJAnwKAvPOBVzxmHF2aZaZjVGX6ljzBDoWX6nxULCtvm73F/XWPGbnZAP9qOPIP27XyF63VcxcF4Tdpaegd7p70egXDE9piDaMR1Rqt9YzSmI1JyEnW3TsP4Dl2LFZ7+JD137d1b1oyjRELDFMcxcGME5C+OYtTCD9vkZtCiY+qIkaruiqF8aQktnGLMWELhzkzhvTobPMybeQ/mNUVTcQIXcmUAL9x8Ntnt6fp8E6pZFULMiiHo+ti5LYcZSCx1U2TMWZTG708Jsql6Ft6xbNEBI96DxxiAab6AanmOh+kthfIDK/furY9jCikxMzT+6wkwzk0C62OrsVLuOZ/tkHoD3wUwPu+hgetqk5vIAZs3MVJOtQB8Gf/ANbGurg2/qGWbZ+IHZ5RhsL4O/vhxDDTVUkvXYTt/F58HqSmSry5GtK0VYVdYZWn6capiqeM/JGAa6ZmYc1e6wB5sJduN8zn323glvKvGAiYNQSoVLKGvkhbyBv0X3NxC+DYQxfZCuaGy+DlatZxUi3TYJ4aqT0F34DmytPgm9lzUjtvxaZNevhtXjg6s2GQGU6aJCKc1cql7yNCEm+CqLGucfVfdVdX1+37zrucA9Am/tI1Uq1+fISaOEswRlht+uWYeamZVviaSrnV4jVHhN8jSnE6aaKs6P5OMajIBj5MsN2HmEVOS2m+S3JPiN+va8OtbuqgWZYXH3rUPy24vh/9TFGJhRBl/VeIQrz0S8ehyyFe+BVXo8r/dp2HTRB9H5mR/hguueIdhCaO4awszFu9C+cACNC9JoXejgHIJ19lwbbXNcNC1Qs0TadJC1LQ7i7AUhnD83inPnUaEuTqP8hhQmfjuJabckTHNC694AWMPVCGBFS6sjgBuXx9BxQxazVuTQ0Wmb+BEC8NlLs2gn/BsXD6B5aS+ab6AKXp5GtZoiruJ3fW0IV/wwhNVPp9GXVqemmuKYHsoELOBM6ekBeJ/NA/BemrnXTF7mH5PB1QnH17zvtD0V6If/zt8i8MUPIFw8Eb5ixfWtRFBBtlsEO2ZUVl172xQzoAI7WyrM8KRgUzUizbXcrx4+BbwhUP2N0wjG/DRgKdA8HAnNhjKqTgXrqaBrXKkip5UhVleYb3s0jy/l2qcY4dpq+GvqMFhTjf7aCgzq+xoqEON3xWtLEa3mb1ZNw0D1FPTWaursFATPnYzYDMGXVe7icdih5pSvXI7oX36E1I5HEIsPQSFc8oP2NY4hZ/7u2TQgzo1mhn8vcm0bcWXrFzj/CIYu/0mj6u/Ir5hPi9C73ezMLxpx7rKnc9Pzrv15XaXIjabOFxwaFqdd88bvTwXh9jyN+L3/hx3fuAaP/3cHnq2ZBP+UU5CZdAL8ZW/D3Recj64v/h6z5/Vg0sIsihdGcc7yfnxgRY8Jnl7GbZWLwOcuOhSZbGEazYsyZsRCc2fMqFF1unUsivFRISjVhJBAxYoEqpYn0LBEEzEU5+HlXcF6mpbEjTdTRbctpeomcNs6MwQ7n/OxvYsFAn+juTOK1q6IiRdRxd+ouiGEyqUBVF6fQPucEOb91ocnfOrwVFoz0TQk08rCJYiVzJ7tm3kA3kvTzSXYWqyaOtnY8FhgviGnJXc8gR03fRGDMyciWXQ6fDVlGGyuR4Rw0+SEoaYyDLSUoK+1GD0K2qIhaO2EWFs5FIjbr4kMTTUG1Pm2V7XJSgGPqFMqX0I4SA/JFavAxCso5W+U7YOXI1RXiaHacvTUlWAn1XRvBwuImZWId1QiweOM1mga7lQM1UznMSj+wyQMNr4P/Q0no4/HPviRixDs6kRq4wa4wSGqIRdh4+rsom6kxBR8X+umM0g6GSQVD0EXW4pa7fzDluUZD267G8/9bCm2XX4h+isKsHPa6VjXVIvlH1uOD1y3HdOXABOWKqhOGLMW7cC5S/vQTiVbu8yhKib0qHJbF0UIyhgVskA74vk22SbNXhve3rJYyw7xUcPXCMd98WYBliq6hdCWKjbqWM/VkTfs+dcCccYMW6vi71Td4kPlN/0oIainfzmMD6/ox5onU0hL+aoKYSepR1hMeQD+t8wD8D6Y7i87m0ImSdQQxFLAphrLOy/x0GZs++QF2FJ6IvprxrMKX45AfZ2JIRCgujQAprrtaylGb2shwatxwPkoXIOs4kv1KozhEEHrI1T1qKaBfFCefFttsLkAIe4baZmWj0ZGD/L7fM1V9Bp69ct4LUFfiVBLAQKtEwneidh+9iTsuIBK90LC9lz+RofiU0wjpKeZEIlxqvJQ1UT0FL4HO/h7fV/7b8R+/yNYTz8FN8xqqNpgkuSS6ZvMmdEKcVftqM+D6rVqaiKJZZKIscqtDkIj+ug6M132LEtfOxeGte1hpH/1XYS+9Ck8cNnluOnyJfjvz9yOuit2YvoCF5U3UOkuI0Sv345mKuKZN2ZwzjdyOHexH7OveRZtc/sIWapP+W4Aj+4teuR+o0H2pbyZSngEuC/vGjMcRx0LjboVUVTdmEAhlXjBVSFctCyM763LYKtfU2V44Z04r32GCcLc8dq/5K+6eQDeF9M9ZrOabSWRcS3TbJjLurADfkR+9RPsaqzCs1Pfje2ssg82UWmyqh9soDexyk/w+VqkdktMkPXBNoK3TbFlWXVtmoBg43j6WfDVTcVAXQEfCcT6vPsbpxPO0/k9BKOBrwL55D3QqhUz+J3NpcOP/9r7uc8QgR1vm4bUzMkIEL7d556F584+FU/POBlbWk9Cb8vphPoExBUhrKkAsQbCupznQyXv+8zHEPrjTxDtfZaQ1dAtnT//aISZGQpCILkxbg8zc+qN17apGSWj622rA5AbeEoqaFJJqv2sw7PMt1PDIYh6nkX2zjV4/Hcb0PmdZzHz+i2Y/tUdmDYnjqoui1X+NGYuDqFtng9ti0K44MY0Llrix6zrtqB1bj8BmdwrAMsF69Eg+1K+rwBuWRylB9C6NIUa+vSF/SiY40cHlfCXf5TBqscTrO3woudYOGWYKFnVEDwJvK/mAXhvTe2HhK2GQqnsz6qnnZsz2SQi994F/5e+jKGiAvSWnIads4oIuzIEWNUPNFUhQPgONVUQymXoZ5V/gGp2kHDzNSkw92QqzkmINE2kE8QNE01oxkD9JATrqXAVOa2eqrShyDQ3hKmsIwR9pLGGXouwVtBo1PjhwuHHf+3qhNNEj0xdCaz6UiQ0goIw7m4ehx11J6O75n3wN5yKBAGsyRXh+rNYrT4Vg+fUIzH3Wlh//ROy259GzEnARzgNUfKkqBKdLFGl+ACZKHJOH7f2MWXUdfXaNyHFTHO2XJ5jzsTFTcVdBDMOBnlPBLiD4lGoHVrBy/1DNv70d+BLvyNMl/Rj6nU+QpjA7HJw3gobF3ZFMWveINoX+NHYGULtEq16ofG4guvYALCCu7ctjrDAYAGxJIP6JUkCeDsKFg6iZp6Lc+ancfNtYexMKiKHrjlTwADYk8D7ah6A99Z4c+USFuyUbcaXZl31A2cRSfRg4AffhK+1A/GSQkQIzIEOQrZN8RLKCVoqVMKxj+DrraPXFKOvhts0dZXu57ZwfQmiBHO8meqUUI43TUK8cTJiVL2xhkLECMtIXYUZPxyubUCkphmh6jZ6O6K1jUjVVyJdX87Hipf0dCMfayqRKK5GrKAa0ZIKRCvV8VaCTH0hrLppBPMU7qug59PRT4W+c1YBhhZ+DvYjm5CL9lEJqqVX6+YmMED1E+SrBOVh1k0RUgFCWDEMfSSSRiS8tk3wdfjPoux1MikzNlmSV/M/NNgjSAAPUvUFuaOpDdBZFmEXawRrtuZw3a0E5dIBTLo+gorFLmYssXHZ8iQu1uyza/oxcUEIU75hs4qvqcUxOuEqwL6c/xsAVmecILw33tSVRntnFOd0BnEuAdzMzxct6kZhpx+lBHDlFRl87kchrNvhR9j186yphM0QQT71bJ/MA/DeGqGrqZeumhx4oyWcFCJOEIHu+9F/5efgn8JqfWUhkqzqBxtL4JtRjcGZVLwtk6l6J6FfMXXri9FfW4YBQtBXWwN/bZ1ZISPS2IBocxMB3IAEIZmsL0KCHid4Y3XlhCxVLj8TrKlBoLoOgaoG+Csb4aMHKmsRqapEtKrCPL6UR6u5TyUVeWkt+qdXoW9KEQLTC5GtqADqa4HaamTKeIylBdjSUoWdn7gI/iVXIHLPXxHN+ohdjQmg4smFkXYDiOaC8CNGNZxhddyCJSWUYGaMUv1qdZDXuKkJIk19m+D5Zp0IXBMBj+dF8KovTlPQY3we470hFZwghNJMAycXQcTK4s5uF9feFkfdUj+mfp1Kd0EaF7I6f97CIOrmBDBxcRZn3QyUURmPLQCn0MHfOL8zhgvMiIk0C5AwipfEUbTQRcGVNsEcwTc3DmJbdIBnzhLHDOMzyebZPpgH4H0wMVg3mSbCxanw/JGtGFz5EwxeNhuhyWciXVOANFVvpI6Q7ahC/2yq3I6JGGqbBL/G97ZUIKghZ02NhHQrgg1trPLLWzDU2IyhhmYEa+sRqqpFiLAN1laZoWaKM6Cxv2aljNYCBNqn0afA38HvnTUV/nML4D+vkI8v7QGzXxEGLyzDztmF2NE0wSz1E2+Ygiy/P11D5U4V/w/C+rEPX4be794C69H7kUyE0EfpF5Dmd6NUuIoJGyWEosx6UQxxe8DAimlE9pI/LKyUYq9t00C3JNWdlmpXEaMJ0FD8CcLVhGRktdslgMUdKd8ot8VTId4gg9ySIJyBTbuAr/8xgtZFfagidGvmhNEwL4IWTQsm3Co7E6glVHc3L+yNvyoATuN8+gXLEpihKGxa4HNJFiVdFormOqi9LoEv/NiHO7f7eP5qC2YCeC0Q+2wegPfSpIY04tQMt1FzJ18PPfsAds79HHq0DljpaciwCm+3smrfVI1uAq27jZCcNRmhWdMRnlGKiNYFa29ApLUZ4eYWQrWZyrge3YTs9roSbK8vQ09DHQYam8wQtsH2KgzNLkXggkIEL5mM8IfHI/qxUxH/5ImI/++7kfj0fyHxtfchPvcMxOcTpPPOfElPzD0TsXnjEJg3Af3XjEf/l0/B0P++H6EPvx/BC05G/4wzsGXmdDzx0dnYtmIewvdtgBMPmP61fnqQpNGsspyCsMgtGwqeo+nE8ZyNpCoJzISap7LHaK3XrOmaayqGgvkomprRuS4hnGaKxFgIxYfbPgkfLUmV5YlbiixkeiXzJdAQd7/zORuL/qxxvbsw+ap+FFMJNy+zcFHXAC6Z/wxmL+w3M9sUXnLPtt5/5fu/DTiF9q4MzmYBcfbSMDqWqo3aRu0Sy4TErCCES65K4YLFQfzyviCGLJ0zL74Eimf7ZB6A99KkhjTsyNFEDP7XRIDA6r/gqXNqsaXwHQg3nops4zQ4HfWIdtRhR81U7Kgbj6GOqQjOIEDbixFqLUeIVXsFLlenXH9zCXa1aF2x8Xi25WQ8N+N09HygCL7/rsbQx6h6P8nPfHYqYl+dgNS1pyOz4CRYy94F56a3wfnm8XC/cxycn70Z1h+Oh/WnE/KPL+V/PB6Z35+A2C/fhujP34XEL96D1A8J8uVvR/i6t8L/1RPhu74EQ9/9MGIbbkSmexUSycdYnQ4SsOSORA55I7a4qnVqo2ZBKVyklUAkG0LIUetwjEmkHV/bJp6YNmBNTTZjm6l8FY7RogpOE75JgifF11lulyrmvWFAzD3jhHGScHZsBwmWSg89m8a1v+5H9WIfJi4kyJY4uKyzG5+a+xAuXrCDAFZMiLED4DYCuGNZCq1dQbQs1sw8B81UwHXLI6hZnkDR15NovDqOBb9P45E+mwWvSlyPwPtqHoD30gRgm5lPoffU35DzRxH41rfwWPmZ2DLtKMQ6TkKqbSoSbbUItFEB101BT90k+FqKoIUsffUEa00xBqsL0V87Df2Nk9DfcRYGzj8d/ZedhN6Pvgf9n34vwvNOQeJGqtUbT0PyllOQ+vb7Yf3gPQQtwfubt8P901vg/u14OLcTvivpq4+CvfYwOHQ9vqSvo68+DJlb3wDr1mORW30C/a2w/3Ycsr87Fvav3wn8eRKwoQN49JOwn7kK4S3zEO35Gezwg3ASW+Gke+GmI7DiGWQpBNXXpiFadiaDSMqHoNVNrehnKhFIB4FpOLOafc0wYBa6cjU7GN6YKZAZuKmUOX9FcNN8vCT3GUrZ8Kd4tzhSwjGko2Hc+UQUX/pDAoU3WBjfCbQsCuMyLTe0qN/Ad+8AzP32M4DlmjHXsCyKmkUh1M+No32hbZolmpYpUI8fpdfHUHeljf+9Afi/e12EVSgdBIXuq20egPfWmBNzrF4q4myQqi9979MY+tLV+EfpyegtOQbZmSch0jEZ/Q0l6KsrhVYvDraVEr6VhG85BqpL0F9ZQJ+KgYaJGJo5DtEPnon0Z89A5prTkO7k47dPgv3HE+DecQwBezTs24+CtZKAXXkkrNVHIrP2SKTWH4nkhqOQ2HgU4puORnr9UYTwkXBX0fX4Mm725fflVr4BWPUGAvkNyKw7HPaGw4GNb6QfB2x6J3IbT4W1YRISGwqRuKcaqcdmIfHs5Uj0dREmt8OytrP2zSq3xWwn8WeaRLNIu0miVxEgCKfXuknQ8byM8CVbyF3TxKJFKNXyIDArvoSdVcB4xyxMqVCaihkdY9qESG0FG4KrlSR2IRGN4I+P2zj/tzmcvBQ4Y55mwyXR1hkj9GKjwHY03/8AblU8imUxVC8PoHw+IXyNAgalMKsrjtalAdR29aFiPsF8NXAB/dt/ttCfUsO/miI82xd73QJYLbpmOXlTajNn5eubL3SpnGHXMjc2AaPB933JOAa/82v0t5yPXWUTMVh/CmLtExBRCELCt7ehGsmWBiRaKtHbNA27tP7bjAnov+BMDH34NIQ+fRISV50Iu+s9vHvfDVDd4vfvBW59B9UnIXgXL8udhyBHdzcfAmfTIbA2HorMxsOQ2nAEAXwEwfgG+hsJ5aMIVKrZO+h6fDlfdSyw+mgD39wdh8G641Bk1x7K3zjU/B420Ffzd287BPath8O6jfAnrNNrD0dy0wlIPTgZmacvgN19LeyBH8MaXAU78Ahy8T6SWLTKJ6WeSfvpUUmpbaajRi6SKV35hlGYw5v3TO+R919wLbQP/+SDTUph6439aPo93R7DJ6FjtHiwaQLYUl8Aj0nucJti0agjziWANTtFNSVpwgwpnXODfKOfHsGOcAbffMDC+T/JoHB+GoXXZlC9IIvGpRkovm/jAoJ4YRTtitlA0DYtiptgOlLHjYsjaFwU5H6K1ZD8J8i+lO9LJ5ymLTctS6B2RRSVLCCq5vDYFiYIZ0VhC6Ghy4e6hQE0fD2Ktq+EcO1PwnigP4bk8NBDE2TJXKvnTVPTTZxnxdpg2qiQshzlvxft+Dqz1y2AFWJFvbdmPpfJRdyoPD3iynTKfNoutUPXpAMBeHCoGzu/8nX0jy9GtLTQzGxT8O1o9TQMNpaiu53wrW9BvKkY3eeehF2XvQf9n3ov/Ne9G9Gb3onUT1nt/+ObkbudMKRyxeoj6FSg8rVHILeecJSve6G7xt8Id+0LPUdlnFtD1+NeuT5DX8PvXcvvpL/gt3QMaw6n65G+mvuuOooA53urDofL33I3vA3uPePhPNwK9+kvINf9E+RCDyKX8JmYyUnmQEWJ0/As4dKEszG0NcRimjLrEWQOH1WTV9P67vQeea5rsOf14PacycCKr6ZOMW18dU24GPEXW34bz40Hn49VzEM2O+uEpA7jSNsxPNmfxE83xfGJmwOou2IIJdelULk0h5rFNqv7VMPzI5i9LI0OgrNhQRwNi/nYmTTQq18wgIZFfjQaFUyl+iLQvlLezN9vuiGLOv6Glsev4baqxXFUL4qiaSmPcTEBfM0ONF7xFD7+7V784hEL3ck8ThWv2eKJm3KWeUYFl8CbIXA1g1RR7BJ2EkkrmS+wXsf2OgawOlVUVWZON3cINzI/m6m1ZlD5MHWNU8VwF/XuJ1M2wo8+iv6PfRrBcZORrpoK36wJ2Nl2MnzVJ2Fn8zg8M0OTLyoQu2Aq4l85GfF5JyKx7L1I/eC/kPnD22CvPB7uxmPh3kUY3knAUdlinZQnVaiB4h6Q3MPxL9y8TzC/eP+XdX2Gvvs71gw/7n7vDXxPx3MM3zuOx8dtd1CZ305VLqdStjceB/u+ibAfPR/ZZ69EZvsKZHp+h4x/K7LJLOEaYzprVWMFdiSGldRGFbLgcxN8HI6kxbQ1cFa9fiTd1alFSJtrMgxgXQip3/xEaH1orJm0nvSvCgq+EoT4JKfz0TA2FkmxrIX7tmax9PdhXDi/HyXXRFCwwKbatMzime0E3iyNv6UaVYxggbaBwK1dSPAuGkSzArgv2b8AblqaRsvyLBqWplDbRQDzdSWPq4oKXcGBWnkMDdfvRN1VT+DC5d1YssrFP3w6f50zcxXP2eK1y6RtE1fZqGJeWzXVpFhTSrI2mdVKJvz3erbXLYCZJfKuB2UQQkABV1yB1wSMzUey1ejWvOdB4PZGkf39nxG75CKEp52CUM3J6G0/HTtaT0dv0xnouXAcdn3iTPg+fTLSc98H/JD+y/cCv30X3L9Q+a48Dta6Y5DZdBQym49EdtORsDccBWft0XBXC3Sjw/dAurP2WGTXvxnW+qNNZ5675hAeKwHMR5sFh72B2ze/G9m7xyN9zzRkHmyB89TVQPdvAP/dQIzVb9XP+T9fzknBapFHjZmN8z3C1FJ1VIP75Pm0VyOGlhtS0HSXOVrNQIZq+qLdPrZMUY+dnM5PEOb58hCtLIv7DM/FEYDVkQtsjwB/fjiDK34aRN38ACZdE0X5ghRal9uYscJG65KMWfGisVND1rJUvHGjgFs6A2hbShVqmiD2J4BTaFnK3+ikAtcIjaVUwzyWagK4XhHZugji+UOovXobWub04Es/T+PuLc9fD62XmE2znpkUgJXBuJGutQzSfK1JhaZ28Dq31y+AdfENePmgajDvDNvNmMwjAOSruUm6HuXcWcX6Q0/CnTcPidZy+Ir+C7tq32eC73TProD/knIkvjYd1rdOhvObY5H7C9Xl7W8GVr6Z1fhjYFFNpjccjsSmQxHfLD8cqU1vQGbDsQTb8bDXUBkTxGoWGA2EB8qz644yHX/JDW8ghKnSpdbX5j1HCOcI45zU+9rDCebD4aw7Es49JyD3SAnwj68DWzYDPhInJRWkpefjxFSY6cxtrJIjHUUuEx8GlwKr59M+v9IxX3O7WSuO6knXim8Og3jsmZvL8FijZsTMCIAzpE0mmYGr8bIaxsaD1wi+pwMufnZXCpd+K4Tp1/pRNi+C1hssdNyco+LNUvGmCdosWpdZpgOuYWGQYA6hbXncAFIxgUeD5yvhGgVh4gMv1Ay9lFnOXsdSuzCBeqryFqrzlkVR1Fzbi5KvdeOi5WHc+pAKS5MMcDRjVIufKoaGqQaY0zatMeoqyFDMqEapmuXr2V63ABZ4HeYHO034soqk+f52TivqarlHQSC/7Ir+qktFz+Hsgv2XnyB+4cUIFBWju2oats2ajv6PlCD+uSKk50xA7vunELjvBO4jvO6lSlx/OBXv4VSQhyK5/hBENxyC8LDH6Mn1RyCz/liqzLdSWZ5AAB9FJ8jWHjFmPMNjjG88DImNh8LacCiwXk0maq8ebrdexW0reSvJ76DfTiCvokomqJ27x8F+5IOwn/sWbK2KHIzAjjNjaqqyywvgSAErpiyVodoHmdL5f1KQCnuk1S54XXJJWE5+mSBHIBfLhjP7WDIpeE1FtjQaZLhzTssiaYklBS7Pj9tTE0rOLOb6yKCLObdqFYwgKub5WOUn3G4CarpcVC8S9By0LrWofBNUxGGCkb5MAE7udwC3LU6ghQDWskYdBLAKArVH1y/i+50ZtCymIr4+iElf7EPjHB9+viGBJKGrNn01PwjCpC/P2eIp87xN7TJ/3dKs9KQzrHXy7dezvW4BrNFBqhHazMy21gdjBtfyjPlVxpj9eaPIdQ+p9mwwnHoAoe9fiV0V1eguLEf3RfXo+XwxYovGA999N/DrNwF/o/pb/yYk76KriWHtoUhTJSapFuP0KKEUocfpKb7OrjmcypeqdzWV8uo3EXiq8mtcL5XkGPEsgZvadAgyVO7OhiMI3yMJ36OBNepE5DlrZMWqY+hH0an6NcRtpdqzCWCN4Lj3SFgPT0P2H5+G9dwv4XT/HQiEqIglh3gxxGJlWrrS20DLpL9aUwVjFYgsGKWEVVNJMnPz2pmWojFngmsMWRYsKR6r4kVItBsznY8Ckbom1bDtIECJ/PsngU/8IorGRd2oWuBHzTIHlV1ANb1piUvVm0XbEsKwK4qGzjDqNBphH0dB7KsrAE8HVW7rwjgBnCCAqcyX22imMlc7ddPiDCFsoXpeApO+GkLFNUNY/hc/dgzGkCSBTTcK6eqywMmxlpPLsrbDQinHwsdhumQyLlWwB+DXLYAlaFUbVNuvbgpNM5Xaku5StDMz25b7mGqSyUQWosEHsfOWr+LZukJ0nz0JvjlT4P/Oe5H+LQF0O8G0hkqQVfHsHUdh8I7j4SecMqvfgOzqI5CmZwjbDOGaWXcYLEF2zWEE7+HIrSS0+Bms1FjdI0aF4IF0myreoQJ2N74BufUCrzrkTiBs38Jjfhsf38rXbyFwj8931q1jemwkpDerg5FqmO7eeQTs+94G66HpsB//H7hbfo+cry/fLyUIM43VT6U2Qo0tVtrrGmSHIayoDLpGZgl6ssvU5PW5MWca3pgggBNI2Fmq3PyAOcNgwUYnZ2kGi05c69ll8XgYuPnOOC6+eTsq5nSjlIqzrCuH6qXDAO5Mo4OKt21p3EyMqNSy8lpmaOn+aQOWsm7hd3cszZiVkw2Al2QwkwBuW5olePm7VMCNXTZqF2VRcG0G5ddH8aUf7cS6x7oxlGFNhWenkK2WHec11TA8ei4Kx4kSvjEmAwuqkYLpdWyvXwAzcxtpYuqx6vQRgNXkMKzCBAPVGHUncTdNME0EnkL/z+ag++OT4b/2LYj97nhECd60RgMQvvaaY+De9iZYtx2DAJ8H1h6LzO3HwrqDvvIYOKv5vtTuWsJ2DaGr4WerWIW/g34bq/W3E8bcZoabDQ8PGxMuxbuB4N1AsK47jpB9M8/jeJ6P2q3fDHstz3n9schuOgbZO4+GfffRcO/mfncR0puo7DdQHa/Ltx27G6iI73kXMo82IbtjPhz/fcjFmNACKtNdl0O1E6W9roFRwrwAWnBTEDY7SjbpughoY850EmoHTiPFE9GsOI3X0F1mjlf1c6lg9TXkNAwyjgjPZ932FL7yy11oXLgDRfNCKFnsoHoJAdzlQkvHzxSAlydRsTCM0vkh1O1nADfzu7V2XLPU7qI42qiGZy7LYga9tUsA5n5Uw/VdVOuLc6hamMXFy57FjX99Cg/7UmrdN1fMogJWkH6YAZxhXrowgUwQmxLUI/DrF8DKDOohMXP8822/+bZH5g++Z8ArGkuS5XgD2VtgDf0Vsdv/B5GbT0XqV0cgS4WX3nQ40lSyyTuORvL2t8H+69vgUs2m7z4UCb6fIowztxJQt7/JTB3OraZCXMNquyZDrCaEDYCpnG9T2ykhRQD/W0PK9qevI0A3EKTr6evUTKJOw6NhEcyZDW9AeuOhSN15CNL30h+kP3Ao0ptZ6Kx/G3Ib3sHPvhNYe3z+XFVYEcKp+w5B4h+nI73ls7B3/Q0IPcc07mHCK9oaIcW0N4qYl8hcExaAthn7SwjrDRFtLAJYvUoateHwiHNq1FJ34rAKHrnn1BTBkkbhLR0NxeM+2yM2vr8piA9+uw/lC/wonp9FFcHW3OmgwwxLS6BtRQplnQkUL4zvVwDnXd+dyY9BXqwp0gkzOaRjaco0h6hTsFETNpY6aFgB1BLEjXO342PffBrfuzuOBwOKlSxpo0vl5K+bCVKka6ioenRNxFB6vY7NAzBVikPAZuXM9SZfm/fopru2m3fR/ciFfojMcx9GfO14JP/8Vtir3oTc3cfDpcLLsModX3MsEqx+27dR4d5+GKzNhMwmQviONxDCb0TmjiP5GQ01E3gJNCrhvAqm6l1F8K5kVd20mxLAo0HwQLqaFATfDSxA1h8NZ/0bTbOEOuSymw9FhvDN3HUIsgSw/UD+Mb72cMSl/le9g59/Dz/7Vn6H2o/znXOZ9YcgeedxSN0/DulHa2Hv+DwQ/S3T+mGmuabu8iLo/zCAtQB9VlVYLYPj8rro+ozFvKt7h7JdTVsCcJxHHud9pXE1wpCBsE6Ijw7P0VaTBPdLsNC5a4eFq/8coar0o2BOHOXzbbR22phFtTlrSRwtK9IoW2ahVMqTgMwPRRsNnv+ZN9HrqXirO9Oo6cqY5w0mXnGUxxOlGo5QBUfRonbp5Vk03+CgbomF8usDqJ/Xi8t/EMQtGzPYzKzTR6ErCNvmgkn1SvAwXVJJxJIsnl7njcCvcwDrUdMjE8gYAKvXfdiUubNxZCJ3Itx/MwJPXYrEpvdCzQ2ZzW+EQ4WH9Xk1m6YajG46CsnNamZgdf22I+GsO5rV8TdSCVIRbiSUCCvTlrpeVfo35p1wc9YeQTV5OLJrCe01Gv0wtoagGV9/FLCRBcvGI+FuVHswz4XnJLfkPDdr3Rtgr9MIjmNgs4BJr2TBw8InvfIYntubkeXns3ceBpuwdjS9mt9j8fssPmY3HYLYQ6fAv/WTiAz8AFb0EeZTVT/yl0HXxKw/wmvk5qSARa/hN8ea6b4iZ5y0g7SVRpT3VoTqTxDWCGfN+FMTS374I10FTSbED4TQnXBx02YHTcsimHJNCKVzqDgJ4HMJ25lLYmhYnkL5jTlU3JBDA9VvE1XwaAD9T10ArulMomRRChVLCftlGdQRvnXzh9C4wGeW1e9YEkbHsrhR5U08rhoWEiXzMyi4TiMjQrj0hgF0/XkA654IwJcQgmW6YEwDqt5khoUO/XXO34MJwP8iN+av+T8bpZUZ4J9T1TbF7JEypbTpGDCZKAQ7uBHh7Z3Y+fcLsGvDRCT/QhBpAsJ9R8C5i9XpVYeZeArp1RrT+wZk7zqWYCWU76BaXPtW5O5idf2+Q7k//e5D4RJA7iZ+ltV240ZJvhFZQjlNz9Adgnn3zLQx4uBxQR1wm1hAaCSEAbAKFLriSKjj8HYq41uPh/N/b4P7l7dRzR9nChONAkmtOwxJQjq1+TAq5cPg3HMYwPTAnfQNvAXXHILI2uOw4+5i9Dz2YSR23YJc9EFSN2Guha5JfkBgflywZpXlVI3fp16cf3UjvMKme4eAddI20tkU4gRwjMed2APArHkbAJt9uSGXHOQJ9iPmWPi/pxx85IcRFH49gOlXR1nVz2A2YTuDQGwgiKtuslF9s40GTRXenwBeTAAvTBLAFn8rawBcO9+HhvkDaF08BMUInkEAty/XMWiKcgzlizMonm+h6OsRVF2xDRcv/Afm/eJZrH40iIGEagT5U5bbTABbHaqmSjBs5hLxT76tZrermcK0VLwKl+/VtoMCwLw8urXpGl25xzUcvo7q2NEsqt0zqfhg55gpcgFmDj+zhyYG8PO63mqsiydgD/wRiac+gMC9E+Bb/Q5EBJdbNTWX1Wgq4NxGjXpQm6ZGLVDFbqCipcqD2ks1PGvtmwgtPieY5blNwxDjfjlCN+9UlHRnD8+pw2vM+TCE6bn1R9D1SDdxI+iawryaClnBfu5QAaSaAc+d5+iuY9oo2ho/Z6vQMSDnd7EggtKQtQKNJ87ecQyit78DofXvQeKhabC3fBI53xpeC8pJAYvXxgRx4dVK5yLDalgNxfnraXzkmu+5ja67I98AoAusjfvRho9DBYSm3qpXQQ1bGsdhfl3HM3KMMm6wLVbFLS19b6E/HsGPNxNyc4Zw5pepgpdEjdptW+Cgeb6NuqUJ1N5INaxZai8C5yvpDVS0dWr/VTuvmjsUDEhxIBZFoMhtChTUpskadMUPblysYEFB1C8aQvU8P8qvHUDlNbvQvnAXPvXjAH54j41H/ECUp0yZw/Mdgp3pZzppQDc3Kj10OTOskWY1XE2ddn4+BmFlWftJ8yoqb46k20FiBw2AdXu7/KdrqRvcwFQXy4CXeLUzdGYFm3txWyoXRQg9CCO/1pkElWmsig7B9d2K9DOXIXrPOxGhuk397RDkbhVwBSKq4LWjQYq+ezv3M0p2eNuIv3j/g8lZeAi4u320feSjpYk+qzHEf3sjrNtYoyCU0w+eDOvZT8LpXwWEA/lYNrxG0pEJsyToECwtD2QuuKjGC27q9dxJF1Mv5Xpr9/1hEEgfO6ajkTLUiA8zQoLn9tD2Pnz0hhDGfTWMyZ0hVAh083Non+uiuSuG+hVBAng/x4LQGGCCVb5nmEqzZL3x57e3UKVrvxmdQ5jZ1Yf2JQGCO4WyBSkUXB9B2dwAPvidIG7eHMP9/RkMpViQEsButoeXLGSCNzkZ1mo0MSPNwirF+kLax7zay+vH68yahBYaUWhlk68PIjtomiBUG5Wb7KU/5omoqkb/pBkKo8HxilmbYbUvwdcKHK4lZ8z0SWXw0CDcgV8hs/0iJB49FYk7347U6nfClrJbzaTS7K91BMWLoeL5f+6KvnbHYXDueAsya/8LibvfjtjfT0HyuUthd/8eCA6ZAlJAzfB6JqiM0vynIjdf+1EFXxcxzX2ypnlJkdbE45HbwdwSY8x0TGakh+5B1dB4bk8NRnH1b1KomJ/AlPkRVu3jaF1ko2Ohi1Y1PVABN0oBE3KjwfOV8BEAvxC0o7sUsPadzULh3GVxzKRib17qonZJDhWL0iiZ40f9vJ34yC3bcMPfBrDp6Qx8cYKWBahLpZtJBpGJxwlkJgL/a/XpdDSKTCLEayk1zGvJtLElnvap2Wns28GhgHUDU0GYmY7m+ihTqtKnDKqBQBrlEGHVNYqUm0TKYdY1M9+YWXXja4QMM7jb80tknp2N2CNvQ+xuqrANJ8Be+x5Wt49HTm2Vqi57AN4v7qot2QT6eQfT/ETEN7wJgTsPReCBdyD+5AVwev5EJRwxHVyqwVi5DJ9q1qLa8NV5qvgR+XG1mjWnJibFj3CohgVhFbJ7NjeOJTPaXGDRvcjn3Qkb37/Xwfnf1CQHjYaImHG4Mzqpgle4aLkxQwATlPsZwKPBdjRv7lTciBTOWWbj/GUuZna6aOKxNiwF6gjiioUxlHx9J6queBwf7HwWy/4cwoZncxiUqmUetDNBpBJhOGZECJMgS9kUs2HH+dpUTVWDoQrOhcx1PZjs4AAwr5HFjKnB+6b5wdzS+QypgUAWM2SWlJVykmpKa6A8/+k/Erzrfbvg7vwZsk/NRuqh45HYdAhSmlihiRPrjgc2HU0nfNUOaoAx3MTg+SvmLtPW2fhG5DZpqNvxyKw5GpFVhyDAgi/8wNuRfuYSFpB/YS3Fn6+t8NplXRsZqt18B51grI5UdXfFjCt+hIL/GACrcDaAG3umpjPXNJ3kX0f4uKEP+MJvXJRfnULlnCDalsVYtXfQthxoWWETwOkxB+CzeXzndQLtCx3ULbBQ0+mgdnmObrMQCaH4ym2ovXILLlvuw7w/ZrD6KZapplaTRibLwtNhLcbMSaeAyldmzHXWmGrLpUpGN5NIbcMHjx18ADbwzQdbz8NX0z2FW40+HHGWqLrZFZJqYCvsLd9A6rEmpB44HlkNk9JwsNuPYpWYymzNEWbolTqO8h1ofPT8FXd301Fw7zoWubtZwKmjjgC2mP6p1YcgzmsSe/gdSD11IZzuPxDCAVNrMdOWWeXJd69pyrKufIb5VqNvo7zOGvSvhkMRmNdbPgbNHL1Kh+E2NA3A28pzW7Yqh+avp1B9nR8tyxQDOG0mPjQuJYD3Y/uvXCMhRl8t45/dwJo+Y7GFWYRv64IsaucnULkogeqlGdTd7KL+JgtViyMov3YItdeGMLszg3m/Bx7YAkQz+QVvTb51WGhmWTPV2k/Kz0wMhfLMWH5e614mj7rxDh47KACsm9ZRYA+NqeRV08w2NTsIviawDncw9zbfNp0ycuZLDA3C3vYdJB6pRWTzMUiZSQKH5kcxrKTfQTCsYtV4/aFwNxPKG/YYAeD5K+quxlbffTRydx1F+UcIr82PJtFqHFkNU9soJfw2KuGLkeu/1UgnBRYzbbzD11VtqWluSJnmCRXAMV55tS9JRvFN3R5j0nRgBPDIvcl/Ib7+5d02Ll6QQsOcAKvzBFdXFLWLM6gn6DQLzTRDvAicr5TvE4CH921ZkDBrx3VQDStoe1VnGBVLwqi5KYmGb9movZFKeFEKhdemUPR1qeUMVvw6hAe3pBDW9eM5q6kwRdhm0jEzlE8jH+ysjayl5iWpX8nig8cOGgBr5pGRRISuolGpKpqvnA53xOgtuZSv5hqHB5Db/ktk/jEDkXuORZiZPHs7k0NLBGnml+I1rKL6XTkcHEfBaDwA7zdXoB97E2scG45j+svV1k7XQqK3H4o4r01oE9Xw398L+9lPIte7AUjEdrNL11Z9AFkqphQvuHRwXgHHefFZtdV4W90jY9J0XGqI4GmYQ8wf/9q/p/C5byRZpQ8SZkMoXxxEJSFXt1DND2MHwIqcpo64pgVRtC2MYOZygnhFDPVLA6js8qFyRRC1NycJ4qyZ2FGyyEHxAqD6mgQ+cO0u3PQnPx4ccDHEBEjwesWdQSRSPmSS6phz84NbHD7uHjx98NjBA2AqHBMpi4on3+mWQoYZUaw1GZQlad55ERP9QPdP4T42A9n73o3kpsORVIwCBcXRcCjB1yzHw9erCYc1mrFGUJj2ynynkeevrDuErbVWcZE1ieVNdG5XrGGNjPjbIUjdeggSa/l493GwHjgLzhMfAwJreG0VU5QXWf03Ri3BrLagxTAt3gvqlHN5LzhWlp5XmWPOeEwuZbxRgFLqfNR9/I9tcSz5TRznUUWWzPOjaEEAFfOjqF84PAJifwKY3z9ae+/onh+W1rw4gpauENqXR9C2IoLGZQHUULnX8LH2hhg9jerlWVQtc/kIVM5Jo+Erg/jIkgHcsjaGewZd+HjumjeYtqmCMwHWbFMEMK8vL91IbedgsoMMwGrdVeebphazGurkjCoyyleDLbXyQvQZWAN/RfaJS1nlPQHOhmNgr3s7AXCcmViQB68gLNhq1MNh0Bpt7mqpYk20+Gd4eP6fu7tGwYrewsdj+JrXYA0Lvtu1KvOh9ENgsSZir+H1WvceXi9C+J6T4Oy8Ern4vaTtLl7flBkhYSBMGGd4P+QjMGjhxzTvA4sVpLELYC1amZ9uPaLyMhgIxPGrjTF88MYYpl4TwtR5VMALY/mlisYigJfEzTTqpqVhKmg+ypfSl/GYlyfRtCKDxhVZ1C+36FrwM4uGBSnUXTuAS2+gEl4bxiND+eVWNarFdsK8bsyz6kEVfHX5PACPQeMNnC8dNVwlP2VVveMZ1ucc9WgYCDN3Jp9BdvAXCD7zBUS0kKSGla2m2lrzXmDD24HNRyG3WVOEj2ZmP4p+eL5NWMpXbZLeELT95EpfRYg7frjwY7qveiOs2xXEiBBecxivAwvAde/ie+83y/Bn1x+L5GP1SPfOhxv5C3m1nSqYF5rXW9fcrEZh+gMypuqqoWum43UsmgDM2lva9FsMTy5hlTuViWP9k2H89zeSOOurcUyeF0bNkgTalmUJt/3cCbdPAM5707IkwZpAbVfMRFATmFu7smjVRI3FGbQvsdCxwkLL8hTqFVh+Off7hmXUfcWVW/GxG3vwyztj2BFxWRApERSyM8K8nTBNSFLBJm0OIjt4AMy8p2ukvlQF1cnkmP20TQDWhXP8VEtrEN/xNXQ/WAbf+jebDja18wquuY30u6jC7taCmW9Eau0RSFF1ZVepjZL7aOrsBoHCg/B+caWtnKDNrToO9sqjmfYKUnQ4aykKBPRmQE7wqp3eWnUs/HediKEnW5Dtn8/C9U5e4zBvgHyhawBM8DqmYq/aUf4+GZPGY3OcLHET5p0b5wseqBmeFcejfSF84jtpnPHFNCYRwA0rUph5o2Xi9Wq22WjwfCV8XwA8MmFD8Slq6Yqg1tRlo60rh/bFObTMtdB4naZTZzCL6nfmCi2v5EPlEh9KvxnHtK4oCq8YQNtVPbjquz6sejANP5MhPx6EKjjrp35SSFipLG0/eOwgAbBDdaMZbRkzbjtLqRPntpieq95i82oG/47ctvlIPFKK/s1vQVDTiglXrWKhQOE5dbBtPhbu5jfB2vQGpJnx01Jhq6iK13O/TYcREMPNE6MB5AC5Ykf8W664E3vpo/3uK+6bWBjexdtx3QnI3fEe0xxhrTuC10KBf46CS/Dm2+C5z+o3wL7jGPSygNx194lIbvl/QPTPBFefqQVpMEyaCipr2lXzEzFMzV4F8Rg0iQdLMzS1lhwUE4IHrFE6/LPTH8NVP41h+lVxTFEHHFVmB11rtjUqJvDeOvffJyeAR+1wG8U1BE2P9SwU6pZkTNNC8xKt7OxQ+TponJdF/fXcZ0HKrLLRsVzxIwKoXhxE+bIEipeFUbjQZ8JZzpwbxZyfZfEgKzTKx1pFw7WCsK0E+ct8rvycr9Iq5ej/isjarn21z9i1gwPAvG1dBMjhsOnpVl9LhOkf5DspjeiOPw0880PgzkbYa9+I+LpDkdoNFmXqESdc1xO43L7bd8cr0Psjn9l/Plo0spdyhbS0eez74gr6424g1PbSTTjKUY71pXy0Y31J33i4WcII697CgvE9hOzbeJxHIbvxUBPK0+E+ph1e8ZRZeNqrDkP/7Yeid+P7kHz6cgqlvzC/DfA+MCN/ocFnZhy/8qHyql6oE3aMKSgdjsWDzBDAqmpr5Q91JeePMwe/P4ub/jhEYIVQ0GmhwiwRFEKz4vNq1eLO+F55S5fWlNt7bya0R1PGe+9qIhl2wnnENbpC3miCumfRQkDXLg2g6MZ+TKe6n3q9i3M6XXxvrYPtgQxss35eivDVpBsVqLq6CdYONEVZClmlq0mq4TST6Yn6gzQ9fQxe9D3sIAGwdE6EpWOEVTleIl4Trbil2zmbCiHX/1fg0UuZuU+iujoGWa3JpgxvYCG4DANmzwAxB8hHhdNL+GsfwG/Iu4kgR/hq5Q1FkeNvutxm2uI1PltR2Na9lfv8FwGsEROHILTxRIQenglrVxcL2fsJYGVM1XoIYHqaLvYaIaR8Kx+DedEsAOIoNKNG8Gjw5PMWCtj43q1DmHUDVSLBVLaA6nRBkOASgEeH7Wg+GmRfyv9zAOvzw67OwmHXckcjqzm3dFENE8LNyxOovClBCFuYOs9C5bVRfPzmAfzl/gAiWU3RSCKVTbJmMzzJygTm10oigmte4aqJKR/7QxdY28ZwqbuHHSQAVuebWn5TvFS8WLxIpmxUBLSBx5B94kpYD5wGZ+PxzNTvgr3hSD5XdffVUbX74qND6l/7QQPglScgdzvhqkU/7+S12XQIoXwMXG3X6iGanLH5zchtfqcZuWJtfjvSj52PbM+3kItsYl5TTN08cTUcXAt6WsyVJgKaqKwbQj4G86KYoaq1lurRtKEXADjs4IerwzjnlhiKOh2UE8DNC8OvAQC/nKsNO4qmrhDaVqTRcgNQvdRCOc+t/Npu1F/5LK79+SAe7HYQSKcJYAKXAM6ZNebiBHCK6SXI5i+oRjtZWV5ttZ/vBrA6YMfoRR+2gwTAEjlai9ZCGHEiOMILxQsQCcB+5nuI31OG8MYjkdj4Bjibjs/Ho12v0Q3/DI4D7aND6l/7vwvgfXHFLB7tWF/KRzvWl3Jn1Ztg334CXK0oosBHcn2XVl/WistSxHcfDvuBY5G9/0RYj7TB6f4mpe4/mPMCFDq83hI8VLmaIecQxgq2LwWkjGqCeufF0pizPB54cDxeBSpXOTJikZiDX94Zx0XfTaK4y0bZfAE4MtwEMTpsR/PRIPtSvn8BrBjDGdR2hlCzuBfty6I4ewXQQjVcu2gQFfO2ovTqnTh/aRg3rnTwaB91r9qDmaddm4WUo9ERRmKZNFL5aqvpkVUJBV/KB3nnvrkMFbGuvwfg/WpKXpV3MV6QMHNgWg0Q6jXdeT/cBz6E+Jo3YWilZlIdhuw9VFsbDmM19nBmamb+Meb5FZGP2GtXMHjTWbUPbq9nQbSB0NtLd+mjHetL+b6eh00VnNG04zuOgnMHFa9ArM5PKd91VLwbDkfynkOQevStrNHMhrP1u1S+z/Dik7a6AZQfBeAUX+rRTLpQRBfNjFQ1VmNL87uOTSM0XIsA1mQMHqc50BxiSRt/eiiFD/00TQBbKJuXRMtCrc8WQxPBurfebKC6966Ou9Hh+Up4HsB1VL81nb1o64rhvC7g7MUulf0garp2onJJGKVzE7johih+fb+NkLmmhKklAAuqguzzV1MdrWp+yK+eoc66LBw37QH41bCR/KdWIQ3iNrFVg88Cjy8kbMchc/shCK86FKE7DzOZ2Izt1erDw9Ngx5JrBQkz9XkvXevJWev2zbU6xe5lkfbCXfpox/pSvq/nYbFGklpPwK58I6y/HYfcrcfBTIbZfAhyWvTz7kMQf+gEpJ5qg73j+8gN7YBDUqngNbDSNZfgVcOvOgFMZCatR6yJOQpYuWeFdQyaVBsVnnr6nwewg2QmizueyuLy32RR1JlG2Zw0WhdSBS8eHbT/ykeD7Ev5/gVw3puW8bhWRHg+ccyaa+HCRTnMUryLZT5U3pzAJKr90muDuOoXcTz0HAunFK8pCylFjlPyGP+nCzoMYILXKGAz/GXMXvWDBcAadG9WC0OGaa2VzbH1j8C9VcBKwuAOxfZ9A2J3HY6EFoRcQwBr9eFRwHGg/dUC8L64Qx/tWF/K9xnALBTTBHBm9WGwtagpIeyuPBLuJl6vBw6B9dibkX26FY7g69uJXIK6lqCSxjWVUeUxDXlQUG/FlXWG5TBrRGoJVsecXLuNSRNJWH02VWmJd3OgWaStFDZut/HpP2VRuCiJsusyaF+YhUZANHXuvQoeDbIv5fsbwA38/tYbsph5s4Xm+WE0Xx3ABQssnLvUpgKOYdqSECawkCmam8Z5fP97/xeGL6grPXwF+SDFm1e9wxuM86aga/JNvsjV67FrBwmApXEUYJ3JzT+5gW3IPfJlOOuOR+42nuJahTl8E9J3vQnJdUfDUYyB13kThM3f2Vt36KMd60v5PjdBsEC01uZ/S7E3LCrh1MpDkSSAM48cD2drC3L93wUCO6G5ChI2Qquuej6UITOn2nxNiDTC17RDSAXz3qBiSmuolzOGK6MGwEQGT0OdiHmopCnm47inz8bn/5pGwYIISq/JoGOhg5ZOjaV9DQN4SRItyyx0LLPROG8Qjdd04+wFaczuAqoXZTBl0SCmLQ2jYpGD8i/48b/L+rH+yQziquXImD5m5qtmOEoR8zrnq0GOga9GQ71gwc8xagcJgPPD0EzHW8wPbP8O7HvKkLmDgLqDp7jpTcDdb4G96e3Irj4e7ioB+LAXdBqNFR+tg+ql/N/phNtX1xL6ox3rS/lox/pS7iro0eqj+PzNyG14EzKbDkN086GI3HcC0k+0we0jfGPbTPOC4KvObk06zxLDGjurAPz50JNqBFa7sIDMzMgd1TueSlnIZJUp8/fM2DKCQp1MOi+Jdz7mS4oEVXsYDwxl8YW/JTFtjh8lX09jxiIXrcMAHq3DbTQfraPtpXy/j4LQsLRFBPH1MTTM7UPLoj60LU6jeRFQt9hBBRVw1fIgahbEUPIlH9qvG8DCvyTxj16RV2lD01NC2GaJlW8XlkImfFkIZ7XOnEnIsW0HBYB1Jcx6YMkg0L0SucdnIrv5WKQIX40Xzd15NCH8dmbutxG+UsCHElwj44DHlo8Gp5fygwXAudVHAFS9WP1W5Da+Fdn7jkHy7+9E8qkOONt/SOW7i4JQ6ibf1KuutXyYfU1b0BYF3tFWDb5X9TNfNXUtvkoR1IkU7IzAPJJ7x4rxODUG2OI5aOQGGSIdISZrDWELQ3gklMaXbotjMiFUclUSsxbnAawmiNFgO5qPBtmX8v0KYDMmOI2G+THUXzWElnk+tK0IQ6s/1xC+DUuAjpsstC31o37OLtRe14fy68M4+6Yk/nivBSv1vLLNUf1mswSule9wU+ebbbPmkEnBsjS2eqxd7xfaQQLgvLnhv8N56hNw734b7A2HIE1PUkmlN0phHcsMfjQz+qEGyjar4qOB44A7YfRi3w0pVs2Nm9eaFq1qvpoJ9gTmPzch5H2PffQZVfv5aPG7jHP78z78Gb6vGWj6vb0LRDQyqUVK9vnjzPG38o8j217k/E2s5PX4G2slt3O/DUfBeehE2M+dA6f3R4C/O9/sQDipHTdO2Ma14oU62jRmS0FAKIvzSFYYyvyIB4ojMzPSTWfhpOL8vNTx2AOwS7XmpnlsPDmd4/MA1hpofXg0ksAXb49iwjW9KLsqjnMJ4LbdAN7T94Du4ry3yIcB3LyEcGXVX0vJt+h51/B75v0Rf3UALNi2Lopj9rwgZuv3Cdzamy1ULs+ivsvGrE4H5y70YdbCp9GxYhumLIxg0pwMlv8piEgva7ka6E1TM0MewCx8WfMxvUEEse4No4A9AP+bpoTbnXbSMyON6sMbTcLmS0K9iwyrHAM/RfbvEwgUTV2l+lXP+V1vQIIZ3LmDGfwOLfp4KLLrDiVgxhCAh2fgaeqzgPpCF6QIJQIx73loudzfXUNQ8fF5uPK5Xq896kW+5z5v5PkfaTwPW4F42NcQusa5nb+R5e9lTLtx/ndHm7jy/LTtPEhHXG3A5jl/P7eWBZ/Zh9t0LiPgHTk3/mbuDsL+tsNhKc7D3e9E7omZgOAbIXxTvL5krUa3JHndY/yXyvlNrFhVfIwA5nsCriqhemkYZm4R/jENq0k+pwIeuX/GiEmh2QSwRQDnFMSCBUZOJ2oKlSBsdxCPhpP40u1hnPX1HhR/ndBaQgAbSMaGgUmgDk9L3t3uS5jKG+UGsFq3jfvyuYGznmsbgZgHctJAV+2/LUv4Pl+PCs9XwDUTrp4+gyD+wPIkzl2WReMKB3XfsFFzUxp1mm59bQLnzvXhwuVbMfuWLZjSGcCZBPBnvt2Pe+/ZhmhIc13V9sv0M6FGR5ogRlwzA/KjJcayjUkA51cvYBbSzcgUdKhushhksvYxQZmRVPjxfUWLUjLbTgw5/wbknvkssveejiSrs1pLzNpMv5Mqb/0xcFe9CbmVxxBYzOAbDoW74VVoglhPYK0n6Ndr4kceYIotYYC05miqcvmRcFYRpqtYSBA+GRYOSQ3HYiGSWXMYsmsOh6OYxBupDjfLqSapEO01xyGjgDU8L3fd4YTb4QSyvu84fs8J/M630t/C15rcwH0MCPldPJbURi08egKyGwnwDQr1qFln9FX8npWE56pjkFl7DGIbj0SIvxlXQJz1h/E4dCxSxTxmfp88D3wBnPBce1jeua+18RC4/DzWv53+DtOu6zDNzfJORhErpgPVspoeWDCmVx6OII8r8sBEZJ/+EHJ9P8y3+Yqm5JKJl0uFY9ZBVnxfl8CSwhFpdT/wPlFmU5Gsl3rcnfnUGaOGY/PO2DIdoyYZZHjPu5K+Lu9vO8TzDvJwwzzXFB4L2bjir2FMJIDHzUmg5kYXjcviaF0aR9tyC+1LHbR2WSZOcAPh2kCANqxIoG5FkooygQoBdXESM+cTbHNCqLs+gAatXrHEwowbXLTf4KB5Gav+/I4GxWhYFkXz8hiatPS9YjnsAc9XygXhVgJ49jKBOD8uuGk5f4tAbuQ5NM2LoWNhGDOXDKFtmQ/VnSEUz0uimgXQVT8dwmMDPqZdzFxSNUM4cl7nnEa/uIQz7xGLb+r22X0fjEEbmwAWXLNMOioC5R2LN2YGO5mYW5iY0WGZo/adiMlStjUIt/tm4OGZBO4kxNYci5gArMhZGzWY/zhm9rcTLG8hKAiOjYfmgTYaNF9JF3gF+g2CsBS31B8BTPCow8lZJacqXUmoKe7tKhYcfD/Oz8YJ3uSqw8ywLANgBaq5m34X4aXlewjv1G2E8B36LZ6nnPBToBrFVcitfjNd56211Qh/vWdiKhxCyGv9uzcRqtxXs9zW5xWqwOiskRI+kgA+CokNRyIyPIMwy88pPc1QNh6jRYDKs9xXhURWBQZrHWm6ChGLn3M38Rg2vo3X4K38HRYCZnSEos8dyuPhcSn+70oWDHccgiQLg8CjBYhuuRxW/8+Qi23hdebVHWamxTtAIwK0LHl+Acv89te6CQ4aryHPj2rm/e0Mksr93BCHmjsfHgCu+PUgJnzxSbz7q/2YsDiDkkVpVHWmUbuU0NQinV1UkSYMZNaMLmi90UbTTVnU3pRA1fIwARxGx1w+Xj+E+jmDBHCICjhNuNloXeYStjkC2DVNA00rCOAbovsVwHJFXRsZdTHSHCKVbppQpOD5vHExnYq4tTPGY47hjM+zsFmawZ+f7kfCGmJa5e8FsygK3bVZJbKiBHESad4nqiCN5VtlTALYJKoZy5kPJWjx0VKVE7wT1RiolNYgUDW6c4ub3orc9jnIPVCJ7J2nIkEwJIYBrCFR0NLyArCUodQbAey+KgDmb2+Q+t0TwPmqt8tqtxSvQwXoCLJaEmkVQbfq7UivfifSVLaZ1YcThgQWwQiqXmw+Ftik76VS5f5awy676hCqSp7nhmHnuWETf3cTAWeW0+dvUo3qPZfuCMIr+Z230c0STMcRiu9AdsNbkOJ3J1lrSFPxSsXq+Nw73sxHwVrblKZqQ1fbsSAs+GrRzCMIYKp1fneGbmL48jtz699p1nrLqRBSIcDfAgserTKisJ65NVTpa95svjf78OnIbP8MnIEfsuZ9L5CkCszXJM09kHHTSDtR3gtxFsoE1ViWNftgRgHzj+aPaLyyJo/ADfO8ef7EcoJp8HA3cP1velH51Qcw8cvPoGBeHIWLHLqNogUJlFLNVtHrFynAjYWOJQ5VpYMOquM2KuGWFVpReYgwG6JC9qGxczD/fCGV8MIoXaqTCrqLIFewd61esYzgGwWar6SPAHik3Xl3+7MAPOxGDZt2bAJ4YQyTrmSBQKV/08ogtg/6mUZUu+RFhulkSwFbTL8MGWFnyYyxHgttrAJYsteUbDk+MBFth4krjcDE5U2ZozLSSCN1wDisctiRTcg99XG4d5+JzOZ3IkXwSYmZERCEBNYonsDbmeGPN22TjoHRqzEKgtCRCjbtzXkQ5/jcOIHlaqUHAtZl9V9ugLfqvfRTqEYJJ8UoVtAgAsp0xq3RqhFyfrc+I7XJc0lsOhaJzccjc9fbYN3zTjj3nQjn/lPoJ8O+773I3v0OpO98C+Kbj6Oq1dI/bwZu5ffcdhRsenLVMYisOwqRzYchcTdheNfhBCePeTWPX/utPJoAZgHB3zIgVruwgbDaigVhFhxSwYSzIJzle+7ad/OY/4vnqmOnU83jDileqmFFOeNnMyxUUncej/R974L97CVA8P+Yn6h8E8xYaUJ2uDHXhMclgLNuhEonxtuDuW0s56p9MDWxKYyF1rFTe6bphRueQq0SKM1ssD0I/ObuMK7+6U584cc+fPKXGZzzAwuNN1EFE7ylXw+i7Iogqq4OoO56PxrmEbLzCNgFEbPkT4OGe92QQP0tYVQvV3W+FzULe1C/oA9NC/xoWRhBC1Vm06IkGqiqG5ZQTVNl7k/1KxeAXwzfFwO4SVOuFfeC3rAohqJ5LGxYAH3+WylseDTEVAoi61hIUpDZLtMsG2PSSQWzOGNyMvnGtI1NABslwNQTgAnfrJWBLSBzu8q0nJ3Jj7OnW8kBpHu/h+xDdaz2nkAAH4PMRsJAao1wUzU/t2oEwFR7hKABsJYjGhWar6QTYLt9BMCHmSq4XG2vL3S15bLKvv5ddIVlpII1wciPgM391dbqcntu00nAXdOAe2tgPTQbscc+jPgTlyP91KeQffaLcLZcAWfr1fSrYG/5GjLPfB6pp/4HsSf+H+KPfQj2/ecBdzbwuycRoG9HjAo8TEUd4zFkWTBpdRBsUHhIqlWtDM2C4oUAVjPECIRHVDAhTOWrpggB2F7Lwo41jtxKpoOGlxnXSJS38Jq8yUw7jt7L3/z7yUg/eT6c3p8x4/QZ4BrwmgKWV5yX3VQv1e6bI3xzVDymrZTvHwQQ1m1uujvEXXNOuvd1r+fvd/2N8c8Wv4t7nnNwF8un258Bvne/gyVrspjzpxS+/JMEPvmNGC5ZEsSMuf2ovqobRV/rRcHViqdgo3oJUP9toPZ7WZTdEEHJwkFUziN8+TijM4BZS0Lo6AzxdZhQjqFucda0B48lAMsb6eVLwii+PoFzvu7gB7fF0JMOIOZmkLIUTznK+4YATqj5Mt9/NNZvkTEKYCVbPvVsJmyGiWqbMX26LW0mNJWwmiFU2xh6FLGnvozY5lOoelkN3khYbCJ8CQtV4a07jqHiIwhWv5UQPJbVYqo7Zn6XVezRptC+ok7wqvPLJYzNzDB1lKkTyvz+Hs0GI67mA7X1bh5utljL6v+adyC9/m1ISik+8E7Yj02G++RFwJML6X+Eu+NeZAOPsRbwJNzoc3DjmqbbR+8f9l5u28H3noUVeZr7PgS3h0pz6w3A05+H8/c2ZO45A+kNb4W1mumzkop3FeEvtS3VTfCriWMEvuqM01p6u6c2v0AJD4OYntHMNipn9zYWfre9neqX37nqSBaGAvVhiN11CMKPvYOC9zzY3T9BLqiFNXlNRRwBeBi+mnChKLCabKF4d4bMapPI8+mgMPHW9BGKvXSdHk/bnJ5OU28pvEWSaZKihynw+iIudoUdbAu5eKzfxZqnXXx/nYUrfpbGhZ1J1F6TRNF1Fsq6cqj+BlBFAJd9w0Xpcgvli/k+q/Nti6OY3RXB2QT3zK4htCymeiaE6xalUd9JFfwqAHikDXhP33MGn6BrnOq3sTOGmhVRFM9JoeqLLq7+cRb39MTgd1KsIRMGOQJYw/mSTDX1H4wk5Bi2MQlgDSszQ0iU+SxWPdNhM4jeNA0rM0oFacpQPIPkzlsRvG8WQquPQ3KlFByr8gSwRjqkVx+BtAKwrzyeACYI1h9DMB5mgOK8CgDWBAZn7dH5dmdW2wV9A18eoxxqXpDzWKE2aeN8reOjGlV7apwKOHbvyUg+1gxr6xfh9n8PCKxidf1puh8uS3tlTjFrmFu7n4+2TT3u2Uw/nMRjQHQDMPAL5LbMRe7vl1FVV7DAOJngVOfeYcisOgTpNUxTqe8NTDfjiiWxh6s5goWLgfCaI+lHEcBHIsXPZlcyjW9TU8e7KdveRbgfxc8cgtQ9PK9H347k1vNh9f2c8O3Oty4NQ0gCV9daTQ8CkEb2KtKHqfJop5G65RjPXHtlOgedty6Szl3nrHPndmkMS81vmqRhQmsO7+iG+LqHzwfpShOqZL61Jchb6TngR/cB19wKXPJDF9VdmsARwFnXRTB1IeHbBTQuy6F9iYsZi210LIijY+EQOhYPoG2Jjwo0bBbUrB9ZeXkUcL5Svm8AjhoAN9yYRBnPo+QrDj603MUv7s1gVyLKZAwzTcgFteVojLDD9DIJycQZw/fJmASwOiOkedQmlrMI3jQVcDpr2sp0Gzq66TTUJNyNxFM3wr9+KsK3HZGf+SbAGQAfZgCcvONIZFj1ddccR7AdTTASIgSbGVkwCjRfSZfyddYQwASShnDtVr9G7Y4AWKMkWD1Xc4NCP6otWNDj8+S9b0Xs0bOQeO6DyPZ+j6B6CjmW7moCzcMpxfRI8C8LImZOxf1iRZ2eD0yUdz03i3wPO6triPNzCt6ZgJsNw408h9wAob5tGZx/fBCZ+6YiueF4xFdRqd6uCGVSvzy2jTwPHpeJJaFmkWF/vk04PzoiSwhntIy8Ovv4mLvjLXDueLsBc/oeXpcn3oHs9nPhDvwSCPUb+EoBqsB1+cchYC2SSJ0qpsZjziTfJmokovYVsA4mAOvGHgbwSI++ccuGlU6SJ3FecCaUzfs+q6YaFsDZLXQ/nyeZLBp2ZfHK5tDH77yPjP7xQza+/MsgzuvsRvk1gyi6NoWa+Qr5CAIXaF8AtMzPoGVBEK2dBPDSQbQuDRJ8hJ1GH4xBADcuz6J6iY3yuVm08Vzm/97B40MRnnWE6cNENIAgddVGOTJM0QPwvpmynTKe6ZSgAshlM7wJCRZmOpX3eg82b7zBjUg9/EmEV74TiVuluPLKUSMcVD1OrT6cqpgqeLUmIhC+ii2rJgh1YK3Z/23AGm5mhpqtFlj5u+oUJIDzAcepes0QNe67gSpxw1sJ5uNM22hiE6vz90+D/eR/s3p+C5zgJuRSA6yqajRIPg1UGVdmE1wVbEbQ2u2UT7t9z+3GNXlX4yPza6cJa0luy1hxFnTbWIu7FW7vdbCfaEX6zhORuP1QpAhhe92bzPE5rEVorTYB+QVKWCAeboowQ/1WvdE0N7g8d2v1UUgS0PG7qIwfex+sHRciN/QzyjaqOB6AquASKvmmhvxctnxRovgOCjIqeazVDXgvcEeXmUxu2kwPBuN5mAJI3OD1lfq1hx81xjWX1SQN1frUu89qtk3YuHJKXneAO3XDdXbyevt4fRUbg/cGP9sTzeHxnhRueziMa34bw7lLM2gluBqudlB3NZXwXFD1umhfQQgvDxC4fYTdIJoXR6iEBcix1AYcNY/NS3j8KyxUL0uj/Fobn/i2i40787LCVROWKZg1aYt3t6eA/z3LZ0MqH8k8lWjq4aT8TRPGAoYmX+QyO+Ds+BYy91SzukwYEBJaZt6MLjCqTAA+FMk1hyJNtWubEQUakUDXUvRaEXkUaL6SnpPyXUkXiDTiYQTAptlhBL5U5hvexv3fRcCdiPg9Z1L1NsPeehXgu505yTd8U+UfBN4oU0Dr57JeQCDzDmO6mJ4clfgvdlOfH3bT28PUY+7W0xQ9xO8N8DtZgTPfbWuYX/YxYOh7cJ/6EDJ3TUZm7TvhrH07j59Kdu3xBPCxBC5Ba8CrNmGlb77QG5lZp3CfGnLmrH4z0hvUjPIGxB5/HzLbPkS1/UeeBFXcMEQFXjUyCL355gaBV8VLjM7qpeL6asgh7wfT/8aEMCPRxnDG2hfTaeTVf/61HtXp7AggBLCW1sppfKtUnSagEDC6F/KTr6NUyoPIZntgqWmJNRo4Mb7L62hySwqxeAobn3HQ+Vcbl98UR+sVEVR+KY3aOTl03AzM+C7QdHME1Yt7UTOvj4o4ivYurWysERGjw/OV8H8LwFTmTcsTqLkpgSnXpjG708KvH7DhT/AuMuosfw8ZAce0YxLlE3iM2pgEsElC1jGletW2rjnyGmCdZQrrlmLeY03sCSSe/jzSm99rhmRh9WEmw2t2labvWmsJYG5PqS3VtAurnZXQIxSx8hgCmD4KNF9JV1hFTbKwVx0OxSB+HsA6FhYAG/PKF+vezuN5CwuOiUj947NIq100fBcLmX7mP95YzJ06Z517nDdUnPRJ5pgeGhngMHNayqCspjt0KqActz/vfK1tek/7qD2RBZpm5So2TYT13QApqFGnyrbck/cs98lsgxv4M7Lb5sN6oI3n8k64K4/leZzAWgaVsOI1bFQThNqH1eSjZor8+GGN2MBqnicLOmftsUjf/WakHj+NX3kp7IE/kPpUbvmSlL+lmGYx/mU125zrsHpRcZAjhJ2E6QdwLGYqDS0SeA2pxnCu2kcTI9TcoglHLh91zbOZlJminLN53iaugSJc8D3+UwqJNUqlLNMiY1GuKJ6ElHFOY2PVNjzEL44QSjEko0n0RSzcvT2Lb94RxcdvDKDl+jiq5zuovdFF3bepKG8Jo3LJIGrnB9A2N4mOhTaau8YSgPPePN+Pxs4Aym9IYNz1URYiYaz4g4Ut23m6ChTCG0uUYMqZGsRYv03GLIAzJEQmwRsvxhRUL5MrvRc3+VaiOBW6H4HHzkVcIFOVnlVjs6quRg4QxBoBIQAryHdWQb03C3wC8NH58aiaFGBAqSFi/wzPV8I12cJWW+gwgHMCMAuEfKeb2n15HBveyWN+B6DOqo0VcLr/TDj6mfESzJBaYFRr3EXpSd5ULJQEYypBh5kul6FmzDKtqGrVuSY1bFwF2J4+vN1MeeW+ruq3UpJ0syQ6vy9rVJVakfOrzQrcth1CJrUd2ec6eS7vRe62I+CufisBTBW84WgCmOdFNW/LRyBMVzMQVtI1SUQjUh7WON8L4fb+igUL4cCLqDZcU9XmCxs9BNAgj0dNDKzd8DjzC7sxG2XVB8Cz4D2gdd7y8BWMdBcIXa9949kixRpKPJ0wUb1yThZ2Kg47w0KIcl9KzuZ11xkLvOKM2olVQTRu0o3ppU4oFmYOCy7dOxZrDRkCPM3CK8v8E8xGcN+uNL65PoP/90MLtV0WJi2IY1JXEIU3+AnjCFqXZDBjrou2OQ4BmEajmQ03OkD/U98nAJvnUbTM7UH9/H4U8bOnzveh+NrtuPKWBB6+X0ml+yHCHBOlq2iX6X4Zu8ZcMvZMAM7y5smmmPkSTNQ0y35WvdRxpL8SceneOxF8oAIxAjan2A6K97DuBKrMN5mptFmNgGC1P0NFZm08jKA4jFV8TYA4GjnC1yyDbkC5/wCs33JWHwOLhUGGhYFGNWgEhgEwq+lSx9nV74Z792zkHv4o3OfmMv+wKKcZzBCCqVyE5xxhxlM3m+Qf39F9pruL6aDBIGr6UuaUSv5XPry72Xekqmt+RN+lDWqEFBmNDtZSPlJa+c9ZgYfhPPYluPfVw7lzHGzNKLz1jWalEXUqqnah9FUzj7OZaX3nIUjyXOOK6/vQqXC3XIhc/4+pfHvMHAPTIqKCxCh7hRD08foGeAguQZI/RfOE1UlNulHGMnMvRCpz0NKAOhsd/GvfdBZpJkoik0RWzQ08WVfhFVmzUW6Q6a/OWABWP0D+utGVWObaGT3MdGGhzG2mA49v6TMqrlSjULOOP23jMZ+LHz+QxH//eBAFc/ox7roQCpbFUP8trVKRQvscF83XumhcLAWcMKtXjPhoIP13PQ/gf3YFCtrtChwkV/xjzYpbMIi6hT5UEMhTF/RhOgF89uIEfr2WKZBSKokRUSJDM+FUX9C5j10bowBm6cWbStVODSnRrLcsi/okbyIByYnwNntmFRJ3noWkpvBSWVqaDkvw5juC1COf9z2jgI24s06TGzQldnRw/uc+DPX1BP36E8wxJXiMccLKoiI0bcBUh8m/HI74ygLYT/4MTvhpZr4thJEgmDcNxhMI864baY+baeQlfY+ne+X/2vSuydXmlcxsocKyYz44g7+B/cTFPJ+T4fyB5/gnNfuwMNl8OHKb1DF3DHJ8bt93CIbufTMGHipCYsun4fp/T6bvNNdS8M0XGPnQkby6ecWbp+s/28hBP39ItH/a8Jo3c0YEp+l41isD1hee4/A7o5z5P7+z5xazlTBSYZZlrclmhtoRGcIP734WH/xWDyrmZVHS5aLi5iRq/n975wEYR3W1bRcMBlNCyZ986SGUEDC4SrZ6lywX3OmkfUlIAgHSqK7qlm0gQEJCEnCRLbn33m1aTO/NuFtW3d5mZuf933NHa8tmbbR8FtqYOeZlZmdnVzsz9z733Hbu1GZkTQogZ0JYTW3OrPAgkyCM6FTCOKfCj7zy2JQpBUIlPWF67bmTawngBlxWHMJDKwFHs1UQqT4Dw8tagtQYW64/Ti0uASz+jXTFhMXtkaq2xWECWAKyOGE2OBB+cwaC276rPEud0lTkMOmJjwyJOgmAZbjX51hqPWZJs8hmmX1HT5B/NyAeMD1FmXQhQ82Ca69A6Ll7Yex5nl69h1cXUkCKNxMkiyccDuxBeP+TCO8cAmPNxTBXWAWJFXToXHr8rH2woPHRA256rSccH9+BUO0zMD3v8wv4AJk/pPMvKKMu+E8C7EiUM8Vf+SO2tY8xSWkh1jV8zEuyZh4fhAxYe62xAdM2NGHEYz70n6ThuklBJEqQ9BI/ctVkDIFunAF4Kr3yaR4UVjRiSFEd+oxz4euTDfxmMXDoMBOXqg1IZ6WHABYv2AZwzCa3MMTSXwFYOh8MVjj5WgbY6LofZu1bCL/2ILRtX6PXRQATbJrEIlh/FLwnBTDh+0UA2JTVhOkZqmhgGy+CCgkpY2cJYD+Pay//L7BrC8J170EPHOJ1S9dB/CUX1STE32ZoLroZbwF7H4P5ejLC2+gFS2ebBFOXtnXWLIJrz4Bryzfhe/+XMBprWCPcyfzQKA9UUVwBmLWZID19gYBBb0x6+wXCtrWPiVcdCPoQ8HvJJz4HFnZyu5u5s/lgAA8uJ2SLArj6XgP9H9aRUeFCzrQmQpYwZtU/rgBcyb89zY0CmT5d0oh+E9z4zkQNv6oJ4/29dNtYW5P6lbSH2x7w5zTpYJAmh7B0xLAUk44X1X5JmTIjbu9SaDuHEgD0umTSBav0Muoh3gBsbGV1fHs3hLdcyNffUJ1tslpwkL/Zu7MntD0zAZcfhtfJy2xmQolPN1A65kJogBYO8HeSou7XgQMPwHztKl5XV2C5QJjaeiZrJZfC+9Jt0A4u4APbR+jKsDZ5oHx2hK88W9UZyO+UIVRqyFmYntmRhmnbTr1Jm7AHId2tmiFURmL+kgK/1vBjycch/PJpHUl/AgY+bCBlSh3SH9nP6r5TzYiLJwBnTeXfne7GoKkOFJY7kTDRg++PC+K2Z4LY/k4APpmGLCW96WPhLg1dNoBjNinEQsypYYNVCWnPkSFpkoj4nunzIfhRJXzPf58AZtV3excr9sPGLghJ84OaGntU1qytY6WaIKjjV/I91dK3sVDY3lUN2cK6r9FL/B8VM9f7/MW8hrtguN5jIcO8QA8/LLN4hL9xmFpkLK6EApVhb8JSQ2ohrvUwP/wZC5mvQVvGQnBtJ5gvXQTjrZ9A/2Qd36/l9fBiIvmBOUF67GUUR1A9T+mnlimkUl3kSce1d9p2ak3us04Ahzws8D0qg/G+O/h4mrHLF8RTm8O4dSqQMSGMxCmHkPzYHmQQwFntCWAqlxCORZkSJpMALpzmwqByNxIneHDlwz6MetKNmuc8qHMIckWyRJE06cVlljpicQtgTXq+BcDMqDINVQ3U550Mu+vhfedOuLbSw9zSFaaseLGtE0KbJApXqyAxLWo9ZTYiYzO9UmkeIIzbU9o2ervbO1vDslb3UFHZ/PxNvtdSEK5fxuqSj86IVbCoKrikG4FwvJlJ4MrqDFpQBQiX+LXhYD3M/f+G9lIKfGu7IbDlbITfSYVZWwXTzasS6PJcNaqBUvDlV0mWkOYMGftrBdfhUTUKQ/0l29rNDBiaDwG3A7qH+UoF0JWVxGvh0prwn/0aypYAg0t1JFbUI+XxQwSwK64ALB5zRiV/E+FbOF2CtHuQON6DXtSgac2YuqIZHx6OjBwRAMsgzPhOWnEJYIGRrpnMuFJX8pJJPmZTmUbL95reh/f1G+Ei1BRMt53Nam8nBGUSQJwBWN9KD5i/TU3AWNUFxhrxiL8B7cM/wPTuVTVB6XpjUlGFjkViKt5M3F6PBp3VO4lPq5K4jNdteB7a279lbaQnAq+kwtg7GZr3XQQEtgJpSp6ZFJxWcGwZlyzw9XJPPGApYPmFcs02gNvVpIIR1qUdvwmmxMyVEUYhVtF9dQgE96ORzsDCV03c+hc/UiqakfZoEzKkDVgC88QBgGX1jhz+zTQJFjTNgcGP8HipDwPGuTFwosQKbsQ9VfXYubclTUmuCtsA/lwmHpP0v6lxoMzusiCRarbSQ/QcN8P/cj68Msh/A6v5W3uoVRwsAMdJE8RGaxuW6GGy/BFfS5wKWSYp8EoBzMMrVQaQAWcybNwr1yjTTuPVA5bZiI18Lh4WFKSq+pksJU3P2zD2/wPaBxOh73oGRsPr5LQHTUz2PkqGmck8N3l6MuohxCuWyTQCX3UGPZQwv0+aJ+xREO1nAl8ZO6+FZIiWPMgGZiamPhashtsF3V+rnsfOg2E8MM+DvMomJJU2Ib3s2BEQHQng/FYAzpzqwKDp/A0lPiQRwNlFbqRMasCNT9Vjw0ctADZ9qlnPBvDnMOmQsXprpVtKqqzSaSNecQOMQ88i9J9EaKvpWa7rjtDmc9SikRLvQYuzTjis70J1VeOBvfTG67ZfDM9HE+nUH1aglQWVvISRj9LVzC+5eHUL4sukpJBgEdL+wN+sEGzyQOg9mK4dhPObQJNLxYpxGBrq4eYViacr0ywkUIqbW2lHdlMCXz89Y3pfLHQkELmMDbYB3H6mAMzkFQqwwJPnpqYpu2HKGHtZ8yggcSM82OsJYsZOH258vB797z+MVIJNQNtuACZYo3W0RVN+eUBNxkgngNNZQORWupFe5EfaeB8Gy6og4+qR91gTFr0rdWUmqLCXjpyMm4rPLBWxuASw1WMjnVLMoEw9UqaJB6yFPkZo/yToL17FKn031a4a2HA2XJs7w7chjgAc+e41BPBKgfD58G3/KhrfyISvbplVJ6cplMmUa8MNLSxtVvGZWGTKsprpKnOHVZKWtluJwrWXL+v4cPh0+JBYQYE77EMz6ohY8XBlQk2AcvOSrTZfeZrSNqfLpADNVDVh6YiM61xyGpg06xm6uDMy3ZwFoeGD5guTU7zx8vxYxfGFXXihPoi7n2lA4u8P0at0xRWAZZsxxYHUigZklDqQMjmIrEkhDC9qRr+HGpBEr3jW60xTUqLLog0s5G0Afx5jpgUzrLRDSNuoj3dQPOBg8DV4990B7YXLgFUXASvoWa49E00bO8EbjwBeeRbMJWcgvPpMBP7TC/69pUz0H1kd/gIdSR2EkCHhNkk4abESKMebyWAej6lGAvP3yY/ms5GqLLfymsmdBYmfhYgDAaMBQd3B10z8PFUFFJe2RzWixaKtwQIoFKCY72VYGjHAq7Zd4PY13mEWiCHKz+cQkDGyQR4T70ZKQVMWvG3ArpCOovmE7v3NSCvyICPOAJxZ6UBy+WEkTTyM5Ek8VqJj9KR69L6/Hn0eMfD0K6yoaQJgqbZJ171cefxafAJY+bySyS0AS6eOADjgew7eXaMQeu479C6/TgDTs1zbDc0bOsNPAOvxBuBV5yC8pBsCq7rA/9oghBs207n3kUFS75ZShRcmy+FSui5tpVJlEsDFlwX4u5pZRfWoFl3+PikgW8ZnC3ytVvpGvruHcK2zZlsRsuKISBODeLtqgLxcs2x4TKrE8p6F3gjYbWs/Y8pizTLAZyAR9QRP8jikTLSGpEkUtSYcCup4doOOW6cStqUepJQehW9HAjivBcA5U11IK6e3O7GOHrAP+aUBjJx0GL3ub0DvaWE8/jyvwiPXI8RQ0VNsAMdqzLrMkFZgERUJiglGpRPHemivJsHY3IMAPR/hdecSst0R3ETYbiRspVMuCmyPV3izzEj7HLEgNp1JdWu7JBzjyi5w83e63vgx9KbXWRWUMHlyXayOB1ktlwUEyTODAJZuORkeH28m0A3weUibteWh84HIhuJeCz7lt0uQcGZtYamcQknzgmxFRz4qx3mOOqYO2x5wu5tKcyxA+UBkhIq0gumSFvkizAwm0e8k6IrHb+D19zyYUlNPr7MR/SY6kF4mTREeQlOgKxIQizxHjudUUgRqtA60E4pAzS2TIDttkXXuoEo/CqYS4Px8RqkbOSVNKChuRq+H3ehfFkTJKgMfH5LrsiKNyNzSeE5ZcQlguWFWHpaSzFAZVbCk168CtveEKfEftskEhx4EHbVZwPpp+B4PYAFvRJ8PwALWM9quDZ1grOsE56avw/nmnQg1vaaGb0nSMGUiaKgRYZ+P6V7GPEsDhJ/H4w/Atp0Gphry6caooEemlaekDT5EWElhSCCLdFY3nXWNmLthHworanHtQ41IK3Uq0CrIqvCUFnwzy2Wqslu9luMC1U97rifXp0EbXTkt28FTghg63cSgR4DscgeyimqRSU+91/gABtIjfniegdd28TpCQg/p5BZ3Ln4tjgEsJddxAG5YBXPHtTAINk2m+RK+pgp4I6CNTwCH13eGZ8v34H3nPhjO91S1z2rrdXHHQe+X7i8TS5gZxCqv4zm52PZfa2pGjNQjjwLY6piztqpfQt6la+x1uDB/62EUTqmLGwBHVFgRwOBKHXlTdWSVOZBTXEcAuwlgPwYU+fHAXAM7P2DBEpQ8JjMILJ7Eq8UpgAVDcvuOAliSjla/EuZz16mZZZqEPWwBsAS9iVcAmxu7IrDjaoQ+KlOTL6QgsQDsZYkicRJCPMDCxgawbe1pkomU9ys4EnfXOiTwVQBuoZSAWAuEsOQFJ4ZUNqDngw1IK4kfAA/iZwrKg8gqDxC8zcgtaUCWAHiCBeA/zQzihbcklrgMR5NII9YVx6vFMYClAkHsHgPg5QQwPeAjAJZl5mWxTQHwiTvcjgI4oi8QwPy7+otJMPb8HWawoQXAUrhIRxaTh4QHawGwFQ3NBrBt7WCqjYEZSZHWArDa8GVrACvj/trX/Rg2rRE9H4gvAOdLW3CJD2nF/PslzcgrbTwGwHf/y42tr3gQ8konnDXXsvWlxZvFKYDF95UuH95EgukIgBuWEcA9VRNEaKusP2aB1Nwi7cEnnnZ8vMJbziS0ZbZa9CnEJ9YZMairWoJI4gGbOwuBA9UwdZe6jkj/rGnS+5XUL50hvE5ZAcMeDWBb+xhpG6Zro9QCYDkaAfDRQ8q2vBfE9dMbcc39MQB4CuFICMeinHJ+ZwzKK+XfLnIjeZITGWo5/aYjAE6c5MVv/t6MjS80I+BW4zxsAH8eOwpg8RJZlTgGwNccB+CzCOAuBGucAnjLRcCrNwKHVqohaDLkXRIF8ctEz5QvqZ+ZQkZGSPxSGatpm22n3loAbBwHYOuwtW05Jrbtg3gFMP/uZDeSJjoUgAsqmlsB2IM7/taI9c81IuCS1l8bwJ/LjgKYpdgxAF5KAF/dCsBnqfG8psRcUEukxyOAvwq89hOgdgMBLNNyrTGY0hShMoJ0QSvw6vSCmTkkJ9hmW3sY09vxABaLwLc1gLfGK4BLLACLByxNEEcAPN6vYgMrAD8fAbDdBPG5TMbvSXtoawCL5xiqXwJzx4/UEkTBLYTwRgKVkkU5DUIvvtqAu6ooaOEtl8B87efA4S1M/LLKsbU8olyPcnZVN7QEJWeBc2y+sM22U2snBLB0V1mK2OcCMIEarZ33ZIrWzntSFbuRRQCrOBVlDhSUNxPMHlw33od+4934zVNN2PSSA0HVBGED+HPZUQDLfO7WAF5MAF/VCsD0cDfS02wzgL/IURAWgPUtFyL8KgFcSwCHJfKZDEDTeD3WUCA1NtPwcJ8QtgFsW3uaArCku+gAln/WGya2vO+PWwBnyxTpUv6OMuexAB7nwl1PO7HtFS+Cdifc57ejAPby7smU16MAxvYftgJwVwJYFrmMTwCr8cqbL4Aua7/VbuV1SPDJIGSh+aMA5pXpDm7lWtXl22bbqTfhqqSviI4DsCD46JsaNr3rxrDpDXEIYP6OEi+yK0IErwv5ZU1q+frrxvnQZ5wT9zzjw/Nv0sHxCzFsAH8uswAsU1s9vHutAbyQAL5SzS6zANyFAO5MmMqqE/EHYFkhOLDpfIRe/gXMQ9tgmE1ws1ARDMv1KADrTCKhRqZ5t1z4MRnDNttOmZ0QwISvaU17st6Q3gkf1r/djKHT6uPSA86h95s7VUfuFA8B3Ii8Ch+ue9iL3uMc+P3MIP7zrgktYI8D/twmURE0qayrcbK8kTJ9lwkm2LgIwZ0/QnATPUtCV2I/iOcrQc8tD/isdgZwLLEg+LsI4NCms+F/IQ+hT6oQ9jciEA6osH9BSlYoUJGoCF/T8KgYuaaism22nVpTzVtUmP+Tzl4JFaqaHMT7lXZhVfgTWSZdH92NxS830ANuRO+HmpEuACZocyoIWsI2m/DNZrVfjrU+LvF6o0H2ZIoK2ZMoj95vQWkABRVBgldiVDQildueD/uQPNGLCTV+vPGxRr9GxhlJPVrmExwpbeLO4hLAsmxNwCSQBE4SMUzjLWTBHHAsQ/O7veHd1gnmuq4w155L+HaHtp0w3iLtwd2PAe7J9IUEZN/YSXnons3/A++bD8BsrIWpMVnoHgS1fdCV5yu5IswCRpolJGC5jPewzbZTaxHfViYBBZmZQpQacy7twZLkZKE/vgwSxrubnHh6cz2un+7AgAmEbIkL2aWWcsoI3FbKJYiPqIwQjgLNU6lBZUEMLgmoIOwyBjh1WiN6VTTjqod8KCgK4tGlLny4j+wISokiIV59xK/sx6fFN4AlrKFaYIySXecqNH40EJ7n+LPXdqXOI4DPRigCYHq10WAbTV8IgDd0Vh1xno094Hn1F8Dh91RbiiyVohl1MHSn1eygLi/A65b4ujaAbTv1ZtC7lVjA1uoy0glMACuXmG/qBswga2Mm653cf3lXM8oW1WJopQMpkwjgFvgeD+Bj4PsFAbigLEQA+1E42aGitaVMb8a1/J1XPOBBwSQf/rrCgT21HoRlHUPl/8Z3OJ4494BZZosHbEXtRtC1Ac0f5cH73Bn0gDsTwOdAlnwPbYtjAK/vBN/GC+B99WYYhzcQwLIihFSOgkpq3C+vTWbFSYuVHQ3NtvYwCT0ZMAxC2IKvqpgz6alx6IYXYd0KsO/UdazZ2Yw//OMQYeewhnvFEYDzywIoKPFiUJEAuAnp013oM9WNy+5rRtZDDfjbqmYcbAjAFACbksckT3E/Ti1OARwkgL0WgEMCKLmZ3PXsgGvXjfC9cAHC68QLJkw3n9kC4G4Ea/wBWEJnBjacD8/L+QgcfBpG4JBKDjIKQpaplGuV6aFWI5x4v/GbWGz77zUJORKUZaAIJUGwdLtZncBBqoFOwT6+aEJtUMeMNW7cXnYYOcUOpJe4Pxu8EX0BAM4TFbuRP7mZMHYga7oXCdN8uOyPdci4bx/+tb4RTW5pupS2bblWG8AxmySQgOm3ACzNDwpO3PW9Cs/u38H/4reVZ2lKwPNNBPDWLpYHLGEp26h2XRW5RZARGhs7IbThXLhf7A3X7vug+d+SsoTYlb5mH319F8sXXqe4I8olEdlm26k1mfEui6BKgW/5wMQSj6kVWowDBPLHTIt1eKvJQPncIIY+5ETmZBcyCdzsVpIxtxHgqv0KQrdF0WaunWoJ5HOKncib3EQYOwlgPwZO8+Oyew8i488foWprI3zitAXo2LNwkdq0DeAYTcZABFhSG7KMjTQ/tLThGIEPENhXhsB/rIA85lpr+FlIYgMrAB875fhkClPRpxufOkGWpN/SCdrGc+Da8W00vTdKtWPLsB/xdf2QtYObIMuzqzQirQ82f21rD1Plu3S7Sa2LAOa+CkNi+OkAyLL0+3BIq8fSd/z43VM6cu4PEsBeNcrheAC31hcN4OwyD7LomecWCYDdBHAASfSAr7x3P/Ie+BCLX2pUI6YEwLomS2hJXdMGcEwmkXGDhJJh8MZJBHMFYFYpQgegHXgWwZfTCTUZCdGJHnBXAvgMqwniOMieTF8IgLd1AaSDcHN3uDZfgMZX+8J38BGYgQOqHViqR0ECWIbdySgPphW7BcK29jHJRkxz0scgBb4Vd0QOSV3MxaMuvFHfiKlrDmNshR/pD4aRWUTglbuigvd4+H5RAM7k78koaaYXLKEovcicGsTASg+u+eN+jJi8C+veaLIulpcVDglJVNgruQNxaXELYOkskEQSAbD0ZJpaM8K1axF6bThCm+hdCoA3dkGI8NW3RG9qOJHatQlio7XFdgL4OQHwWfBsOAuO578F7wc/R7hpPWHbRNb6VcJXXSJSHbSbgG1rL1MAtnYk2JUVdU8cG0l0Onw8tu79Jvz66V3ImOBA8kQDWaUCvWPbfRV4IyJ081pJxgFHg+apUOS7MyqcyChvRm6pzIIL8nUQiWUO9HvoEH726CHs+MCprkcuK6wJfm0Ax2wWgAklGaMo4hEZnhXWAjDrXoP2xo8R2twV4bWdoK/vgiBhqhFy0TrbTqR27YQjbNV2e1fgeQKYMA6s6wbf1gsQeHUg9N3FMB0v8bIcvC4ZKiOhKFk9FAjHb1qx7b/ZJF0Jc7mVXWtolswTC6l+7j0u4J+bXBhetgd9xtdjYLmf3i/B2hq4LWoN3fwpviPKE1Ae12l2qpTXsihn+hQCeIqDf9uHggod6YRw/8mNSC+qx59nuvDaXg+vSdofZLy9NPXJjLj4zVRxCmAZr8hSWiUYmcditeUYsnprwz5ob/2WAD4DhgJwVwK4OwHc9hEQoi8GwGcg/HxX/j163TJiYxN/546vIfT6MOh7nwF8B+QqeXUh1piCak5G/CYV2/6rTQLxEErS1GUV8tLmRerS9210A5teAx78VxBZ4xtwXXEtEh9pRPYUN8Ennu1nw7e9AWytiuxFRqUDmdOcyK8MEsBhpBUF0HdcHQZNacKUFSF8UOflNVEGGaLpCBrBFm8/Pi1OASzhGllVUgCWKpOFKBkUYTY6CeC7EdrUyfKAN3RFYMtZcQlgffuZCD7XTXnAWHs2j50NgwVH4LkfIvjORISb9ygHP8gS28fMYDcB29ZuJu2/hJIE35PmLqvDoZ5yYu8B4Ok5wK0PmUgfH0DvvxxAwlN7kEXYSTtrXAF4KgH8qBMF0zUMqgBSJ/jR58FDGPZYE57camCPQzxgFiysTgaCGvysNdsAjtGOAlhcQgnNIwCW2WN86QhAe28CQtvOg76O1fv1XQjjc+ILwC0KbTsTvh0E8GYCeH0Pgvkc/uZO8G34Kvw7fwzj4DZ6JAEC2E0AS4Aeq31OMCzVJmuP1yw3Rf1fco7IqlQdfe/LaXLtp4Nit6Oftv61vGxtkVMiJgBmldwIMoVJVUultga4A83YulPDfWU6Cu8ykV2sI/Gp/QTwxwSwdHQRfseBtyMAnFfqRw4BnD61GZmPODFomgXggRN8uOZPBzHmySbUvK7hsM/B62pW1xoI6AiEbA84ZpMqkoyAMDQfwrpf3UBpllD9cQEmooMLEHgtG97NPRBc3RXhNRchvKGH8i6jjXg4kcKbYpN0rkUD7YkkQ+O07fx92/haVnBeRygv7wT38m7wbPkRtA/uoQOyhtd4ALou18sLNF1ErJNAlu45q5JojWSUCP8NfJ9ei+ljkSTzlliBlHsS4XKE2BHJe5+S/K+lU7MdZUW0a29J3UgaqCKyupROrNbnxo/E4Yh+Fz8tOVf6DGTquszy0kxxTHhEmhciaUC20sIgiqQF2fcTRj43DLUyi4GDhPDqD514YEYDBt/nQtZ9BgorTWQ80oCkKfuRXcGqfgXhFwW+0SQdZdHgeULx/DzVznysJLxkRDllHiVpCpHRGGkV9UgvbUJekY78qQZ6F7vx3TsP45d/c+DtA17ioQ660QC/AJj3RDjSUkTFpcUlgNX9ktI65GZp7YUEkI6kI/lf2PkG/B/eA+f2i+Bf0QVY/hWY61m9V2vDCYTbR7EC2ORnsK0r1Z0APhvmmm7QltEDJoS9G85A4OUfQt99L8LNW5g5CNgQr9N0M1s44GXWdPI+OJmZrIQk7Vp1vHjK5LsEqYs3yst7o2aTinhvDJZSSnKcn49IKhOWeJy5UYa+tavM9pfGglnugyUCtk2KnB8/0uVZtVFyrh4mgMMEsEkAy2wv6e1nCRMBsGylvdeQmW8G6446wRsMMo0xDYVcTGY+7KEjs3y3H/ctbkBBWS0GPuRCBqFWMCVEODqRVSxxdj2WZxsFttH0uQAc9XuONnkcmX1HCGeXuZBeTgBP5m8bpyN7ioFrSl0EcD0efMYJt1tckjpebyPcYRnKKsCIb4tfAMs4RQnXKFMlmeikah4BsOnahdDHE+F+7usIrOoEc4Wsv0ZIqskY7aeYAbzlTIS3Upu4v44QXsvt2q4w1kuYyk7wbL8Qrley4dtVSgi/AFNrol8j4yLoDQtM6bUYAV67j/fCT39PQnMSPDzKQokFlEEQ8SQBiyQ2PzOzn1A6It5I6efmXSTUW8sKytIeEs9Ko8IsEcx2F+8LSxdLLeD5b5T0bbRVAlo+cFM6pOX61ZavJV9QzCoscAlpnuwP++EMu+DUHQgFncxLPr5n4HAwjDXv+fFgzT6MrNyHfAW4MDJLQkgvciKvsgmF012EL4EoXmkUSEZTewLYkguZFbIKMj3zSQZ/q4meE33oO64B05Y1wxeQWqKTBZSH6V5qR/Fv8QlgMSYi1QvXImtcBFMgX8LVBP2Tv8P30rUIrO+M8OpOCG/sHBWap1KxAjgsnYOUvp77q8+2OuKkPXgbf/OWTnCx0Kjb/A00vTwIob3jEXavgy8UYPWJ1ygSWtJTgQSX1mSomnWIR3gfeIJEsKJnozIcD6kqLfdDlMacqLa8jaLIVyrxvWje1alQ5LuPuN7tJkkXvBNyH44Rs12Yd+kYSSEu4nsE95HP/zdKEkFEch1qADmLPnq1Id2NoOZBUPfz2Uu3dYgFMdNT2Mf0IOFODdTyNmz5yETxfAeGT9qD9PsPE8AGBk0Dssr9SCuuR/70egz5CwFcSSDGGYCzK13IkzbnYgMDHwR6PxTC9Y83Ys5/6LyIs8arDvM5Swu3NNRYOYP3KU4tvgEs901JACyrqckacXztpTe4bwOCr42Ef/O5CNGj1OMQwNL5FqBCG7rDWHsusK4HIJ1/W7pw2wn+tZ3QtK4rHDu+icAbCTD23INA804ylb6rJuOe6eVK9VLCV6pEZcVQk/ZVgY0ZZDILCXBaEljL/VLekORLSXsiuWdH7iXF99TxdpT8/VblZztImmukFZgZ7hiJ7yPTCiS9iDyUhPl0UTwuUefkc3Ql40vym9oi61zxZK2eEblmNz3eBsK3FoHgYYQ0h0ozlhPD58ENX2GXP4xlb/kxqdqJm2UywzgHMsb7kVmqI3NKENnT6AlPdxDA1FQ3QUcgxhWAqUrCd1oQ+fTW+91jYsD9Gu5e0IitB5rogMhVkhUsmKStXGaaqmXN1E2IT4tTAMsNk1zGjQCDO9IxJZI0perUhz+E/vZ98D33PXgJMzUsLQo0T6WiTTc+mWTNOt/GLtA2dSe8zwc2CIQJcYnkRklAIY2/O7itGwLbzkFgZ28E9xZDc22CEXhbtWX5DB0e3aRXLN4sMx8znMRRk8ynkUTi6bbcLWZMijvi5En0KzXkqAWG6j5GJCfLsXaUeN3ymCyfpL1kTWORSMpHJYP6Iv8k2JGXkpgbIj8VijtJyBgpWNsmOVe64Cz0Wp+UvFHH51/L53+YecTJZ0wYybOQG8UHcZAvF3zoxT3P7kHhw/uRN96DYVN1DJpuILnUgwGldch6tAmDnyTcCLisEgEhJUBso46fvdYWRf8egrdFR+NQyJRoHquU3xdCLn9f399qyH1AwyPbGvFhsJGXy4uUtM00b4V8ZcEkzJADcWpxCmBJOeoutgBYfD6W6mhW95ccApoaYX70d3h39oNjGyG2Of4AHKRX7qOkGQJbz6PXSwCv6Qas5G1fQ23qrKYrm9s6I0Rv2L32HDS/0BvuD25DsG4qtODzzD9elYfUEDwFN6Gq3ABpaZXsZ7X1SuuX2jLh+egC+0jiAO+fWlCE91B9tEXyaZn91J5qyfcx6ShY26ajnzVbSaAsgLLGCRwLZ2up13iUVax+tuQa5dolSKCkCV3XoGtuFrqNTCANfEdiIUhqoA8oIwGcPhza58Di1xy4e14D8ifvw8A/1qvhZsP/Bgz+m47kyjoklH+C9OmHUfgXHfkVJrKLZNHLT8PxZIoG2M9S9O85MYCzp4SQTQhnFrvQ/7dB3DBJw8K3G3nVLQCWBC5OB9N/iLwI8bgN4JiNd5HVLMulk9dS7ZaJChI3gR6f3GQPE9mBdfC+fT2h1QWBLQSwrMMWBZynStEgezLJoqGBjbI0vYyGOAfY3IOeb3dgNV/Lih5b6A1vlyaJs2Cs7grPsk5oWNUJzZvPR/DVFJi7xwGOjSTMYd4HqV61Mmln0K1ecC/3PbwvVoXbgIf3zkv5SewAgRxpE45IjrW3pC1a2qbbLj71WMVrUeubHaPjv7e1+L4SC/R4Ep/bp9Xq3zHn8l2p4qi+AaYBlrBmkGg2ZAKCNLf4mE8MNLOU/fBwEM+9eQizVn+AO/66CxmT6pExmYArNZA3Dcj7i4GcJ9xI/8tBpEz/BKmVh5BVFkBuMVjFD6smgtwKz6cAeSJFA+xnKfr3nBjAWeVBpJX6kTLZifQ/BnDvExpe3NuoQKsinwlree3SQRkwHbwbjbwnNoBjMtWCQ+DITWSqY5VKevqlOmklLsl8yrVr+BDej38Px8tfZTW+M8KySvLmrp8C56mS1QbcdhkbukLbIBHbJCwlj20hhDfRE94goje8sWUrbcOrzoa+6kwE6QmH6B2HVwmsr4L54s3QPn4cPs9/WKHyqHHB4t8Y4vo1+gGnn9BR2VJlTpVJwzJMiWJGlcwa1qS9WDsieS2hPttLYUq8LxlK2HbJs26rFH0p+oIG74ESb4gSCypdxFwo7TCtJeeHpR/BG19i2raeaiuZcrxFYVkdvEXyOsith/LyemXlB5UhrNEnjSxg3nEzOe0CHt/swb0zdmNk2Vvo/4dd6P0nJzLLwih4FMicFkZyhQOpj9Qi56+HkPP4QaRX1CN1IgE40URBcRj5snDmlOiTMKLpi2gDzirzI6nIh4ETnRhe4sNjC4P4pKGZzHDw+pm2hbV8/DIMz2t6mGOkeYbpK04tbgEcjgCYN9IwdBWeUvArbWbiD6t76nYjsP9f8LyRiND27gQwYdfuAD7ayfZZMjd0Q3hDF7UunLlJPF56v9sI3W0Xwtx8EYz1F0Bb3YPg7QFzrcyUu4DQvQRY+RVgaTdgcWcEl1+IDzcmYu1/7sKsd57FrA+fw5r9n+CjOjdCDbw/AuLPNGZQeodHYEdv8PQwqYwTRKqjRQbciaSmILlQEsjxksYXuWECucj58SD5Tccr2nkRCaBlK9fDO8BL3ucw8Z99ISx8w4/KTX78RoKqP+5DQlEjrn7wEHre14SB40PILDeQURlAUrkLiWWHkDrtIHIfb0L+Y/Qw6e1mTPIje2IIecVBApiAlI64KJCMpi8KwIn8jYkTXPjF0x6seMUHp89yS6QAknJW2sBkeJ7XlGVupcWcaT9OLS4BrHp7BcC8iaYWhiZBNVi1lNlhPma2kEqAhAg3Wu1WBN66FdqOi2EoALffaIhYASyxH7CB0CWIQe8c8h1SUGw/D9qWC+Bfdy68q8+muiO44Sz+fsJ5zdeA1d/gZ2R23znYs7I7quddiLueuQJ5/y5A9tx78dP1/8ATr2/E9n3vYbfzAGoDdagPNqIh2ARHqBkuzQGP5oRPF7ngk/0Qq2OBJvj9VNAJv+ZuN/koN+UMxSD1GU+b5aI8SqwXaC61dWteKgB3SKMMKkyZLdvPJ88XIFcb5WxRU8DAIZ+B3W4dr9fpWPuejn9tC2DCAgd+9lQDCsobkDjRhesI0utKDPSvNJA+zUTWFHq9JV4MKK5H0pRDSJtWj4xp9IqnSOQzTQ1HKygLIq/EgdzSRkgkNIk6Fg2S0dQ+AD4WwtnlAfSfEES/8V7ct8iNN+mIyBA7KXRJDOVfSK1Ahm366XRI0SyH4tXiEsAGASzDaATAsrppKKQjwGqWzA7zsKoRkHYdlm4C4PDh96G/cx+MHd9q8YCpYyZkiEfcVXXQqU46ee9zTthoO4BbzpOmhvUXcivDz/g7tnRCaGtn+Ld0g3dTd7gJWPf6s+FafyZc9JR9m/gbtxHaz52PwPaLsWfj17F8ybfx4MxLkfPUNbjs76n49oxRuHrh/yJrxa9xw+o7cc/GIhTtmIkpL87HtJ0LCOalePrt1Zjx/nrM+WgTaj7egvkfUR9uxvwPNmH++5uw6P2tWPzBtnbRItm+vw1L392GZe+0Xcvf3Y6V7z3XNvH7V777Ila//RFWv3mQ2tci7r9xGKtfb6JcWP2ajwpQfipIhSgt7rTilSCWvxxdy14OHNHyVwJYSc18zoei1U78YVEjfltVj9v/0YCRjzVhUEUz0oqcSKB32GeCG32LZbmeEDKeCCPvcSBrqo7k0iakTDmI7L8cRt4THmRV6kiZGEb6BGn3BYZO9WNw5X7kV+whDJ2U/xg4nkz/ZwCLt02p9l+CV43CUABugbDEJq4IEL4aej8cRMlaN+roYEhNwCRlpfNXWrLAwtcMsbbMGrTUdeLX/41bDzgMaddUM3x0lmos1kL0gGXAjQwnCsFpAVimf7kaEN47C9pL/dV4W319DxgbziSMCV3VKdddjUIIEsIheqL6urMQXk/QCRCjxIc4mWIG8KZz1OgHjQptOg/6Wu7Tow2s7kz4dkHz1jPh4G/z8Hd71vA4fzde4u/ceRY+2PL/MH/FD/FAzUCMmJWLhFlDcHX1cFy5YAQuWzAY36lKxf/8sy8uezoPic/+Aimz70L63LuQu+APGLz0foxY+TDGrJmAG9dMxs2i1ZNw86qJSreumIxbl8eiojbrFuq2ZUX46dIi/O+Syfh5G/W/S4rwi2UlVPFxkuPHafl4/HJpGX6zoBp3Vu3EnTM/wZ3P7qf24a5nD+CuZ+qpBrX93b+b8Lt/uSkf7lLyx6Q7Y5YPd/4zNv2WVenfnEC//of7iH77tBt3cnvLE06kljeiz8TDBNEh9HqoFn3HNWHAZA9SSgJIk44qerUZU73IfpQge8yP3Ok6PeAAMiqakD29HoMed6LwL0FkV4SROpEe8gSDnq+BIVN9GDztAAoI4bwKFyUAFlB+tmIFcA6/O6eS4m+11npzI7/Ug8GEcOFUAXAzMkoakFnazH0Psvn+gAfp3VM3/TWARW9aQw2lySZMhy2gOp5NaASvrCep6fSK6QWTIhZY4tDiEsDHGO+dtDbILZQbKaNeTVWpaDnIGxz2vIfA2/8L78bvIbD26zAIM6ztTM9TVr+gN7ntXLi3dIWX8NVWngNzZVeY67pYkdFiCORufgq0J1BLOEpzGwuAF7vC8/w58NCbNZZ/F+bCi2Es7YrA+k5o2t4ZjTzHv+Fc/qaLgdUXQ99+AXZvuxjzV16GP9YkoGD2IPSrGoPram5AvwWjkDh/CPpXF6BnVQGumDUYV84YjmvoFfecORrXzhqN62aPQa/ZY9G76gb0mSO68aiqLF036wZcO3NsDJLzb2qzrptB8TO9+NmYNONGbuVzEcnx0dSoo5o1gtc4BL1njkHi0/cj5ZEVrFbXImWyD6lFzUgtdtIL9FFupJccQkZxHTL4OqMohPTJAaROik0p/ExyUQya7EfKBF9MSuNvTz+hvEckIxjSJ1FFXqSWUvQMU0o8SKXS+Dqj3I9MQk1Amy3NCpWEnBIBJ5ATL7XCQy+ToKu0opkJYCNAlGhmMv04f4qA161e50lHXBvVGq6fJYmyls3fmT4tiIzKELJ4TVkPO1A42YWRLASGPeJEVvkBDCzeg/SyehTw3KyJXlx9x0fIHfcent7qwwGPAEAafaWjrZko9rF+bEAiQshoH/GCTU165Ow24HY1U3NC/+RJ+J5PhnfDVxBadQbMNV0Iwe6s9vdAYGsPeAhaH6ForKWXufIMNR5XgbUdARzcfiY8L5wFLwuA4MaLCf1LEFrbA0H+Nn1tJwQ2deJ7slLGeSwwCODlX8XuNV/D0pXfxeT5vTBqViZ6zxqFK+bcih/NuwUJ80YitboQqYRvYtUw9Jk7FtcRstdWjcC1s4ejZ4uumXW90tUzh31KP5o1DFdye8WMoTGI5z97fUy6nJ+5nJ/9v2kIVUgNOqqZebiM9+UK7l/zjzvRe+pi9JrYiN7jTPQd70NfAk2qqP3H+5EwqY5qQML4EBLHhZEwTkNfVl37Phxos3qPoyRGblvF86N9z8mUMCGAxBiUzEIhi1XxnEpRsEWyb3mTAt/INpuAFUl1Xqr5VnQzC7bWLDcJuGNJ9i1IE6j8/rxy0adBeyJFA+2JJMvLZ/F3pLCASJVCY5IHOQ85MXiiG9eXu1BQXs/CdB+SyvYjZ5qLHnEY2bz2/nd/jJ889gE2figR3cQEroLdJsiUGxkPIYsSqe5JjWeE/DaA291k+FHdSwi+83O4njsHXsLNWEsAs3pvbj0D2qZuCG4+G/qObmrSg0kIh9ecbYG1PQDcIv/GC+He9HVoGy5UY37N5zvD9VInNXFEW0cPfa00k5yJ4LYe0DZegEMr/h/mL/we7q++FrdWpSKNsLyq6jb8YO5PcVX1reg3ZwRSCN/UWXlIrhqCxLmj0a9avNsxMan3XHqXsYoedEyK9h0xix4wr7HXXHq+EVXTA66hB8zjic/+CcmP0wMub6InaNIrpNdayuo3q9LppSF6hE2Ug9VYA1nFJr1hg95iMCalxKhU+btlWowKIjMGZRGMCq4xKFeBt6WttU0SQEcH7YkUDbQnkgIwC4AUetqppS5kTXZjEL37wfTy8yY1I3n8ISROqkV6pTSVGASyiSwWsKMqDmPKinq8elgmIYnRAzZl9Lvg1/J+peNN5gtAgnlpNoDb39SICC+C+5+A65UfwLW5E0Iy9EsmQGyWYWBd6AkTgC8QeC90Juy6E4AtAI5BbQYwgS/twPqq/4G2/HKE11+i1obTdnZCM9W4ozMCG7takzFWn0Gv+Bx8su5iLFx1Ke6p7oNBz2YiifD90Zzb8P2aX+EH836Jq2tuQ8Kc4YRyPtJn5iCN1fCU6rEYUHMzIXwD+lKybZPkM/NiVM0tsSnad8Ssmyj+3nljj2r+aPRdcD3683jyrPuR8ddVKpNmlAMZFRqr4BozNuhd6ayCO+gVyoKSJjM9kFMe5vuhmJQRozKnaPy78rdjET1YVrHbJOXp/vcDWJTDv5FBzzu9zImcYheGlPhRWOxHxvhm9H+ItZfJzcicGkLBIyw8J4WQNc6J389wYc17QdQGrQZJa8q1j4yV0EOqX14N1BMAm+KY6TaAvxhjQag3PgffezfA/eJ58G+Vsbf0Mte1zDojiCHrsz1/JvyEsXR4qdWRZb02btuiT61+fCJJh51AeNklMBd8B6F1X4Hnxc5w0Pttfq4T3FukEODvkenIyzqjfvF5mL/ie/jVyr5Ir8nDtTNH44dzb8el8+/ApYt+hx8u+jX6zL8NSXOHI3N2PjJZDU+vuh6pNTdh4LxbkVBzY0xKlOaM+fxcTGIBEJOifUeskt95ExIW8Hcf0Vj0XzgCiTyeOvtBZP1tNTMpPagpUDDLmUJVALnc5k5zIJ/V1/wpJgp4LH9KmPAKUZFq+2dL4Njeyp1KeMUgaWqIBtmTSWDXerbZZ0vO59+LQdFmup1UU6hKL7LLncgtcWIwoVxAAKdOcCNhggcDpTZRaSqvf+ADfL/IicfXh/CJBwq2aoCZmoxD0MrEIx4Rr1hGUSsAh+W44NgGcPsb77HproO+7xn43u4P7wtd1Cw0cxU90tXd6ZF2VZ1iwW1nwb2tC3wqeHs3hFuNcvgsHT/V+ISScymsOBvmonPhX9MdTdvPQMP2LnBvlmWUeNsJX3NFZzQu6YHVC76NXy/ujT5LsnDlgpH4Eb3dqxb+HD9c/GtcveQ36LP450hacBMyqq9HdtUgZFUNRhqr4Ek8b+C82+kF3xSTPh+AO0KfBeAHWgDspMdLANP7zBFV0OPlNm9aMwHsVOC1AGwww4sHKRnfAtlnKTtGZREqmQRYLBII5U5tu+T3R4PsyRS3AKYHnF3mIICbUVDqRk6RB6mTCOGyMNIqgdRSHUnjGpExrg6/+ocPq9+xYt0p+Jot8FXxUcIqcoG0/QqEFYBlpJScYwO4vU16Q/lAZPxf0y4Ed98N9yv/D+6NnaCtIghXnUdP+GwCWcbfdoFzeyf4CGGBarsAOKL1XRFeyb+z6gwE1p+lxv5KhDTl+S7pjLrFF2D50stx99JE9F2Uie/UDMIVC0aj16Jb0Gvxbei9+Mfov4ieL8GTXjMSOXOHKmVVj6T3ezNB+lPqJ4TqzdSNx0D2ZErg+f1rbol/zePvnHejam44qjHoN3+48uRTZt6PzL+uYjWWVdUyU8UJyK6gyglabiWweJ6sa8bX+eUmtwJnZvoKD0WQtUFZU2JTBr87vVxWbmi7sioInsq2K1ugFQWyJ1M8AliWvc+S9t/SZuSUNCKnuBkZk1xIKwoiaxqQMdXEwIkeJN2/DzdMO4jHN4bwfqP4ueLj+pjtZSKAAFg8Yb4kZ3WBMCVnWUF4BMnCh/i00wLAMixNAlJLHFB4uV+7GO63s9C4oyt8Evpx1cXAyv9BaNW5cNMrVgCmNyrNCuHjmhlOpqjNDdG00VJoS2f4N3VCWJpA6AWH10tQdu6vOAN1Cy/CskXX4tfLC9F75Rh8Y9Ew/GBOPq6bNwSJi0ZiwMKRGEjQJFUPReqcwcioKkT2nKHIJogz5t9AKN+GvvN+hn41P8aA6pswsJoA5rYtSph7E/rHJELwcynad8Ui+Q56vHPHHFX1KF7zMF7DGKQ8+2dkPL4cGeX0kEoNZLAKK1NVs0sJWgkqU9FANSKPVdk8vp9bSjiXRQK8yPazlVXuoZfadgmAY5UAOKtCQNxW8bfRe4wG2hMpLgFcyhpAMQsVQji/3EEINyG9yIG0EgJ4qni/ISQ+WIvshz7Cg1WHsH2vDo8mQJWuNkrFyaCHK66vOLlUS/QC8kBaiAXD8ev9ip0WAJapyyHDDU0CsUjjUPMe+HdPRtOr34V7a1cYqwngZd+DvuJC+Alg99ZO8MvxTdbqyMd3tp1IsY6CCGzuyr/VGcHNZ1hD02R88rIz0bDkQixZcjXhOwy9V/wS31j2K3yfnm/v6mx6drn0aguRVFOIZAI5eVYOUmbkIm1mAdLnDEM6PcDUhfR+F96C3vNuRV+BKkE1kJJtW5Qwh2CLSfQ85xCEMUk+E+27YpF8B6E7Z/RRzR2JfiyUErif8swfkfGXpQRwAwGsE8DiUTFjlxDAsopueR1yy+uRVxKgNAI4QKjK4o5tl/TUZ8YigiuLwItJCsLRQHsixQ7guOyEU88qgIKKAAZPlfHHDtZkHASvjGYxMHACC7Vx+/Hj6XswY2sTDkoEOOXVErzi/UrzAvP+0YkC0u5L7IbD0MMGuSArYsgb8WunhwfMG60bXt50eSA8ENChN2yF98Pb4H7xmwiuOw/m8ktgSuCbjfR+6ZXKKASBansCWGbkhTZJsHV62lu6w1zVA00LLsLaBZfjd8sy6Pnejm8svQvfn/9r9K0Zg2TCN6E6F33nDiIoByG5SgCcj6QZgzBw5lAkzR2FpPk3IYnwTZg/Fr3njkDfqpFIJKgGEFiybYsSWiDcdvEzhGpsks9E+65YJN8xhhp9VARwfwI4kfupz/wBmY8vIfTq1aoOWS3QzCkJEbYCkDqqHvnM5Pn0ivPoAefQQ45FskxPZgyS8bnROtpOKgVJ/vY2Kzb4iuIPwPSypZZSZqBwqo4h0/0omOqErMScXOLBgIkepIxvxg1T61G+yIUXd2kqzKlqXJA4MWGNXq7EORM/V6ZnCZzpHZs8TkdM04LkgawYEt92mgBYlqeRtdH8rH5Y88Lha4K+fy7cO1PhWSvhHbvQC/0KzM3iBZ+BwIbOCG8WAHdvBVlrVIQFZR6XiRyyjTRBCFjVJIszraFmPFctMcTzlCTwjoKvTEXm+zLpYzXBvZ6f33A2Dqy6CCsW/wD3LBiIAYuG4FuLb8GlC26nR3cLcuaMQlbVMPSll9uzZjj6zx+JpHkjkVw9EgOqxPuT4WO3ov/C2+j9ShvuMPSZlY2+9IwTq8ZQBHDV2DaIEGb1PrGaXnSbJefzczEp1r8RTZG/y98dUQ0hPO96DOB+2ow/IuuJJYRevYpxq6q2KnMTtgRCwZQ6qlEFmCng+/llOqu6oZiUWxFi9b3tyhZVxihZDigm/TcPQ+N5ci5rCzllvGdl4N/SUVDp5raBBV4jkoqa0ffhRmRye88sP5a9aeKQR5bedzBv0/s1JL9LzGmrNVgC7Uu4fWsQmheG7kEw4EVIlxVk4ttOCwBbJkv0+ODXfSz5eNulMGzcBe/bv4V76znQJCbv5q8Trj9AcO25CKztTG+4m4Kumoyx2YKtrmTBWIFXtgJiSgGY75myT6Bakc4s4JpyXL0n8JVjfH/dOQTw2QgvPweHl38FS1Z8D3cuSyBAC3Fp9QhcLh7svCFIpXLpyWbOuBG96flds+BG9Ft0M5IW36q83URpaqi5HX3m/xR9F96O/gtYNZ9biH4z09BvRi4SZ4+mCKrZBPFniRBWbcE1t8QgOZ9edkySjsFo3xWLIp2Lrb53Hq9h/nAM5H76rD8h+8llyJnSwIwdVu2QFgxkVYcABlXWU40YVB5EId8fVG4QyFpMyotRMvoia0ooJskqDzkxSSAcHbQn0hcFYKsAPJno+ZaKPBSvpcREVnEAGSXSjn9YtecnT27GgIfqMPpRB57cYuKdJgn74oIe3AMj2KyadQWs0tporQYjq8HJnkzBsAHcASZVEw1Bww9vKICARFETLzigQWtYAt9Hw+B5+avwbekObc3FMAjD4Iru8BPCQZmosY0g3nYuNHrHgY3nI0DvNrStM4zthDTfD604H6Hll6iZddrzZ8K9+WL4V38T5jIeW0FPdz3P2doVnu1dEeQWGwje9V8nrL9GL/sr2Lf6q1hKz/fPC/sja8EgXDV/LK5SEwuuR/K8QfR0B6mqdb/ZN6EPvdO+81j9nn8zBi64BQO5TZx3MxIIJBkZkMD9xBp6gnOHE6aDqWEYwGr6AFb7re1naK4AWGAmYGur5HyZ9BGL5HMC7hgkBUNrqe+Q7+LvPqJRvB/DMFA84Jl/RtaTKwgxWaqcGVmm55aLdAXj/Mo6qoGeLL1hBWV6tIRXe8qCo3io7SeJCNa686stsiApUG27VDSyGJRFqGYKXKXw4+8cRIgXlHtYA3Er5ZW4kFPkRPYkB7InO1BQ7MVgaRYqdmJg8WEkljUhlfcvq8iHQQ/vx6TZdXj9YBgeGeuLJoRD9TDVzDYrxwtcrXEO0hQRGfHAGrA0TxiErwrEE992mgBYbjRLwXAQPl1Xy7pLT6i6+8YB6M3/gPv9bLi2n4vgSgJ3CT3iZT0I4DMQImCNbV2gbTsbAcLSTwD76fUGt50BnUDVNxLSy86Df+klCNCT9rzYHc5NF8G38pvQl30VOkFurOtC8HaCa0cneLeLF3wxsPZb9Jq/gf1bvoaVqy/FQ/MTMLSqAH3ogfasuRX96OUmLxyOlHmD0b96CHpWj8Q1BJ3MVBO4SBX70yKAjuwTikfU+pzP1jFV+naTNB3cGJOO7SyMXJtc8+hWGskCaCgGzh2D1Bl/RuaTK9UwtAwCOIPwVdN0yzTVHJFbeRh59IItoEhzggAsuof43ySJIna893nqJQCWiGRtlxppURlEwbQQax4BBd/8UifySwhbKr/YgVx6t9kTmwliF/InO1EwqRF5ZQ1In+bAwKl+9JtE73tSHe57eh+2vtyoIpqphgbDATPogalenz52GnnAUgqGEDJDrK5Yq0Cp0s/wwnQ+B23XRPh3piCw/kJ6v12grz4L4Y3nUWdDpwcb3EBt7Eogd6PXK00WFyC04Xxo67pDJ6gD67ujafNFhO9XeH43hNcT0vyse3MPbs9UKxxLB19g8wXQN9H7XXsx9q26BIuXfR8lC67F7XMykDJ7JK6quh0/rPkxes+7AUk1w5BSLR1uhehbMwJ9xPMlhE8M4NY6nQF8/DXZAG6teAOwxOqVZovCRzQMfczEoOkaj9MjpmebVUTgUjlFDuXpCnhzSgjmcnq69IJTHtzHzzZhyF8NZEwNovd9n2D0lLew9PUGeGXUg3S8GXSwQl4YvmaExQM+jew0agOWASfS6xlZC1cqJjwqS8e6GoH9z8F4ewL8O3rDSeD6ZTaarM+27gIYqwnhNfSECdCwTGHefDaM9V+Dtvpb0NZeBGNLF4S2dYNj3bfgXSmrVXRGeFsneF7ojIbnzoRbgv6ouA6dYa6hJ73uIhxcewmWLPkO/jSnF8bOTEfm7OvRs+o2XFr9C1wx72cqvOTAOYOROjsPKXMKCOMRGDD/JsKFADoGPqde0YF5qmUDuL0UrwAe+oiO6x8LI5+/MZOwzSBgswhcWcE4vciJNFlIc7IbmSVePqMg0gjllIkHCWw/4W0iZVwdBpV8iIrV+/CR15psLJlY91KeEIyg24rvcBrZ6QNg1eQgTRGyBpSb+PUQxASyuMLSOdpAT/iT9Qi88VM0vPA1OGTljHXdCM3zqQvpsfYANp4BbBEwnwFz/UUIr/kW9A3/D/p2esVbz0RoxTcRWvYt+DfR8yV8m17qhMbnCeKt9KbXdgdWEMJLO2Hfih5YsOYy3L14IPJn5iJhxgj0nHM7fjDvDly64Lf40cKf0+O9AclVhUiflYu0qkFIqRmNpPktnU7HNDWcekUH5qmWDeD2UtwBmJLQloWVfgya4qPn60D6pGY1ySK7jDCWVYyLPGohzeTJLqQWe/nai/Qyfn6qi8+F++OakTd+LyYsqsOL9QaaTWnD1SDLXOhOQHMzb8vruO9Wi81ODwALfOW5iExZgk9Wj3MSwl6EDRJYCk2ZPHN4N7Tdf0XTuzlokmV/VtPbXU0I02OVNdis4WS8JRs7UzKa4TwYmy+g99tdhbQ0l52L0PKL0cRjh58/Ew0CX3rC+uazgDXnAMvoJS/sgpVLLsGdKwcgZcn16DVnDK4hfH84/1e4YtGd+NHi36LPop8iad5YpM8pROasfAJ4CJIJ3oHzb20BcGvgnHrJUK52lw3gdpNaQYIQbl/JbDULrm1VXpl0svFZTGq0AExPN6siSNAGkEzoJkmcBx5LL/Nx64OMgS58NIjkhw8i475d+MMzTVj7gYaGMHNwuBkBXyPC/hBMH2u3MsRfjQM+vez0AzAlTRGWF+xgKeq3ukqlI9XlR7jpFfgPT4Xr9UR41ndSy8BbQ8zOBdYTujJ1eQNFDxlbOyMsnu8WglfeJ6yNNWfBs/FsNG7tDifBrOC7np7zym5oWHI+1i76Dn6/uC8Sl+TiskWj0JNe7bULfoKei/4X1y3+Jfot/hmSF9yMzJoRyJ47GFlzhiCVUBk4TyKI/YRwkREAo46DzqlVVGCeatkAbjfFLYBLncgrbkb25CZkFjmRTtimEb4pJfSACdx0PpucaRryp/P5SPAiesA5Jc1If/Aj/PwvH2HJ60HU0lkKsNoa0psRCjbADHkAcaIkX6taLnUa2ekFYAGttNtz32oLbuLWwQOkr0wSD/DEgBth3xsI7X0Avpe+Rw/2DHi3dEKA0DVkGSNpy91AoG7qApPH1UKam88jhC+GvkUmadBrJrhD68+CJqsYrz8PJuFbt7QHli6+HHcuyUcCwXvp/AJ6vQXov3A0EhbeQBEsC8Yied5opM+9HtkEb071UIJ4JFLm34j+hLSM802wAWwD+DMUrwAeVO7GYKqg1IOsEjdSiz30eun50vsV+OYSvoWPhlA43cvn0YjMCQdRMHE/fvW3fZj1fD32eDWVhbUQa7G6tAETvmp9Cxl6ZlrNiZLPTyM7bQCspoTL5AuR6jyVQdjNVB0lqyj7eJwnygM0gjCdW6DtugOu136Euh1nop4AlsA9JsEqM+ZkRePw+q6EbCfoW8+GtuMr8D7XTcUZVh7ymm7AKmn3PQe1Sy/E4iVX4teL8+jp/gT/M/92/GBuPvrMzaRnO5jQHYbk6iFImTNIBVRXcR1mFyKjZjjS5o9F0oJb0HvB7biOXrCscDFQtQG3nxK/ENkAbi/F6zC0wgoPhk7xYTB/X3apDymT3RhIpXI/RwVWD2LQVBkRsR9pD7+P/PEf4tdPHsacF7z4xB1kJTWg8q2pwpmJVyXVViezN50mGdvLlwrCp5GdNgCWB2PwwYV1U4HWlJkYEiHNdCgAm3BRITnVqspIy75zA7x77kbta1fh4Paz4KB3K7PjsP4iArYldsS6MxDe0g3Gc2fB91xneOkxhzb1gIoxvLQzmhedg5WLr8SvlgwhfH+Ki+f9HN+eIwtjFmBgVQ4GzMlH0pwCpFTlI2VmDlKezUHyszw2S9p9RyF5IT3eBTej17wbcC3B1Y9gGUh4HQugU6vonWanWjaA20vxCuD8UhcKywTE8gwCSC3yIJmSRUIVfKc5kFu0G5kPvoXM+9/A/z6+B7O2+7CXWVGiOSDsQjgoTQ6SoWVjQDOlJutnBTYEI2CoVdJPJzstACxAFd4ahk7gSinqJ4TpCmvywHT1WqYomvIg+TilgBVHOCxTFh3r4Nx9F5pevwaOHd0QkKFoa+kFr75AKbzuHOibzoC+TdqDO0Pf0gPBTZcgsPp8er5nY92ib+CPi9PQd9Ht+Pr8X+Bbc25An5mDkS7Bc2YNRe/Zg9FvzmBCmMDlftKMIUiceT36zx6lmhskqplMLe5FD/m6qkHoP2eEDWAbwCdV3AGYnm+uhPicRO92khMFfAY5sjR+sVc1Q+RM9aNwurQRH0D2uHcwZOJb+Olf9uCpTS581CxRy5ghpeoacAA+Sg+qY9Ji6A4z13JfZ342NYkD0TI87TSx0wPAlIR/MMKEL71dQKYsErh+esLCXp1vmkG+50XIdMMX9sFnhq3I+YYTmmsjQoSwb+f34NnQCcFVhLCMjlh/HrDxfAQ3nAnf+i5WRx1fm+t74ODaC7F01Q/w+2XJSFk4FN+fNxrfnzsK11YNQwbhW/jMCKTMGIVr5oxCr5rRGDh/LFLmSdjIGwjkm9C7+jb0mf9j9F14K7cj6TFnodeMNCRUES5qJET7QTg6ME+1bAC3l744AMt6ehEJbI+ffnwUwDllLmRMaETWRAcGVYSQV6Gp4WbJRRI+0438ikZkT/wYeePexS+e3I+/bvfi9UZdxXBAmGANMDf6fArAZtDBLCtjmAAHs66bbA5qsu5bLfOxi0dPHzttAKwKUelsQzPVSM/Xx+qMNXxFteyrMcKszpge+PnAvfSMZaKNxHIGPWE4VkP/5A5C+Cq4N50Ln4yOkMkaGyR+BD3jVWdCX38JYfw1HF7z/7By+eX43dIMJCwdje8uvhFXLJRl4vMxYLaEkByK9NkExZwxuLZmLHoTvAMW3KTaegfMuxn9qm9WsXxlnbe+C25E35rh6DM7B31nZiFhjkT6Ol084Nh0DIDnRn6vtFufSgBLKMe2y1o2J0ZJB1Y7y7qmtis3JkknmXTEhfi3Qqo5IZuAzS6jh1vWyPcbCdhmykXx+yuC9IB572XixeQm6+9NtRYpTS4JIGmCG2kP16Fw0l785qla/HOrF280++FTnWwEqk7UBknZEDNkiPk25FJRDSXr+pg/ffKWLsF26nlEPnP62OnRBnzEhKZ8iJGhEIrMLVJGICOs/ukaqzUBHuHDVe0ROh+ubxO0gxPgfj0Tji0XEcKd6Ql3Vmu3mavOhm/j1/HhxiuxYFkf3FudgeSq4fhuzS0E8I9x7RJ6cfOHIHF2Lq6rKsTV8+kNLxiLfjWjkEBoJEgQGdlXr0eplR36c79/jcS3HYH+c2WVh+uRSC86kXBpT8lqEu2t6FA+iQjcT8UulmOy/Ly6JxGN4P0bQkCPjgHA4tFFAHx8bN2TSyYJHBsl7LN1xDOMI8lstZjE+5dTYdB7DSOrVEdmqYuqQ3bpQX7fIeRPkUBHst6e3FuDnzH4npvnNCCznCCeHkDmtDCSSnQk3O9EzsP1uPNvLsx93lDNDkFTaqqHKWJW5VVmUpVXZWsFUpeXkjXFSTLlHOVJyfb0sdMMwDGYRM7XNBW42TCssM50g2H6X0Ro7zR4do6Ae+Pl8K88B/qyTtDXno3DOy7D0o298Zvq3uj77wx899nRuGz2T9Br9o8xYNYYJM2lZ7ZgGPouHIWrCZWeEkCccE2sHs7tySRQEUgLbD4NzFOtaMA81YoK2ZPpGADLvhyT32sD+FQoKmRPIGlyyCxpRlpRA9KLm+nd+lV4z3x6xvklLkqGmrn52poBlyNR0EqcSCtp4rNwIvcxPofpBhIn+dD7vkNIH7cXdz7TgOqXdex2WC6S8mR1er8KrF9e+9ICWCLohxBQzRESxtIwZR1VJgaNiaLxLei75sH32u/h2jYA7lVn4eOVXVCz8fv43ao+yJ7dB1f8OxuXzbwZfap+idRZP0PGv0cj7ZkhSK0ahtTqG+kdE8pVt7SAVaBxMvGcFlnAORaYp1rRgHmqFRWyJ9PxAJbvOCIbwP9XRQNtdMn5vPaSOmRM/giZVG7RYULXi8LSMAaXAIOKgbzJYWRP9qtpx9ll9ciurENahQPJFX6kV4aQNMmDxAfoKRd9iN/P2Y1FbzuxNxhirpPxosxnQbq10sbw5ebvlxfAMmFZQvb4mQoCZpAwDiPExCDjv02PBtPZBOPwNnjfH4fGrddh+eKzMaLmq7iypjeSqguQOvtmJMz6JfpV/wbJS+5A1oJbkflvAvgv2Uj/2wjkV/PYol9CJiX0U9Cwmh4+SzaAbQC3h6LDNrpkhlpBRSMGT9lD8H6IzHGfIE0WxxznI1DBY0B2URhpE/xIm+RATkUTBj3Gzz6iYUBREL3vb0DCn3djzLTdKFtVhw17PDgQ9BO9Eg+ADk6Q5PUys0mIAGln+BLblxbAGp+/3xAIG0SwobYeXYeHJXNQ2oaluUnzQXfugOPdiahanoPr/nEVuj3VH1dVjULyvDuo3yFx3q8xcOFP1ISKjFlDkPF0ATKfHoWc2T9DevVPCAsCWHm50YF7rMQDjkC4/ZTwBSj65IyTyAZwuyoaaE8kAXB+uQvDeF+Hljcgr4je7fhDSHqoFknjGpA6WRbPDCBnirX8f0aZHynFASRP0JH0oI/ArsWPn9yDx7fU4j91Pjjp3qiFNAW+sqRQgK/p5KjA3aoX/MtrX14PmM+eNSIEDXJWjTkUAPvh0gJMFzoM1TbFxBF2ItDwBra/PAt3L/4D+j17M37w7C341uzbcWn1z9Cr+sdImj0a6bMGI6tmCLIWj0SqLCk0W8YDy1puI9VKvm1VAs9vb0X7u6daUqB8anryyUQIJ1SNbRH3Wy/EeczvH87vH0xIj0LqswLgVe0K4BwBaoyKNk23o5WtwNp25ZSIt6uhsDyMwqmybJITSUUH0G/SbiQW70fGNBcKHjOQN81A4rgQrrnXg4H3unBTqQPja5yY/5obbzk8cBguMtbBvCTtvfR8Bbi6CYMQFpkyfvRLbF9aAAtfwwSwjITQmC5CmkmvOEgYu6lm+sNOWCOFTYSDGhxNDXhzz8t44oVnMGjen3DJU2Nwzj+G4vuzRiCJXlnB3KE8PhiZi4ehz/KRuHzZKPxwwSj0E6+NsOjfRiUotQbOqVc0YJ5q2QCOL0WD7InlQlaJHxmTTWQWA1n0dDOn+ZH+qBOpjzYidXoD0qY2Ia3cgZTJTvS7z42EPzlwY9FhPLGoHv/ZE0SDXyKa+RAIHobur2NGk/G+hC//k4lu/rCOYFjjIb74EtuXFsDELlNCAGaA3i7Thlp2ypD+WQ/hy0RjHoAVzEdIzcPKIdaxv3kX5ryxHL9aUUxv+DZ886l8fPff2QRtAdIXDEEKdc3iQnx75VD8YMkIHidcCJT+BElbZAEnAuL2UX8WCu0taXpJrBnTdtkAbldFB+2JJGN+fUgrCyGpOEiP14+kihAyHwsj54kw0qf5kDipFv0f3IX08bsxtLIRdzzjwdPrGvDOJ40ISTAWsVAIIXczNJ80PWiQOA8hej1evi/ujU91e9sA/pKam0CtZ8nss3pjpZlKOmiNEHSdicg4SAg3MoFIO5ViL/cMlt4h+IMNeH//y/jr1qcwYvYvccW/huDbswbh0urBuLJ6EK6ck4sr5xWg57zrCQvCZS6hwm1bdGzbZ/so2t891Yra0XYy8R7ZbcDtp2htvSdTVrkTabyvyfRykwjj5HIDaRUm0ks0pEx0Ie2h/Rha/BF+/fRuTF3nxNL3dXzi8tKHkXFmzEwyj1gWQpDZqBISgLVL3XTBZ7jgpLfTHA4TxJZf82W2L3EThAtho5YpgCCWqpEU2sLaoIGg18vC283EIbNvdJ6rQw9LZ53JElznOXzPU4dDde9h67ur8dDGSnq6P0ePfxei27+ycOkz+Uh/ZgiyZwkwxqJ/9Q2EkkD4s6VAdAx8Tr2iAfNUKypkTya5bhvA7aZokI0u6/z04gbV5ptZ2YTBj4cx6FEgUzzh++uQ9cA+3D7tECoWO7DiTQ/eadRQH5K6onS0NSHkdUHzSAeLlacMAjgU8iBoNNM7dsFPGLtCJrx8/0veB/flBXDYCNDTdRGsPiYcolWCRoQDLLw1ApjADbY0PfB/Yb6nmV6W3hpcASYeJjA9IFMihdg+vFf7Lh7dOQ83rC1GnwV34OoZo9HzyVz0/nsB+laxSk7AJESm3M4VGFMEjdq2qL/ayjTcsdSYIzoWRMdJjR6IXdGAeaoVFbInk3xGwKskv3N0i2RfRodEJBNXBrcA+L4oTRBBAtgggP0tAK4jfAOURpjKkvHRQXsi/TcDOK+VPg1a1wlkfVbWdEuZyPtaLBMzfMivkOXlmzBm+iH8YcYhPLPVhVf2As1Sc1QZhTQ1fYStG34vYRsIMN9IcCwJrh5CIOSDZnj5OoiwtP8GQ0qn4yoXsdiXF8B88DqrQeLRaqa0+0rISge9XUJYM1Utim9ZMyNZl9LCzfAE/Sy1WZobYTVKQpxmST4GvWMngfxOw8eY8dYy/GT1BFw760Zc/uww9Kkag36ESl9u+1aN5X4LdI8EobGgfATMBHBUoEXRiY5/WgK4ozre624PtY7x0CbJPZjD+6Ekr1v/5giMRSN574a2APhPBPCK4wDsJ4BDBDBBWNnaAw4SphLMJjpoT6T/ZgAf0w4s0C234Btp6xXYWu9LuzVVxmtWs9pcyC7xIn9yALnjndQhjKzYj7tmNuKJbQFs2KPjE590skkGEEdFerLpkGh0ZJg3JF9pZkiNstdktD0hrPG8sDpXapsGz/Pyo9JG0dJe/CW1L28TBKXSgggSJ1iqTyp0mgVdphWRZdJb62dJrkFnepHPiiTpHJ98GtwN2H7gVcz8YA3u3fEYsub/Gtc9cwOufno0rvrnKPSU4Wnzb0HCwlsxYOEtGDD/RiTVjEUqgZLEKnafGlnGaDR6Ub3nj0GfeYQ31W/eDehHUAnAFdBnE+gzCfdZY9G/ih50ixIIsNZKnHvTMUqg+tXcxO+8uV3VvyZW3cqawm0tkv1beEwk793USrz+eaOQUHMjUmf/DplPzUdGZSM9NRDCIWRWOJE5tRFZPCbKrnQQpARKpdPanyrifpsV+Uxb5eTfdcUk9fvaqCwql5/Jn+ZEAf+WxGPI42s5liPnVLiRRW81k8ogXNMI2XSCNWuKh9fv4nE375MX6aV+ZEqtoNLgd5nImwZ+v6GWDuo3oRkpDx/AiPG78MuKvZgwox7PbHRg6/t+fNwEOJnorawhqV88FdYiBagytlPyDo9Kg4TBfCMz36SjTY4pU5lH/ieus+jIO19K+xJ3wp0akyqUqkaphGUdi9jbTbswZecM3LGqCKNq/oC0Wb/AdbNvxw+rbsLlVaNx2azrcfXMYeg3+3qkzxqBtNkj0JdV7GtqhqPXvBGE72j0I4QT5tMLnCcR0lq8QwEt4dt/xmhux2JA1Y1Kcjyyr14T9nJMSfapBO4LyPoRku2pBIIzMSbdSk/4duo2SvYpAth6T5brp+aJeA0snAZwmz77V8j5+0yCow7ZkwmQYo0A4v60PQThQR4nEAmi7ClNaqpsDr3h3KnNFL06wrItyuH52TGJ0K6khxmDcqa0XdlUPkE6eHozhvDvDZ7apFaZyOdvzef15lbIzDT+hnIWRFRGqYuSVSm8SGUNIGNqCLnTdcrkd0mnWkA1NaRMrEd6Ee9RRT3yH2nCLU/sI3jfQdXafXjpgxDqWwchE89FAnDLSCJClPVIYlZWoDnisdjWRrMB/H+0CICPQLiVGeEgaj178OrB/6DmzSUYv+0J3LD8IQyc8wtc9q/R+NZThfj+3wvR85/DkPjPkUj65wgkPjMU/VTQ9mGE6HAks8qdWjMGafSC08RTrh6jlFI1CkkEdrIMx+L7opTq0Uiu5nF+RjSgagQGzB6ORII+YdYwwpoi7AfwvYH0tNtTSfI7YpLUAMa2SAIb8bUcU5L3eU3VI5QG1gzldY5A1sxfIf+vs5FXXou8iRKfQON+HfKm7EZexSG1Sm8eq9R5ZU1UA/LLHChgVbug3NdmSQAaCTjTdvn4t/wxKT9Gye8aTE92MAFbKCJ0B0XE1wWUXKt1vSxwSh0YMMGL/uNZQ5gSxtAnwhj+hEl4B5E5/iCS//gq0u/bgVFl/8FdMz9GyToHql4L4Pn9Pux2BdGsyVoyERP4St+HHBEAy9ggGSukIqnYFqPZAD4F1hrCIuUgqPYNJlKdVbNgMxrc+/D64Tew6pPNePr1Gjy89TH8dNV4DF10D5KrfoYr/zYK33u0AD98Ig+9/1GAvv8qRH+BsMCUHl/KIkKJGrBoNPovHIk+84fRSx5MD3kokhZcj2RKtgP4esA8S4k1Q1SHVf9qftdcag7F/QHVQ5DE99pTA/k3YtMwajh1fcu+aGiLWs6pGaw0YF6u+huZz96FvMcXIZdwzSWAcyfTsyNscwnk3DKCpyRIBQggD7detZ9XGqJ0irBug3J5fk6sKolN8jfaqjz5TJk0tWhILw8pZch0YBmnS2VJ/F5ReZDeLK+/UtrFfej/sBvX/rEZ/e6rR+q4QyiYfAijK2rxs8cO4o/PfILKJe+jasfH2PB+PV6vC2Jv0FoOUzArjQgSOl1Wm4GsMi6SfQVgK44gkay2tsVmNoBPgR0PYHGEZRsK+hDwOGH6WX9TS6lIgg2q4Th7XB9h+6GXMOPD5Xjoxb9j1JKHkDzjlxg441akzL4ZA2fdgP6zxqD3zJHoSRBfNaMQl88owKWz8vHd2Xn4dlUOvj0nC1fUENgLCtGX6kP1nt9KLccsDW4Rz60ZhH7V7au+MYu/i7DtS9D2ZaFhSY5F3mehVGOp97wM/o1CDHzmz0h7bC1SSqXHHkiZZHDfjRR6fmop9GKTCnNfs7Z8ncr9VELM2n62Ugi95JgUpPwxKaWNSm3RQP7+3qUmri0BepWY6F0SRp9SA31LdPTjb07g+4ksbAaW+jCgxIOkUheBXI/Csv0YWroHY6d8hDue/BiTaw5g5lYvtn8MfCJLJJKiEqRM+kUkpUp8lADBK51pBtwwww7CVxZwk/YI6S/RmNZloKZ1vg3g2M0G8Cm040Esa9RJzGGoJZFaTlJm8J8fbsOFQ8F6vOn+CBsOvIhn31qGiS/9Hb/dWoGfrRmPUQvvQdaMn6DvX0fh8kfy8J3pGfjmo+n4xpMZ+NY/svDdf+fgytmDcB2h1Zse4XVUL1bPI+o9bxg95euPFY/1mjsYvea0r67j37g2Jg3BtXOup4ZRQ/laxGNK8n7hEfWszsJ1PK/fP8dhwCMbkUhvN3ESkEgPOJHV7cRSviaAE4sNbjVuCaSisNIAAmxAqZcinNqg/jy3X0zyUM6YlEAlxqB+RR5cNzGAnuND6DUhgD6TfOgn4R8nOzCwqJGQrkN66SFkle5HWtFeFFTsxW9m7seUdfX4+w4P5r/pwZY9XrxRF8AeZxgNPsDTMiVfjd1VNA1Do6cb1N3QdDoRCrwiF99krc70I0ynQjMMhFjbE/fCboKI3WwAn0L7FIB5TNKy8n1bPAuTidUKQNI6ufIYU77D34A3mz/AxtqXsXL3Dsx7dzWe3lmNKVv/gQfWVOKuZRPw88X34ZYF9+ImwnnsgrswZN4vkFF1C1Jn34Q0es7plGzTZvH1rJZ9KpWvRSkzb6SXPRYDZoxpVyXOHKM6CtuuG5Aw42Zub6JubJF0NorGUqORMMtS/9nSnn0Dkv4+AamPrERq2W6kFrmQWtzA/U+oPfReWdUubiKMDnO/lu87kTrZrxaKTCv2tFnJJW4kxSQX1RyTUoqb+Vs/W3JessTfLWnA8PKD9GQP4KZph/CTx2rxq78dxt3/Ooz7Z9dh0vwGVCxtwCMr6/HoqsP4+8Y6rHq7CW/U+/EJYStrUQhnIz6BpEuJABjycl9GhqnWBaZfXWaFErQyW9TgQQmm0yKDx4MBL/wBvwpeFWJ6twEcu9kAPsUm4OX/1DZISTuaSNa2Uo6w1NcidTaR7AuUTUMNUDdljKTOfcowNLUWllNz4KDvID5wfICdta9g0ydbsfL9tVj45qGLt08AAAe+SURBVDL89YVnMX7dNNy/egoeIqQfpB7g/v2rKnD/ynLct6JM6U/LSpT+SN27ogS/W9m+umtVCe6MSWW4c2UFt+XWvlIpFXm/GHeuLmrRBL4uwt1Ln8K989bh3qoPce/MWtw7e5+1X7UL9846SB3isb3UHtw7ox73PuvG72f4YtI9M7y4OyZ5KGdMuoe6tw2651kX7qbGz6nD3xbvxswVuzB79V4s3HgIq5+vx9bXmvHyBx68vzeEffUG6l0GC3UDnpCBYFgGhVlOgYDSgq/8XyQJk1KdF5Qam0nJEvAEsSmSdBr5MB0IQw8i4HfD5/cgoFtjfb/scR0+j9kAbkeTVrIGSpYJ9TNtSuex8i7kDfE0hMrBMIKEroOp2yWpW6B8pBpIRXKLEj0NuiiekBOOQBMavPXY59iHD+o+wHuH38f7LVul2vfxbu17ePeQpXcOvav0NvVa7bt4mXqlHSXfvzMmvUe9f5zkmLz3jqXDb1NvUW/y9Rt45dDrePXAx3h1vwOv7vNRXu67ufXg1b3yuuWYaE+Ax4J4ba+f8rVZr1AvxyQv5Y5Jr1Cvtkkede47vMa9tW4cqnejtsGLxiY/XK4gfL4QQkFiVsbjHinlJcG1NBBIGmoBKHS+R4gql9eUxCiJUs4N8BSZGcrP8xSZICqnSMCqI+sn8nukFmcY/Ht0EEJhaSOWifp2K3CsZgO4HU1W2PAwHUvcaQm0JmlaVtyQBQECQZPVNx3BkEYOWwBuphfiD5gSB15F75Nan0wyCkutT7yQljxkW8Qi9YsWKijoiCJ3SY5LaSaKnCMUiXSItofkuyN/sz0kkJRBX9YVRa7qqMkrWeNQxuXKUgMCxwBMCXwdmWskCVP1TUgi8/Aj0q4rHWtefsZDb9ZD55dA5a2UFgcVLVDSobyWr2/1B2V8hE4A62GZZizXb1ssZgO4HU0SsDVqx6rGGazeSZAoF1NxM1NzM8nqCUsvswxdM6Gz2ufXwvCx6hdgHgnxXH7siKRGGEFMJLtLjfHIAdmKExJRJIceL/lMeyva3/0snew3RxT5fnWyBPqmFCnkBsiSN9JRJNTgrmxVHaSO+ySIHFM3Mc7U+iG3QSY/I5UnuVphaoSrgmbBvyXpGJOeBaspTOJeqw+IsysJS03zlHsmb8inrW8QYEstK0TihqVZjOcZ9HYlfRoifl/rxyCvpDlC1wh6Q77PtljMBnA7mupwY2aRaFA6q3waoRsiLPxher0Gq4yUxKJQS27rTNr0hnVp9xWvgv9krIT6x4wg8SYMgxmB3yeeiNQyRTI1ml8Pjftq21r8WpE4PK3Fr1G10PaUyt+xir856vFjxP9JqcN7ouAhkJXGdZmZJZCV6rSAQFjA+2w1ANXzGN/jPeKDoHhcbT9bZsySNnzrubdVUaF8QvGy+DdCLLwDvN6gGSJkrTQTmfjLUz4t/s+Kb8L0w3soE4XFS7ZuFN+U+8l7KH0QBhOTLlClZ6yxQNPoFYeIeVnEVlZPlL8ln+av4efko5Iuee3ybGyLyWwAt6NJp4TMEpKModFD02UFAAEuAWGqKiATfgtQVOaVYwoakWwjkJGMIbmHUrTl+eIJRTKjvORZJ1PrSrHst/rmdpNkRcmgp15H/ymTTeSPKeMOPbWjx+SqCWUBjBw/ckeOv0vRJU8vNgkCY/tn+ZRtlVyDPMGI5yrXF/m9cjxyzrEmR63nEvknCI2kBJ4vH4mcxMPSjqybAl8H5eYdEwjTO+Y/pmSe1tLlJv9rLdtiMhvA7WxWumwFDYFAa0XsyOsT6Mhnjnur1e7J1Dr7fhGKHzv+F7X+lW1T7P+ifcuJFbvJpyJPNNpTjW5Hz2j9K1vZ0RMoOcOCtLUVWWF1Ip+27f9uNoBts8022zrIbADbZptttnWQ2QC2zTbbbOsgswFsm2222dZBZgPYNttss62DzAawbbbZZlsHmQ1g22yzzbYOMhvAttlmm20dZDaAbbPNNts6yGwA22abbbZ1kNkAts0222zrILMBbJttttnWQWYD2DbbbLOtg8wGsG222WZbB5kNYNtss822DjIbwLbZZpttHWQ2gG2zzTbbOshsANtmm222dZDZALbNNtts6yCzAWybbbbZ1kFmA9g222yzrYPMBrBtttlmWweZDWDbbLPNtg4yG8C22WabbR1kNoBts8022zrIbADbZptttnWQ2QC2zTbbbOsgswFsm2222dZBZgPYNttss62DzAawbbbZZlsHmQ1g22yzzbYOMhvAttlmm20dZDaAbbPNNts6yGwA22abbbZ1kNkAts0222zrILMBbJttttnWQWYD2DbbbLOtg8wGsG222WZbB5kNYNtss822DjIbwLbZZpttHWQ2gG2zzTbbOshsANtmm222dZDZALbNNtts6yCzAWybbbbZ1kFmA9g222yzrYPMBrBtttlmWweZDWDbbLPNtg4yG8C22WabbR1kNoBts8022zrIbADbZptttnWQ2QC2zTbbbOsgswFsm2222dZBZgPYNttss62DzAawbbbZZlsHmQ1g22yzzbYOMhvAttlmm20dZDaAbbPNNts6yGwA22abbbZ1kNkAts0222zrILMBbJttttnWQWYD2DbbbLOtg8wGsG222WZbB5kNYNtss822DjHg/wP5eA5ym7JFIgAAAABJRU5ErkJggg==;imageBackground=#6666ff;imageBorder=none;" vertex="1" parent="1">
          <mxGeometry x="-910" y="40" width="50" height="50" as="geometry" />
        </mxCell>
        <mxCell id="f_0w462XN24zRGfIKmap-22" value="" style="strokeColor=#dddddd;shadow=1;strokeWidth=1;rounded=1;absoluteArcSize=1;arcSize=2;" vertex="1" parent="1">
          <mxGeometry x="-1090" y="245" width="100" height="60" as="geometry" />
        </mxCell>
        <mxCell id="f_0w462XN24zRGfIKmap-23" value="Cloud&#xa;VPN" style="editableCssRules=.*;html=1;fontColor=#999999;shape=image;verticalLabelPosition=middle;verticalAlign=middle;labelPosition=right;align=left;spacingLeft=20;part=1;points=[];imageAspect=0;image=data:image/svg+xml,PHN2ZyB4bWxucz0iaHR0cDovL3d3dy53My5vcmcvMjAwMC9zdmciIHhtbG5zOnY9Imh0dHBzOi8vdmVjdGEuaW8vbmFubyIgd2lkdGg9IjE3Ljk1MDAwMDc2MjkzOTQ1MyIgaGVpZ2h0PSIyMCIgdmlld0JveD0iMCAwIDE3Ljk1MDAwMDc2MjkzOTQ1MyAyMCI+JiN4YTsJPHN0eWxlIHR5cGU9InRleHQvY3NzIj4mI3hhOwkuc3Qwe2ZpbGw6IzQyODVmNDt9JiN4YTsJLnN0MXtmaWxsOiM2NjlkZjY7fSYjeGE7CTwvc3R5bGU+JiN4YTsJPGcgY2xhc3M9InN0MSI+JiN4YTsJCTxwYXRoIGQ9Ik0xMS43IDkuMjhoNC4xOHYxLjM4SDExLjd6Ii8+JiN4YTsJCTxwYXRoIGQ9Ik0xNC45MiA0LjEyaDEuMzh2MTEuNzFoLTEuMzh6Ii8+JiN4YTsJPC9nPiYjeGE7CTxnIGNsYXNzPSJzdDAiPiYjeGE7CQk8cmVjdCB4PSIxMy4yNyIgeT0iMTUuMzIiIHdpZHRoPSI0LjY4IiBoZWlnaHQ9IjQuNjgiIHJ4PSIuMjgiLz4mI3hhOwkJPHJlY3QgeD0iMTMuMjciIHdpZHRoPSI0LjY4IiBoZWlnaHQ9IjQuNjgiIHJ4PSIuMjgiLz4mI3hhOwk8L2c+JiN4YTsJPHBhdGggY2xhc3M9InN0MSIgZD0iTTMuOTUgOS4yOGg0LjI4djEuMzhIMy45NXoiLz4mI3hhOwk8ZyBjbGFzcz0ic3QwIj4mI3hhOwkJPHJlY3QgeT0iNy42MyIgd2lkdGg9IjQuNjgiIGhlaWdodD0iNC42OCIgcng9Ii4yOCIvPiYjeGE7CQk8cGF0aCBkPSJNOS45NyAxMi4xN2EyLjIgMi4yIDAgMSAxIDAtNC40IDIuMiAyLjIgMCAwIDEgMi4yIDIuMiAyLjE5IDIuMTkgMCAwIDEtMi4yIDIuMnptMC0zLjU3YTEuMzggMS4zOCAwIDAgMC0xLjA1IDIuMzNBMS4zOCAxLjM4IDAgMCAwIDExLjMgMTBhMS4zNyAxLjM3IDAgMCAwLTEuMzMtMS40eiIvPiYjeGE7CTwvZz4mI3hhOzwvc3ZnPg==;" vertex="1" parent="f_0w462XN24zRGfIKmap-22">
          <mxGeometry width="27" height="30" relative="1" as="geometry">
            <mxPoint x="16" y="15" as="offset" />
          </mxGeometry>
        </mxCell>
        <mxCell id="f_0w462XN24zRGfIKmap-46" value="" style="rounded=1;whiteSpace=wrap;html=1;" vertex="1" parent="1">
          <mxGeometry x="-841.61" y="90" width="941.61" height="190" as="geometry" />
        </mxCell>
        <mxCell id="f_0w462XN24zRGfIKmap-38" value="Workflows" style="sketch=0;html=1;verticalAlign=top;labelPosition=center;verticalLabelPosition=bottom;align=center;spacingTop=-6;fontSize=11;fontStyle=1;fontColor=#999999;shape=image;aspect=fixed;imageAspect=0;image=data:image/svg+xml,PHN2ZyB4bWxucz0iaHR0cDovL3d3dy53My5vcmcvMjAwMC9zdmciIHhtbG5zOnhsaW5rPSJodHRwOi8vd3d3LnczLm9yZy8xOTk5L3hsaW5rIiB4bWxuczp2PSJodHRwczovL3ZlY3RhLmlvL25hbm8iIHdpZHRoPSIxOS41MSIgaGVpZ2h0PSIxOS41IiB2aWV3Qm94PSIwIDAgMTkuNTEgMTkuNSI+JiN4YTsJPHBhdGggZD0iTTE3LjI2IDE3LjgxaC0uN3YtMS41aC43YS43Ni43NiAwIDAgMCAuNzUtLjc1di00LjMxYS43Ni43NiAwIDAgMC0uNzUtLjc1aC0zLjYxVjloMy42MWEyLjI1IDIuMjUgMCAwIDEgMi4yNSAyLjI1djQuMzFhMi4yNSAyLjI1IDAgMCAxLTIuMjUgMi4yNXptLTcuOTUgMGgtNC45di0xLjVoNC45eiIgZmlsbD0iIzQyODVmNCIvPiYjeGE7CTxwYXRoIGZpbGw9IiM2NjlkZjYiIGZpbGwtcnVsZT0iZXZlbm9kZCIgZD0iTTUuODggMTAuNUgyLjI2QTIuMjUgMi4yNSAwIDAgMSAuMDEgOC4yNVYzLjk0YTIuMjUgMi4yNSAwIDAgMSAyLjI1LTIuMjVoMXYxLjVoLTFhLjc1Ljc1IDAgMCAwLS43NS43NXY0LjMxYS43Ni43NiAwIDAgMCAuNzUuNzVoMy42MnoiLz4mI3hhOwk8cGF0aCBmaWxsPSIjNDI4NWY0IiBkPSJNMTUuMDYgMy4xOUg5LjU4di0xLjVoNS40OHoiLz4mI3hhOwk8cGF0aCBmaWxsPSIjYWVjYmZhIiBkPSJNNi4zOSAxLjY5Vi4xOWgtM2ExLjEzIDEuMTMgMCAwIDAtMS4xMyAxLjEydjIuMjVhMS4xMyAxLjEzIDAgMCAwIDEuMTMgMS4xM2gzdi0xLjVIMy43NnYtMS41eiIvPiYjeGE7CTxwYXRoIGZpbGw9IiM2NjlkZjYiIGZpbGwtcnVsZT0iZXZlbm9kZCIgZD0iTTEwLjUxIDEuMzF2Mi4yNWExLjEzIDEuMTMgMCAwIDEtMS4xMiAxLjEzaC0zdi0xLjVoMi42MnYtMS41SDYuMzlWLjE5aDNhMS4xMiAxLjEyIDAgMCAxIDEuMTIgMS4xMnoiLz4mI3hhOwk8cGF0aCBmaWxsPSIjYWVjYmZhIiBkPSJNMTcuMDcgNC44OGEyLjQ0IDIuNDQgMCAxIDEgMi40NC0yLjQ0IDIuNDUgMi40NSAwIDAgMS0yLjQ0IDIuNDR6bTAtMy4zOGEuOTQuOTQgMCAxIDAgLjk0Ljk0Ljk0Ljk0IDAgMCAwLS45NC0uOTR6Ii8+JiN4YTsJPHVzZSB4bGluazpocmVmPSIjQiIgZmlsbD0iIzlhYTBhNiIvPiYjeGE7CTxnIGZpbGw9IiNhZWNiZmEiPiYjeGE7CQk8dXNlIHhsaW5rOmhyZWY9IiNCIi8+JiN4YTsJCTxwYXRoIGQ9Ik0xMy4xMiAxNi4zMnYtMS41aC0zQTEuMTMgMS4xMyAwIDAgMCA5IDE1Ljk1djIuMjVhMS4xMiAxLjEyIDAgMCAwIDEuMTIgMS4xMmgzdi0xLjVIMTAuNXYtMS41eiIvPiYjeGE7CTwvZz4mI3hhOwk8cGF0aCBmaWxsPSIjNjY5ZGY2IiBmaWxsLXJ1bGU9ImV2ZW5vZGQiIGQ9Ik0xNy4yNSAxNS45NXYyLjI1YTEuMTMgMS4xMyAwIDAgMS0xLjEzIDEuMTJoLTN2LTEuNWgyLjY0di0xLjVoLTIuNjR2LTEuNWgzYTEuMTQgMS4xNCAwIDAgMSAxLjEzIDEuMTN6Ii8+JiN4YTsJPHBhdGggZmlsbD0iI2FlY2JmYSIgZD0iTTkuNzYgOVY3LjVoLTNhMS4xMyAxLjEzIDAgMCAwLTEuMTMgMS4xMnYyLjI1QTEuMTMgMS4xMyAwIDAgMCA2Ljc2IDEyaDN2LTEuNUg3LjEzVjl6Ii8+JiN4YTsJPHBhdGggZmlsbD0iIzY2OWRmNiIgZmlsbC1ydWxlPSJldmVub2RkIiBkPSJNMTMuODggOC42MnYyLjI1QTEuMTMgMS4xMyAwIDAgMSAxMi43NiAxMmgtM3YtMS41aDIuNjJWOUg5Ljc2VjcuNWgzYTEuMTIgMS4xMiAwIDAgMSAxLjEyIDEuMTJ6Ii8+JiN4YTsJPGRlZnM+JiN4YTsJCTxwYXRoIGlkPSJCIiBkPSJNMi40NSAxOS41YTIuNDQgMi40NCAwIDEgMSAyLjQzLTIuNDQgMi40NCAyLjQ0IDAgMCAxLTIuNDMgMi40NHptMC0zLjM4YS45NC45NCAwIDEgMCAuOTMuOTQuOTQuOTQgMCAwIDAtLjkzLS45NHoiLz4mI3hhOwk8L2RlZnM+JiN4YTs8L3N2Zz4=;" vertex="1" parent="1">
          <mxGeometry x="-810" y="100" width="42" height="42" as="geometry" />
        </mxCell>
        <mxCell id="f_0w462XN24zRGfIKmap-47" value="Start" style="strokeWidth=2;html=1;shape=mxgraph.flowchart.start_1;whiteSpace=wrap;fillColor=#dae8fc;strokeColor=#6c8ebf;" vertex="1" parent="1">
          <mxGeometry x="-803.09" y="160" width="100" height="60" as="geometry" />
        </mxCell>
        <mxCell id="f_0w462XN24zRGfIKmap-48" value="" style="strokeColor=#dddddd;shadow=1;strokeWidth=1;rounded=1;absoluteArcSize=1;arcSize=2;" vertex="1" parent="1">
          <mxGeometry x="-978" y="152" width="130" height="60" as="geometry" />
        </mxCell>
        <mxCell id="f_0w462XN24zRGfIKmap-49" value="Cloud&#xa;Functions" style="editableCssRules=.*;html=1;fontColor=#999999;shape=image;verticalLabelPosition=middle;verticalAlign=middle;labelPosition=right;align=left;spacingLeft=20;part=1;points=[];imageAspect=0;image=data:image/svg+xml,PHN2ZyB4bWxucz0iaHR0cDovL3d3dy53My5vcmcvMjAwMC9zdmciIHhtbG5zOnY9Imh0dHBzOi8vdmVjdGEuaW8vbmFubyIgd2lkdGg9IjIwIiBoZWlnaHQ9IjE5Ljk4OTk5OTc3MTExODE2NCIgdmlld0JveD0iMCAwIDIwIDE5Ljk4OTk5OTc3MTExODE2NCI+JiN4YTsJPHN0eWxlIHR5cGU9InRleHQvY3NzIj4mI3hhOwkuc3Qwe2ZpbGw6IzQyODVmNDt9JiN4YTsJLnN0MXtmaWxsOiM2NjlkZjY7fSYjeGE7CS5zdDJ7ZmlsbDojYWVjYmZhO30mI3hhOwk8L3N0eWxlPiYjeGE7CTxwYXRoIGNsYXNzPSJzdDEiIGQ9Ik0zIDMuOTlMMCA2LjQydjcuMTNsMyAyLjQ0eiIvPiYjeGE7CTxwYXRoIGNsYXNzPSJzdDAiIGQ9Ik0zIDMuOTlsLTMgNCAzLTJ6bS0zIDhsMyA0di0yeiIvPiYjeGE7CTxwYXRoIGNsYXNzPSJzdDIiIGQ9Ik0wIDE1Ljk5bDQgNCAyLTItNi02em0uMDEtOEw1Ljk5IDJsLTItMkwwIDMuOTl6Ii8+JiN4YTsJPHBhdGggY2xhc3M9InN0MSIgZD0iTTE3IDE2bDMtMi40MlY2LjQ0TDE3IDR6Ii8+JiN4YTsJPHBhdGggY2xhc3M9InN0MCIgZD0iTTE3IDE2bDMtNC0zIDJ6bTMtOGwtMy00djJ6Ii8+JiN4YTsJPGcgY2xhc3M9InN0MiI+JiN4YTsJCTxwYXRoIGQ9Ik0yMCA0bC00LTQtMiAyIDYgNnptLS4wMSA4bC01Ljk4IDUuOTkgMiAyTDIwIDE2eiIvPiYjeGE7CQk8Y2lyY2xlIGN4PSI2IiBjeT0iOS45OSIgcj0iMSIvPiYjeGE7CQk8Y2lyY2xlIGN4PSIxMCIgY3k9IjkuOTkiIHI9IjEiLz4mI3hhOwkJPGNpcmNsZSBjeD0iMTMuOTkiIGN5PSI5Ljk5IiByPSIxIi8+JiN4YTsJPC9nPiYjeGE7PC9zdmc+;" vertex="1" parent="f_0w462XN24zRGfIKmap-48">
          <mxGeometry width="30" height="24" relative="1" as="geometry">
            <mxPoint x="15" y="18" as="offset" />
          </mxGeometry>
        </mxCell>
        <mxCell id="f_0w462XN24zRGfIKmap-50" value="" style="strokeColor=#dddddd;shadow=1;strokeWidth=1;rounded=1;absoluteArcSize=1;arcSize=2;" vertex="1" parent="1">
          <mxGeometry x="-975" y="245" width="120" height="60" as="geometry" />
        </mxCell>
        <mxCell id="f_0w462XN24zRGfIKmap-51" value="Cloud&#xa;Storage" style="editableCssRules=.*;html=1;fontColor=#999999;shape=image;verticalLabelPosition=middle;verticalAlign=middle;labelPosition=right;align=left;spacingLeft=20;part=1;points=[];imageAspect=0;image=data:image/svg+xml,PHN2ZyB4bWxucz0iaHR0cDovL3d3dy53My5vcmcvMjAwMC9zdmciIHhtbG5zOnY9Imh0dHBzOi8vdmVjdGEuaW8vbmFubyIgd2lkdGg9IjIwIiBoZWlnaHQ9IjE2IiB2aWV3Qm94PSIwIDAgMjAgMTYiPiYjeGE7CTxzdHlsZSB0eXBlPSJ0ZXh0L2NzcyI+JiN4YTsJLnN0MHtmaWxsOiM0Mjg1ZjQ7fSYjeGE7CS5zdDF7ZmlsbDojNjY5ZGY2O30mI3hhOwkuc3Qye2ZpbGw6I2FlY2JmYTt9JiN4YTsJLnN0M3tmaWxsOiNmZmY7fSYjeGE7CTwvc3R5bGU+JiN4YTsJPHBhdGggY2xhc3M9InN0MiIgZD0iTTAgMGgyMHY3SDB6Ii8+JiN4YTsJPHBhdGggY2xhc3M9InN0MSIgZD0iTTE4IDBoMnY3aC0yeiIvPiYjeGE7CTxwYXRoIGNsYXNzPSJzdDAiIGQ9Ik0xOCA3bDItN2gtMnoiLz4mI3hhOwk8cGF0aCBjbGFzcz0ic3QxIiBkPSJNMCAwaDJ2N0gweiIvPiYjeGE7CTxnIGNsYXNzPSJzdDMiPiYjeGE7CQk8cGF0aCBkPSJNNCAzaDZ2MUg0eiIvPiYjeGE7CQk8cmVjdCB4PSIxMyIgeT0iMiIgd2lkdGg9IjMiIGhlaWdodD0iMyIgcng9IjEuNSIvPiYjeGE7CTwvZz4mI3hhOwk8cGF0aCBjbGFzcz0ic3QyIiBkPSJNMCA5aDIwdjdIMHoiLz4mI3hhOwk8cGF0aCBjbGFzcz0ic3QxIiBkPSJNMTggOWgydjdoLTJ6Ii8+JiN4YTsJPHBhdGggY2xhc3M9InN0MCIgZD0iTTE4IDE2bDItN2gtMnoiLz4mI3hhOwk8cGF0aCBjbGFzcz0ic3QxIiBkPSJNMCA5aDJ2N0gweiIvPiYjeGE7CTxnIGNsYXNzPSJzdDMiPiYjeGE7CQk8cGF0aCBkPSJNNCAxMmg2djFINHoiLz4mI3hhOwkJPHJlY3QgeD0iMTMiIHk9IjExIiB3aWR0aD0iMyIgaGVpZ2h0PSIzIiByeD0iMS41Ii8+JiN4YTsJPC9nPiYjeGE7PC9zdmc+;" vertex="1" parent="f_0w462XN24zRGfIKmap-50">
          <mxGeometry width="30" height="24" relative="1" as="geometry">
            <mxPoint x="15" y="18" as="offset" />
          </mxGeometry>
        </mxCell>
        <mxCell id="f_0w462XN24zRGfIKmap-53" value="1" style="ellipse;whiteSpace=wrap;html=1;aspect=fixed;fillColor=#0000FF;fontColor=#FFFFFF;" vertex="1" parent="1">
          <mxGeometry x="-623" y="221" width="22" height="22" as="geometry" />
        </mxCell>
        <mxCell id="f_0w462XN24zRGfIKmap-59" value="" style="group" vertex="1" connectable="0" parent="1">
          <mxGeometry x="-680" y="161" width="130" height="60" as="geometry" />
        </mxCell>
        <mxCell id="f_0w462XN24zRGfIKmap-55" value="" style="strokeColor=#dddddd;shadow=1;strokeWidth=1;rounded=1;absoluteArcSize=1;arcSize=2;" vertex="1" parent="f_0w462XN24zRGfIKmap-59">
          <mxGeometry width="130" height="60" as="geometry" />
        </mxCell>
        <mxCell id="f_0w462XN24zRGfIKmap-57" value="&lt;font color=&quot;#999999&quot; style=&quot;font-family: Helvetica; font-size: 12px; font-style: normal; font-variant-ligatures: normal; font-variant-caps: normal; font-weight: 400; letter-spacing: normal; orphans: 2; text-align: center; text-indent: 0px; text-transform: none; widows: 2; word-spacing: 0px; -webkit-text-stroke-width: 0px; white-space: normal; background-color: rgb(251, 251, 251); text-decoration-thickness: initial; text-decoration-style: initial; text-decoration-color: initial;&quot;&gt;&lt;span style=&quot;text-wrap: nowrap;&quot;&gt;Cloud&amp;nbsp;&lt;/span&gt;&lt;/font&gt;&lt;span style=&quot;text-wrap: nowrap; color: rgb(153, 153, 153); text-align: center;&quot;&gt;Batch&lt;/span&gt;&lt;div&gt;&lt;span style=&quot;text-wrap: nowrap; color: rgb(153, 153, 153); text-align: center;&quot;&gt;&lt;br&gt;&lt;/span&gt;&lt;/div&gt;&lt;div&gt;&lt;span style=&quot;text-wrap: nowrap; color: rgb(153, 153, 153); text-align: center;&quot;&gt;&lt;b&gt;Reconciliation&lt;/b&gt;&lt;/span&gt;&lt;/div&gt;" style="text;whiteSpace=wrap;html=1;" vertex="1" parent="f_0w462XN24zRGfIKmap-59">
          <mxGeometry x="44" y="5" width="79" height="50" as="geometry" />
        </mxCell>
        <mxCell id="f_0w462XN24zRGfIKmap-58" value="" style="shape=image;verticalLabelPosition=bottom;labelBackgroundColor=default;verticalAlign=top;aspect=fixed;imageAspect=0;image=data:image/png,iVBORw0KGgoAAAANSUhEUgAAAOMAAADkCAYAAABqi5P0AAAAAXNSR0IArs4c6QAAAARnQU1BAACxjwv8YQUAAAAJcEhZcwAAFxEAABcRAcom8z8AACUXSURBVHhe7Z0JmFxVlYCJuAM6gIwDDC4j4xJHcYxgwCT1luqm0ZjRD1rHZVwAcflwQWQwMEMl9e57VZ0FDbJMUCQyohBHFIm7glFGB0EMGEHBSBQSsnZXva2qu5OuOefe06GTvHRXv1tVXd11/u87XyfdVffed+8575577nYYwzAMwzAMwzAMwzAMwzAMwzAMwzAMwzAMwzAMwzAMwzAMwzAMwzAMwzAMwzAMwzAMwzAMwzAMwzAMwzAMwzAMwzAMwzAMwzAMwzAMwzAMwzAMwzAMwzAMwzAMwzAMwzAMwzAMwzAMwzAMwzAMwzAMwzAMwzAMwzAMwzAMwzAMwzAMwzAM0yxm52rPnJOrPZf+2x70rj2c/tUWYP1gPdF/GaYZ1GaZTvkzphtc1+P6x9Evp5TufHiK3TdcMOEn/WpKWbjCfwHU0XWmKF+C9UW/ZpjGAkr2Qbs4WO5eWauZbviFhbktU9pDWmLXiaYIf9RzFZQHfloroxPpT1PCOStHnmN54VVYP3Zh0Mf6oj8xTOOwhP92qzC4vWv5CChaFWXEcMte79ralLiIGeiBLBF8Mwvlsby4huWCHvs2/D19pKX0rl17OOQvsF7AEGV5sL4M4Z9NH2EYfTJOkLW9+Imu5bWa5YZS7L6hmlUcHDTc8N/pYy2jN1c7EhT/xmzfnhqUS5UHfmaLw2iQN/ZeXTuSPtoysB6sYnVQ1gvVkawvL96C9UcfY5j0gJKfDor1p7GGOCrZvr2obJHlRR+hjzcdDIyYXvx526vIHnpseWSPDb+Hf69qZQDFcqMPW14lwpfD2PKgyB4S6s9Y6r+JPs4wkweDIuAKbsguA6M7QMlGhf5WMpzgPfS1ppHL1Z5mOUEexqt7ssWneqCxgr/Hv4OB5PHz9NWmgc9tibA0fh2hQQYb2iXIxEwzepZVXgaK9IvsMnzbK1fwUCI/40VbDRH9C3294UhDdIOLIR/ogYYTyzEq9PcYI7/NHNOa+WgRPreqo+SyKAEXGj8jwru7vcrJ9HWGmZhsLjrBdoPvyd5HuX0TiuwZCvGjYDAmJdNIZlmOf55dqOyWrnFC/gcKfg4/bwn/fPy+SqZx4HNC7/voxIZIgmNaHE+K4PtYv5QMwxwa2xs51hT+LXZxEJU5WbEOITRmejCTi95AyTUEW/hnw3hwC42/6hYV+R3cgt+npBoC9IhzTC96YDzXNEmwPrFe4QVxayY3NVFfZprQk9v1PFME/4WheZQkhRpXvKjWBQoKafzSzJdfQclqYRYCK1sc3NS9AgNIwcF5jitBDb+H3884pYZENG2v+nJ8PnxOfN7kfA8tsm7BIA2nvDp7af/zKVmGeYpMrvZsUF4PXNNh+xDBkboEDVL2YP4Pup34JEo+FfbS0qng3j3UhYYoJmuIJPA9+X0vehjTo6RTgc+DbqZ8vhSGOCpYv7KenXIR652SZxgAgyPCvzTbNxyr4EdKxSfB6QWpsOCOzVucbtncgqL/KtMNfqN6xOR8JiNokJDe/fCSmE1ZTIp5i7ceh8+Diwxo+kRDAhlkArc+xnpvRdSXmSaYIrrA7hsK1JhPzxBHRa5CWbYHDeCL8Paf1CT8mYXKSyCN9WpuM30PtL9gj12r2SL4OaZPWdUFlh96xOvRNU3lvicKGuQeXDwRWKLUsnlapo3JesG7QDn8yQYj6hEcG0EPsNcW4Yo5q2vPoCzH5fTlwd+C4axT0yXjT6lMWjCiKdON1mE+lOW4zLngvmdg+bN9Q3u13PdDiKr3IMB2oCyZTiSTDxeCYu5IWjnSKMHpEbtQ2WuJMDfRnN+ivpGjMJIrp1QmGcmtWyBdTN/0wq9jwIqyTgTLa7j+FVh+Waak9Bogsv69eIclym+lrJlOIuvGGTDEzTRB3lTJYjjfjYbAZb0ol8sljo8yue1HGm6wWob/D1jm1miRy+bQ2EV0PeZLRdifWm2WmS9fhOVW5U9Oq1FC7bAZ24VKwHQCZr40B5TsIfVGbtSYbHyR82teFFiufx4VYx9y65Hwl0PvAK5g8xUfRZUHemzXX5a0FcwW5XOxvK0qD7aDNEgveigjSg2dp2XalIzrvxLGKPfK4EGLDHFU5I4GdMdc/xwqzmE4lgTXdHG2UK3grouk7zVLMD/M1xCly8eOaS134Bx4We0cuwOjFYLtoYYMwb0Zt/pKKg4zEzGdysugB/qpjAo2OjhSp5CyPZ51AxvLZDj+h+3CYFm5aY2J5NYvaooB88dyYHm6nMCCOnpclTPpO80VbBe1cMK/E9sLy8TMMHBXvCXCb2L0TmtMBm9vPUOGtz9OeYjwQXATHSjTDrmaJbUhQu8uy5O2lw+k8mM5bBG4psBlbmiIrfUaxgqOZ2WUFdorU9z199SEzEygO1c6BhTtS9I1lYaYTvHHGqHWxDcatHohjOj2iKMBHxmQ0TBICqCocrXYfU8SLIfsnb3oBmw/akpmOoPBCeiFVkLD7lHBiJSGiG9rGEPh2TdWIfokpFkaVeB0ggapM31By+5EuNFwynn8qZbhpTckPYNutAQ0T7tnDzzbyoXtdiIfMzkyudrTLTlPVtU2xC65Qbby1dEzZvD0M/jbUDPn3w4takG67UXb4N/n4Hwg/gR5UpWzXQxKV5RBgoBB+hPO0zJtS22WJcqfAoUd1jEYuc4UFVxE383knlpGdvLHH3kWjK9cMNThxi0Rq09UcCUoW3m5V3EftgjPtURQVn9P/u50FGw/bEd4tk/x8Y/TEOi5zrXcONTbgYGnrskdE3eb+eDVlPQ+Fl2y8yj43DU4KU5jwKYLvViqphtdRMXYDyjnRTDOqkxNj908wXa03SjCFw49KjMdsAvR2WBIu7XGdB66giMYYn/QLERzKOmDyKyovcDywpuxN9IbA04sFFzZazrBEso+ERhj5fBzrXpBtEpkexYqu8bO0zJtjOmE3aYbbqn3eIpkUdMPoNSbDDee8FQzcGFPhN7zu2p7UXPmLzFd6a65pc/1TnDyWw+40JbjXynHW00qz1SJatd4i+lVuulxmXYk6/jzDDf4k14QI6rZ+Ab24q3ZYuVMSnpCMvu2PaFBNjaAIg1RzkX6Nyzq23kUZTkuuOYUPy/nVWeUQSqPBdsZnm8+PS7TTpgFXG8a/FYdnKsR3pdjrWjAKsS9lHTddK+ovhK+dx9tUzoo7VQChkTj1rXzri0dTVnVxdyVfz3GEOGtujvz205wCAF1Yjr+A9ju9LhMO5DJ4XrTaD2+MXV6AQp6VCx1oloq5EvBi3+nplKS86lb4FnkTn8vXpfJpVuJMv/KkeNhLHt717LhkcQ8pqlgO5MHtH5B3n8VPS4zlXSviE+CMeJ38KDc9IYYyEXcdiEest3yRbrhc9MtF1UARcM9pB4RXN6fm307tQ63yojyByyv4mdbPAXTbFHuO94xEt2BekCPy0wFtlc+FnoxGcms93zTgyWQPSK4loMYpczcVXs6JZ+KBWLg7ZZbeVyrZyQ3DN7693ePE8mtBzxW0fYq92T7ZlbPuE+g3WX7i/BmPv5xiui6+MkjYBx1rYww6hviHhh/fK7r4pEjKPlUGEsD2/aqm9XC76T86hAwRHmzlAgfNTQ32uKxiqCsdJZOQl4zRLD95RAD9GHhal4211Jm5zY+Eyq+YBfl1WyJDVSP4HfxrWo4/lewl6XkUwHu5Kmg+A/pKj4Gf0w32Grnw4WUdCqyfdEJ4DX8UB7TOGOWxx1asC1RH3CIwLcmtxAzX1oMlT+ks7oGJ+jldIHj347zhJR0KizXny0juZqKrzbzRv22G7ybkk4FvlhMEXxDjjk7wBBHRa7SKVaGUT+oKphmAm7cR8AQo+yy9Ktr5MAfekRQ2J/NdwZeSkmnAjfAmk75btkjakwfyDGmF0em63+Ukk6FdN/d4AY1vTKzJvzrEVylg/phiOhjVCVMM7Dx+jEvLqmQdnJjTCg4JpMD/ug+y62mOtB3FHQFDVx5g+XRMUS5zC3eY4vSYp0DfXGXCo59s+SyJeXVCSL1w6uUUF+oaphGknEH3mZ60XYtQwSR6xu98GGrWDqNkk7F3FzpGFP4X5dTIqkDSMoQ1ZrWyOuFsTAlnwoYay6Bl8Ih727sJEE9Mb1wh9UXvY2qh2kEhluxoYI3qyVhyZVfj+D3oYH+ipfJUNKpmJOrPdf08IIcvWMVsfeSbpXwr+5Z9cizKPnJk8uN3t1YkS+bhLw6UUhfNvM15g0C3MnToNfY2CUXCKd3BeWbUoS7DOFrXWiKRgM9EE7q04bl5PwmEjTiruXymdb0rBoZ9zDh8anNAtf0Q5Ybl6T7nZBX50pUQ72x3Xhjlxe9kSqMSQNGKUHx71FKlt4Q5eqcQnXAdkpaY4hM7q6nm67/WegRtfYLYo+KAR94tm9ncuHfUfKpsApBL7jJT+rtUpnJgjEC8Ijc8B7dGEHHki3GL4IK/HEXGqLGMjdsCHDdAkOUtKNrluN/OFscLMkyJeZXh+AyN7wRSoR3dmlGche4QZflVTfpuu8zXrDOZdAu/Inp9L+Yqo+phy68/GX0WEWN4IgcjxWHqmbeX4zXvlHyqTCc4J1239AOFUBKf6yidJfd4F6zePDJAZPBALfL9OLfq0UG6U+X6xRBPZLnsTrl26C+XkjVyIxH9tLa86GybsDr1HSCI7go2i5W9lpOsEz3Qs4FS8tn2YWhx9WkfnJ+9Qj1YA/pjl8sdxcuMrhXtzydJnKcLjeNB1/OFmt8a/J4ZHKPPRt6xCuzy4b3qstW0p/mhhVviOB6vNmJkk8FbliGcmzWXuam3O3HTC/U2qGeKQy8BOroLt1FBp0puBZ5EF6Ke/bifCzqG1Ursx/y9uAwB67lkArPp3S9cJkbGrIIb9VdbwppvN4WIbiCunObaIjRDngjT3rD8lisxcELoUy3dy3DrVXp3ffOFnVgM+qZ6URLdIcvMxIYk30aDGlQGWJSJdYhcpkbfj/6fqYYaR0LP29F9eWQ5v+pKKVGJFeVx4d/H3T71GQ4A3p4SOeraNhqkUByfiz1iWwX0DfUO6hePv5xFNxZDxUU44ndB1Za3YLL3HBM5kV3m/my1mbcHjBk04t+IhtMY30nGo7pxlU8v5WSTsXclSPPMd3gOrUBunOXuTVaSN9i0/U/RFXd2WTd+B1gQLv1lnDRmShu+KAlBl5PSacCTww3nfK35A4ADUO0ixjJHRyynPAKSjoVOK4xXH8ZlqUhR3mw7CdK76J+1EOq8s7E9sIeeONvkaexJVRUvULBlT9jsIWSTsW8Qu1oKM8aPCFcpwfC76LhmCJcgYu3KflJg98FQ7wMDHGIDbF5gvqHx3taxfAsqvrOwljqv8kS4aNyq09CBdUr8mjEQuUJ7ShlbvuRGGEDpde6PXh0e5Ylouu7btI8OcCLPpb1KoGKLCfnx9IYkXqoTleY8JzcGUWXCF9nOsFvdbceyTFiobrT0jxhGndLQBpXwJisqgIuKadU4Fnw5WAI/9a5uRGta8ygh343np6typOcH0sDRcYcZNttsPMD/0zNMLPB4IolAnUui1ZwBDeRVnzDGdCKUqoLcqILIb1A9dIaq2tw3Cp87UhuJl9eCMa4VessHZbJC+ij1EvQT7OvqhUEbHu6L999Ejz07fjAOuF5edyGFw0aXvnTuH2Ikk8FjOveZxUHS2p1TEpDxB5Rzf2tz7i+1l304CovgDQfVeNgntRvtaBeqpdqcAfqKzXLzKJ75cgxtlu5CbcN6QRHcPwE47K9toiWzrngvmdQ8qkA1/RtkOZurR0P0jWVvfz99tLoVEo6FfPFwOshHXWWjob7zqInqJ9ST0FfdReOtB1dy/FclvAaufBbK0qJ602re8GIVsHYTC844lZs0w2fkMGWhLzqEhojgpv7aHbpgE1Jp2JebsfLIb272RDbQ1BP1bx1OHOOf8Qbk2D8U8T5HD1DxMNqMZgRrenWDI50LY3eCOn8URliWsVXA374udX0okWUdCrOyEUnQI/4A2WInXeIVLuKNEjQW1OU+ya6+av9ydWeZjj+ZfCmH9EaI+LAGt9SIrg97Z0To+DWJUhng3RNdQJIy/B0ubBkevG7KOlU4CnYhgi+Sa5uYl4sUydSb0F/DeFfPq3XsWZEcKHpRlWta7ZBQemE7Z+Zyyovo6RTkfFKJ1tu8Issjgd0DLEIPXQhjqBX/DAlnYqeVbueZ4pgDRq2TnlYmiuov+D9VDNecCE13fTCzIfvU+eypJ8nU/N20GO40X3Zot5NQ9li/4tMx/8e9rBavTS62l68B3rFSyjpVOAyN0jj87jAgHdgtL9IPfaiMuo1NeH0AKOUphPs0I5SygF09PCZYlBrvSmeHAA99Fe1A0hgNNKQReDoLHM7rFabZThBHo2al7lNH0H9gRfodqvgv51aso0BJcs4YQ+4gn+Wx1NoRAWVaxttsp0Bg1JPxVsKpaNtz78a3mx0x336uUT4Pt7ktErr5AAcR7vBxeCeVvUWx7O0XrCDwCFT8BjqOeo7tWr7AQb0GlD2DV0rpWt5wIPUL+RGhlZe7wDa3rW1Z4Li50HpR5Rxp11do9bAgkF+RffkANsL3gnlCNQig+S8WNpZwCClfgcbzEJ4CjVr+9Hj+sdZXvhNDNHrjcvgu144bDn+ZTrH3StjjMAYcelcA4yxEK3pvbp2JCWfCnlblRs+os6v4fnE6Saom2oKCvQchj/UrO0JHj9ouoGcM9MJTMgDpbw4AJfgQlw/SslPGnRTIb1rnnJTk/ObUMhNtUX4ed2zU/AeR3BT/yINPCkvlrYU1GfUa9MJf6R7zGbLsNThw7/SnTuTARev2m8u6f83SjoV0CO+0PCimxsSwJEvmCCvFcABoFd8m+XG23kx+DQR0GO5ZtUNf2Xm9Y7ZbDkZUXqDJcLfqbFRendMLsAuDG6xRPmtlHQq5KHIwv9+I6Y27EI8DG/Hz1DSqcmI8AN2sdqvVgKld6FZmi3qSBfTCX6fEUNvoOabXkDhLYw8aW8gli5v9bGuQryAkk5FNl/+RyjP3biIQHvS34tDMO4LKOl0wHgYPIiLrEIl4shq+wptPH4M9ZlabnqCF82A4j6pM/mP0o2+ugj+qLszossN/skU4QONWA4HPwegR/tXSjoVPatGngXPtRTc32He0d9+Io/k8OJtupH9tsFw+t+vuxpHhpRxDCqi+3R99qyI5kJ6jzRkobgIwYWOtFzohbnacy3hX4Xus4r6JuXH0mpBfTXdqGQ75fdTU80AarVZlhdcCA9YbcRxjFBBd+lGs6ylpS48hKghW6jAsE1nQMuFgXSOAJf1RnkqnU7Ul6UhovQ0qtpu8PG2ntxPBS4Bw5POCjG4YxoGWYjV8XrCv8NavE3rAhNI4+1Q4Q3ZXAxj0N9kRKQ1uJ+npmH+Ry4c1wgysegJ6hfqKerrzDPEUXprh1siKGSLw3vk0RkJFVGPKHeuWjOc8s3ZYr/WBSa2F77fKlTLKuqrfezGz3QPUM72RSfAC+KHmB6mm5gfS9ME9VLqpyj3Hba2djg1y8zknJUjz4Fx1rXoj+uMj9QUQ6VmCv/qjM6qGHjzQcV/wi4Ohyook3aKgca0bvBdGEOeSKmnQkV9w1+q9JLyYmmGoD7isMV0gusW5rbMjN39E4HumCH8m9WNwhqrdNCdKFaHYDzqYFSSkp80uIsbXNac3TdcldMWKQ1y9KhGeEHcMjdX0jqNAMrwWoz6YhQ5KS+WxgrqIXpHoJdf0227acd8seN40/HXofKmn/PDG4VgfNU3HOqeFIe9KxgR7i9syCHGhhOsxqAMJZ+KjBPPAyX5A/W4B+XF0hgZ3Tdruv66+SI8nqq/s8jktuPO+/V6263AIOGNBm7vgO4ZqvhGhB7yJrnhV6PHli40GrQX4UWtWsvmDBG+BTyAzSpqm5wfi4aA3qGHZorg53gSBFV7Z2IWBk+B3uReOtzp4MqqRwS4rKCs2WJ1ly38synpVMidJ0752w25+KYwOAS97X9S0qmx8uX32l51u+5KJpYDRRmi7cb3ZcTA66i6OxvL9edbhfhhtWhaZx2rNOgns8XwTEo6Fd1OfBKk81O5SEFnlQ4GA3Cuygs+QUmnAreRWaJ0IbzFA615UZYxghFw0DfQO9PRW2Y54zAK4Vugkh4ngzqg4uoXOWcowk1drq91gQke72564T1qDlKnPGA8IvRNEZ5LSadCGaR/ueWFehfKsoCgIaKexY+j3lEVM2MxHNwFH+5Wc35JlViPgOshe4/owR538LWUdCrMQmkOGNJDuuM1WR4v3m7l9S7oQfAMT3ib7+V1rOmF9Gu3pbmueMYDlXQeKG7QpbUqhq5lc4Nfdef0BuXoQquNwHpTDHK8V4j/DGXqoqRTgefv2E5wnRrT8iqdyQrqlS03rfvnU5Uy46G2FVWreG12UoXWI6NTDKbwf5TNxS+ipFNh5sM3Z4tDT+BWrqS86hNaVyvC31vF6DRKOhXZYu35oExyszSv0qlfpD6hXnnyHn+mLmq1WWCQS8CgRnQWTcuJXDVmW4vzmpR6KtClgd5opxpraKzSge/Ds/3acquzKelUWO62F0I631GLAtggJ5J9K7bcaInuzWUdh9zn55Q+h28zvTk/XOI0PGKI4Hpc+UPJpwJ6o4/YxcFyl3SBk/ObUKDHRpfXEP5PM4WBl1DSqTCd/hfbIryTDXJ8Qf1BPcKbqbWO2exkTsvJ4++/pNwxjVU6uPi3b3gYepKizppDnMAHt3cxlEXrzFNUDrniQwTfgvJp7TzBvZ3gev1SudBskAcJDldAfww3uOGMvp1ax2x2PHgcHlTqWu1lczgJXxyqQk+yuFdjNT7tzO+zvFBv2Ry4TfI8Hje6sQdeOpR8KjKiPNfyKg/KIBOPIfcJ6ouKhMdrdV96DGHnSv8AFfp9PYPEKQY5PzcILuLHKOlUzFldey68aVfL0+J0xrTFqnShwX36Ap7xSsmnIivCM6Fn3CSVjw2SDBFfTvEPUH+omphGYBeC15iu2lbUAIMMMm7wXko6FXNXjhxjuv4tckyrMcUgz4fFMY0XuBesrundxCyCXrwLQs2jda5B7jNE0BfoEbXmmplDsMArn26JcKOuOyYN0ot3mHm9S05x3yKMQ78n19VqlAd7SPj+Hkv4l+qcoI4Yjn8eGKVPL53OE2gHFfEON9qgL1QtTDOw3IoJBrlZax0rNpiMiEZ/yTgVrYt1Ml7lZHB7/1f3BUG7PCKM2FLSqbFxnhbXxHbcKh1ab+oGm6f9sYrThWy+vAgqf7ve25/m/JzgjwuWlrSOf5QRTbzwRzOiKSelvXh31gu0bkPG3hUMcgmktVdnWmi6idKHaHvWK2t5PMwkMZzgPdCTlKUCJzRMXUJjC3A1f6M7tgCX9TSrUHmYxiqpBZfNQXm22Ev1FjCreVr/c3LZXAcYpNKDqIx6QVXAtBJQto/i9c5yzJXQQHWJNEjcXBreCWOMl1PSqcg4pazlVf6iXKWEvOoRcHXltelu+IipeYL6or6dR5ki+hLuPNEJerW70Jh70NaMkjM64LYiL7wUGmJEb85PnX8CveO3dQ+Tyrg+XmizRWu8hmNa7LG96De4c4SSTsW8z5aOtt3oa9llw3sx3cT8prHQWBsk1A5+MZrgdABOC4CbAuMjNICUh0mhQcKYA1zENd0r9Q4kMoX/33IOUqc3IhcaDGm9bo9tOmG3Xaj+dWZFWANos0F0T/fCvz3daSGmQWRy24808+HVMN6iVTHpDRK/b7rhKjxyn5KfFMaS8vvBkHaoF0NyPvUKGrNcd1qI77DErlQ99hl90QnwXN+CutmjE1xqLwFDhHbKLof2hnbP5PQusGUaTM/irceBst2UXa55ByN+F4zAcIL8nAsm97bFy1Fsr/qkcnmT05+0UA8J/75lsgvd5xVqR8OL5Rb5fZ1eus0E2wjbGf791Z7F/nH0uEw78aZc/4vwuD00Bp0IolwEXqgMGvngYkp6QnBeC763STeamiTYQ8pncoMvohdAWY6L9Bbc8hfl92aUIcJwAgNu0M64a4Uel2lHcHyFx+7JRdgaSojjK3gD+1Zh4h3h3SuG5sAY8SG9zcfjizRIdMFF6Uo8dJmyToQOZV6JrtyMMkR4FmxXGNf/QncczbQIKxe81hLBBhmw0IggKoOu7LZE3EtJH4Sa8I/u725Cj3igkAuNy+ZylH0iluNfgZ/TcdfbTnDKR24UDzbAmJHXm04nup3yGZYIH1Vn4WgYpJqD3Gbmy2+mpPeBuwFkLywNsTXBEXShbS+qgHJ+ioqxH6Con4SyVHT2W7afoCHCi1WEf+paulvr1D9misg4pR51B6NeSB9vhAKD3GS4foaSPuxMER4Pir9OGnuL5+/U2T5hyT7g+MesV/4g/l69gJK/Ox2F2m8Ltic9KjMdweMRoSH79QyS1rF60QNdInwdTnsYIrqZAj0Jn2+2qAXRYIzbjEJ0dm9v7XD8Cb/fqnYszJQpDBq7Q/vBM2kfc8m0AZaofAAak658S270CQXHLMr1Ww9G8A3oFYe0xmRerFaPJP2tLsFVOtKF/p3pBkvwp9xYrGGIsjxtFPCR7SV3slQ+QE3JzARsEXzCLg7FWgYJio4GSIGUhL/XJxgVxBA9uNChbo8tFyqQ6BgilgOMOpLP1wYGie2E7WWJcuLYmJnGoCuHUUa7b3hQjanSH7eoNUYERce5PzyMCu/gAMXfqRYJ6JQHjSdtmdQtXlgO+Pcn4QVxm7zSYMoMEq/5G0YvZMhywiuw3agJmZkE3ppsOP6V2eKg1sLy9KIWgFvCv8taqRakg2F/xC4MllUPmdYg04pSfOiByqbrf1SWR0Qn2sK/s5UR4rEil7lB++D2L2wvLBMzQ6HTuL+srmxr7TycUvDgXrMYvJqKg4dbPQN67MuyxWpF3Zqc/N1mCI6BMV/TKf0HloOKdBiWD/7+azq+omWC7YFlghfDjZncwN9QcZiZDN7BaDoBuGNgkC1yx6Qr6lU2Qn4HncuCPYDtBsvxQptW9dgyn0JlL+a7cPXBi+KzIpoLrupG5UInp9FIwXbAlxGMW2/D9qFiMJ2AuTx+sSXCn0j3sMkGqQwxeswolg55byReY26J4Pp9AaKEdBolKo9KzXSiL2K+VISDyHilHnBVH2u6QaIhynG8/1PTiXm9aSdi5fzZ8Ca+R+7Mb9LEvbxNy4u3Qz7voGwPSc+qXc8zhH9rU+cvIV1M3/Awn/7nU9aHxMwH78Dya90KNp5AvWPaeBemmd+9z31nOhB5do0bbVRHXTTWIOXbXoS+4YbnUXYTghfa2CL6rppja3CPjT0QThm4wfdg7Fr3CdtYfnyOxq/sUUeMmF70e2wHyo7pZEAxTcsLNzdy+5O8TqAQV6BHvIiyqZuu5QMvtb2wwWteKZLrhr/A9CmrugEX+lP4PI0MMmF5TNf/q1ngYxWZMRgifIvtxdsaYZAyPF+oDhuufwUlP2lg/DQbDOB+dcNUcj6TEbW9K/gt7jKhLCYNPk+2UBluRJBJ1jO4v5l8eSElzzBPkZF3MA5qXWNuexSe98IVY6cL0mCJ0mmgsA9LQxIp5yDhe/h924v+gOlR0qnA58HnwufD50zMrw7B+sV6Nt3SuylphjmYDN7BWKimWqYmw/OgaDJKWeeO/Ikw3MAG5d+k9ktO1iCDGn4Pv2+5Ja3ry0eRJwg4QeoTBOR0UqHSkJPTmZlOLvc0Q/iX2l5laFLuGEYFl8lLUG+1vfKxlFpDwJ0nUJYtaiF4Qt6HEPw8fG8rfp+Saginek8cK8/WgeedTBQa6xPrNeOUPsvHKjJ1MRuPrXADD6OPdR2QjIaIPVehsm6+s/skSqaB1GZBT3I+KHK/XDeaVIYDRB1cXOk3Xf9D+H1KqGHMd+KT4HnvUGO/iQ0S61H2pKJcwPqlZBhmYt67fOQIMMhr5Nt8vDk/UDBUSBiTrc8W/VfR1xsOXvBqivIlkF80kQutFjJEMX5e52LYicjmd70KDPJnFIxJLAuK3FWCXoYIru3lYxWZNMxz/eMsEd6M82uJBjnaI7rxb3WDI/WArh0otAMu4h4MohxUHhAZPIK/m24genvXNn3HgwwyufH9h+ohsd5ofvJrmRW1F9DXGGbyzF8Rn2S60TpcNL1fwAINEX5nuMGfMMhCH2866OIZXngVuKCg6Pu70HKZG17cCn9vpSuI84RYD3Jh+RiDxPqikwfWnc7HKjKN4Mx8+RW2oEl4Mkh5ZKDwt1kieit9rGX0Xl07Enq+NbLHHn1BwE/lvgZrFvWNHEUfbRkwFnwr5L1VLi2k8sj6EsHdWH/0MYbRxyyEp5hO+ABGEMntGgCDmLJ5MnShIf/bsvSCQMXHDcv4e/pIyzG9+F3QC/Zj/cjyQH1lRPg6+jPDNI6MKM8FZdtkeRUYk5XkZtypBDcCmyL88VlXYQ8U/rinGP09/WnKwPlDGCcOg7v6Z6wv+jXDNB7bC3tA8c9vZpRyMuBpdeAaFvEn/WpKwXoBrwEXlp9Fv2KYDqIFUVOGYRiGYRiGYRiGYRiGYRiGYRiGYRiGYRiGYRiGYRiGYRiGYRiGYRiGYRiGYRiGYRiGYRiGYRiGYRiGYRiGYRiGYRiGYRiGYRiGYRiGYRiGYRiGYRiGYRiGYRiGYRiGYRiGYRiGYRiGYRiGYRiGYRiGYRiGYRiGYRiGYRiGYRiGYRiGYRimfTjssP8Hhdy+xTsMXAsAAAAASUVORK5CYII=;" vertex="1" parent="f_0w462XN24zRGfIKmap-59">
          <mxGeometry x="9.002307692307795" y="4.996666666666698" width="39.82" height="40" as="geometry" />
        </mxCell>
        <mxCell id="f_0w462XN24zRGfIKmap-61" value="" style="shape=mxgraph.gcp2.doubleRect;strokeColor=#dddddd;shadow=1;strokeWidth=1;rounded=1;absoluteArcSize=1;arcSize=2;container=0;" vertex="1" parent="1">
          <mxGeometry x="-411" y="368" width="138" height="68" as="geometry" />
        </mxCell>
        <mxCell id="f_0w462XN24zRGfIKmap-62" value="&lt;font color=&quot;#000000&quot;&gt;&lt;b&gt;Discrepancies&lt;/b&gt;&lt;/font&gt;&lt;br&gt;Cloud Run" style="editableCssRules=.*;html=1;fontColor=#999999;shape=image;verticalLabelPosition=middle;verticalAlign=middle;labelPosition=right;align=center;spacingLeft=20;part=1;points=[];imageAspect=0;image=data:image/svg+xml,PHN2ZyB4bWxucz0iaHR0cDovL3d3dy53My5vcmcvMjAwMC9zdmciIHhtbG5zOnY9Imh0dHBzOi8vdmVjdGEuaW8vbmFubyIgd2lkdGg9IjM2NS40NjQ5OTY3NzA0MjQ5MyIgaGVpZ2h0PSIzNzkuMjIyOTk0NDYzNTc3OTUiIHZpZXdCb3g9IjAgMCA5Ni42OTU5OTkxNDU1MDc4MSAxMDAuMzM1OTk4NTM1MTU2MjUiPiYjeGE7PHN0eWxlIHR5cGU9InRleHQvY3NzIj4mI3hhOwkuc3Qwe2ZpbGw6IzQyODVmNDt9JiN4YTsJLnN0MXtmaWxsOiNhZWNiZmE7fSYjeGE7PC9zdHlsZT4mI3hhOwk8cGF0aCBjbGFzcz0ic3QwIiBkPSJNMjkuNzk0IDEwMC4zMzZMNDYuOTIgNTAuMTY4aDQ5Ljc3NnpNMCA5OS42NzFsMTIuOTc2LTQ5LjUwMkgyOS4yMkwxNi44OTcgOTIuMDU0eiIvPiYjeGE7CTxwYXRoIGNsYXNzPSJzdDEiIGQ9Ik0yOS43OTQgMEw0Ni45MiA1MC4xNjhoNDkuNzc2ek0wIC42NjZsMTIuOTc2IDQ5LjUwMkgyOS4yMkwxNi44OTcgOC4yODN6Ii8+JiN4YTs8L3N2Zz4=;" vertex="1" parent="1">
          <mxGeometry x="-396" y="383" width="30" height="30" as="geometry">
            <mxPoint x="15" y="15" as="offset" />
          </mxGeometry>
        </mxCell>
        <mxCell id="f_0w462XN24zRGfIKmap-63" value="2" style="ellipse;whiteSpace=wrap;html=1;aspect=fixed;fillColor=#0000FF;fontColor=#FFFFFF;" vertex="1" parent="1">
          <mxGeometry x="-469" y="221" width="22" height="22" as="geometry" />
        </mxCell>
        <mxCell id="f_0w462XN24zRGfIKmap-64" value="" style="group" vertex="1" connectable="0" parent="1">
          <mxGeometry x="-526" y="161" width="130" height="60" as="geometry" />
        </mxCell>
        <mxCell id="f_0w462XN24zRGfIKmap-65" value="" style="strokeColor=#dddddd;shadow=1;strokeWidth=1;rounded=1;absoluteArcSize=1;arcSize=2;" vertex="1" parent="f_0w462XN24zRGfIKmap-64">
          <mxGeometry width="130" height="60" as="geometry" />
        </mxCell>
        <mxCell id="f_0w462XN24zRGfIKmap-66" value="&lt;font color=&quot;#999999&quot; style=&quot;font-family: Helvetica; font-size: 12px; font-style: normal; font-variant-ligatures: normal; font-variant-caps: normal; font-weight: 400; letter-spacing: normal; orphans: 2; text-align: center; text-indent: 0px; text-transform: none; widows: 2; word-spacing: 0px; -webkit-text-stroke-width: 0px; white-space: normal; background-color: rgb(251, 251, 251); text-decoration-thickness: initial; text-decoration-style: initial; text-decoration-color: initial;&quot;&gt;&lt;span style=&quot;text-wrap: nowrap;&quot;&gt;Cloud&amp;nbsp;&lt;/span&gt;&lt;/font&gt;&lt;span style=&quot;text-wrap: nowrap; color: rgb(153, 153, 153); text-align: center;&quot;&gt;Batch&lt;/span&gt;&lt;div&gt;&lt;span style=&quot;text-wrap: nowrap; color: rgb(153, 153, 153); text-align: center;&quot;&gt;&lt;br&gt;&lt;/span&gt;&lt;/div&gt;&lt;div style=&quot;text-align: center;&quot;&gt;&lt;font color=&quot;#999999&quot;&gt;&lt;span style=&quot;text-wrap: nowrap;&quot;&gt;&lt;b&gt;RN Validation&lt;/b&gt;&lt;/span&gt;&lt;/font&gt;&lt;/div&gt;" style="text;whiteSpace=wrap;html=1;" vertex="1" parent="f_0w462XN24zRGfIKmap-64">
          <mxGeometry x="44" y="5" width="79" height="50" as="geometry" />
        </mxCell>
        <mxCell id="f_0w462XN24zRGfIKmap-67" value="" style="shape=image;verticalLabelPosition=bottom;labelBackgroundColor=default;verticalAlign=top;aspect=fixed;imageAspect=0;image=data:image/png,iVBORw0KGgoAAAANSUhEUgAAAOMAAADkCAYAAABqi5P0AAAAAXNSR0IArs4c6QAAAARnQU1BAACxjwv8YQUAAAAJcEhZcwAAFxEAABcRAcom8z8AACUXSURBVHhe7Z0JmFxVlYCJuAM6gIwDDC4j4xJHcYxgwCT1luqm0ZjRD1rHZVwAcflwQWQwMEMl9e57VZ0FDbJMUCQyohBHFIm7glFGB0EMGEHBSBQSsnZXva2qu5OuOefe06GTvHRXv1tVXd11/u87XyfdVffed+8575577nYYwzAMwzAMwzAMwzAMwzAMwzAMwzAMwzAMwzAMwzAMwzAMwzAMwzAMwzAMwzAMwzAMwzAMwzAMwzAMwzAMwzAMwzAMwzAMwzAMwzAMwzAMwzAMwzAMwzAMwzAMwzAMwzAMwzAMwzAMwzAMwzAMwzAMwzAMwzAMwzAMwzAMwzAMwzAMwzAM0yxm52rPnJOrPZf+2x70rj2c/tUWYP1gPdF/GaYZ1GaZTvkzphtc1+P6x9Evp5TufHiK3TdcMOEn/WpKWbjCfwHU0XWmKF+C9UW/ZpjGAkr2Qbs4WO5eWauZbviFhbktU9pDWmLXiaYIf9RzFZQHfloroxPpT1PCOStHnmN54VVYP3Zh0Mf6oj8xTOOwhP92qzC4vWv5CChaFWXEcMte79ralLiIGeiBLBF8Mwvlsby4huWCHvs2/D19pKX0rl17OOQvsF7AEGV5sL4M4Z9NH2EYfTJOkLW9+Imu5bWa5YZS7L6hmlUcHDTc8N/pYy2jN1c7EhT/xmzfnhqUS5UHfmaLw2iQN/ZeXTuSPtoysB6sYnVQ1gvVkawvL96C9UcfY5j0gJKfDor1p7GGOCrZvr2obJHlRR+hjzcdDIyYXvx526vIHnpseWSPDb+Hf69qZQDFcqMPW14lwpfD2PKgyB4S6s9Y6r+JPs4wkweDIuAKbsguA6M7QMlGhf5WMpzgPfS1ppHL1Z5mOUEexqt7ssWneqCxgr/Hv4OB5PHz9NWmgc9tibA0fh2hQQYb2iXIxEwzepZVXgaK9IvsMnzbK1fwUCI/40VbDRH9C3294UhDdIOLIR/ogYYTyzEq9PcYI7/NHNOa+WgRPreqo+SyKAEXGj8jwru7vcrJ9HWGmZhsLjrBdoPvyd5HuX0TiuwZCvGjYDAmJdNIZlmOf55dqOyWrnFC/gcKfg4/bwn/fPy+SqZx4HNC7/voxIZIgmNaHE+K4PtYv5QMwxwa2xs51hT+LXZxEJU5WbEOITRmejCTi95AyTUEW/hnw3hwC42/6hYV+R3cgt+npBoC9IhzTC96YDzXNEmwPrFe4QVxayY3NVFfZprQk9v1PFME/4WheZQkhRpXvKjWBQoKafzSzJdfQclqYRYCK1sc3NS9AgNIwcF5jitBDb+H3884pYZENG2v+nJ8PnxOfN7kfA8tsm7BIA2nvDp7af/zKVmGeYpMrvZsUF4PXNNh+xDBkboEDVL2YP4Pup34JEo+FfbS0qng3j3UhYYoJmuIJPA9+X0vehjTo6RTgc+DbqZ8vhSGOCpYv7KenXIR652SZxgAgyPCvzTbNxyr4EdKxSfB6QWpsOCOzVucbtncgqL/KtMNfqN6xOR8JiNokJDe/fCSmE1ZTIp5i7ceh8+Diwxo+kRDAhlkArc+xnpvRdSXmSaYIrrA7hsK1JhPzxBHRa5CWbYHDeCL8Paf1CT8mYXKSyCN9WpuM30PtL9gj12r2SL4OaZPWdUFlh96xOvRNU3lvicKGuQeXDwRWKLUsnlapo3JesG7QDn8yQYj6hEcG0EPsNcW4Yo5q2vPoCzH5fTlwd+C4axT0yXjT6lMWjCiKdON1mE+lOW4zLngvmdg+bN9Q3u13PdDiKr3IMB2oCyZTiSTDxeCYu5IWjnSKMHpEbtQ2WuJMDfRnN+ivpGjMJIrp1QmGcmtWyBdTN/0wq9jwIqyTgTLa7j+FVh+Waak9Bogsv69eIclym+lrJlOIuvGGTDEzTRB3lTJYjjfjYbAZb0ol8sljo8yue1HGm6wWob/D1jm1miRy+bQ2EV0PeZLRdifWm2WmS9fhOVW5U9Oq1FC7bAZ24VKwHQCZr40B5TsIfVGbtSYbHyR82teFFiufx4VYx9y65Hwl0PvAK5g8xUfRZUHemzXX5a0FcwW5XOxvK0qD7aDNEgveigjSg2dp2XalIzrvxLGKPfK4EGLDHFU5I4GdMdc/xwqzmE4lgTXdHG2UK3grouk7zVLMD/M1xCly8eOaS134Bx4We0cuwOjFYLtoYYMwb0Zt/pKKg4zEzGdysugB/qpjAo2OjhSp5CyPZ51AxvLZDj+h+3CYFm5aY2J5NYvaooB88dyYHm6nMCCOnpclTPpO80VbBe1cMK/E9sLy8TMMHBXvCXCb2L0TmtMBm9vPUOGtz9OeYjwQXATHSjTDrmaJbUhQu8uy5O2lw+k8mM5bBG4psBlbmiIrfUaxgqOZ2WUFdorU9z199SEzEygO1c6BhTtS9I1lYaYTvHHGqHWxDcatHohjOj2iKMBHxmQ0TBICqCocrXYfU8SLIfsnb3oBmw/akpmOoPBCeiFVkLD7lHBiJSGiG9rGEPh2TdWIfokpFkaVeB0ggapM31By+5EuNFwynn8qZbhpTckPYNutAQ0T7tnDzzbyoXtdiIfMzkyudrTLTlPVtU2xC65Qbby1dEzZvD0M/jbUDPn3w4takG67UXb4N/n4Hwg/gR5UpWzXQxKV5RBgoBB+hPO0zJtS22WJcqfAoUd1jEYuc4UFVxE383knlpGdvLHH3kWjK9cMNThxi0Rq09UcCUoW3m5V3EftgjPtURQVn9P/u50FGw/bEd4tk/x8Y/TEOi5zrXcONTbgYGnrskdE3eb+eDVlPQ+Fl2y8yj43DU4KU5jwKYLvViqphtdRMXYDyjnRTDOqkxNj908wXa03SjCFw49KjMdsAvR2WBIu7XGdB66giMYYn/QLERzKOmDyKyovcDywpuxN9IbA04sFFzZazrBEso+ERhj5fBzrXpBtEpkexYqu8bO0zJtjOmE3aYbbqn3eIpkUdMPoNSbDDee8FQzcGFPhN7zu2p7UXPmLzFd6a65pc/1TnDyWw+40JbjXynHW00qz1SJatd4i+lVuulxmXYk6/jzDDf4k14QI6rZ+Ab24q3ZYuVMSnpCMvu2PaFBNjaAIg1RzkX6Nyzq23kUZTkuuOYUPy/nVWeUQSqPBdsZnm8+PS7TTpgFXG8a/FYdnKsR3pdjrWjAKsS9lHTddK+ovhK+dx9tUzoo7VQChkTj1rXzri0dTVnVxdyVfz3GEOGtujvz205wCAF1Yjr+A9ju9LhMO5DJ4XrTaD2+MXV6AQp6VCx1oloq5EvBi3+nplKS86lb4FnkTn8vXpfJpVuJMv/KkeNhLHt717LhkcQ8pqlgO5MHtH5B3n8VPS4zlXSviE+CMeJ38KDc9IYYyEXcdiEest3yRbrhc9MtF1UARcM9pB4RXN6fm307tQ63yojyByyv4mdbPAXTbFHuO94xEt2BekCPy0wFtlc+FnoxGcms93zTgyWQPSK4loMYpczcVXs6JZ+KBWLg7ZZbeVyrZyQ3DN7693ePE8mtBzxW0fYq92T7ZlbPuE+g3WX7i/BmPv5xiui6+MkjYBx1rYww6hviHhh/fK7r4pEjKPlUGEsD2/aqm9XC76T86hAwRHmzlAgfNTQ32uKxiqCsdJZOQl4zRLD95RAD9GHhal4211Jm5zY+Eyq+YBfl1WyJDVSP4HfxrWo4/lewl6XkUwHu5Kmg+A/pKj4Gf0w32Grnw4WUdCqyfdEJ4DX8UB7TOGOWxx1asC1RH3CIwLcmtxAzX1oMlT+ks7oGJ+jldIHj347zhJR0KizXny0juZqKrzbzRv22G7ybkk4FvlhMEXxDjjk7wBBHRa7SKVaGUT+oKphmAm7cR8AQo+yy9Ktr5MAfekRQ2J/NdwZeSkmnAjfAmk75btkjakwfyDGmF0em63+Ukk6FdN/d4AY1vTKzJvzrEVylg/phiOhjVCVMM7Dx+jEvLqmQdnJjTCg4JpMD/ug+y62mOtB3FHQFDVx5g+XRMUS5zC3eY4vSYp0DfXGXCo59s+SyJeXVCSL1w6uUUF+oaphGknEH3mZ60XYtQwSR6xu98GGrWDqNkk7F3FzpGFP4X5dTIqkDSMoQ1ZrWyOuFsTAlnwoYay6Bl8Ih727sJEE9Mb1wh9UXvY2qh2kEhluxoYI3qyVhyZVfj+D3oYH+ipfJUNKpmJOrPdf08IIcvWMVsfeSbpXwr+5Z9cizKPnJk8uN3t1YkS+bhLw6UUhfNvM15g0C3MnToNfY2CUXCKd3BeWbUoS7DOFrXWiKRgM9EE7q04bl5PwmEjTiruXymdb0rBoZ9zDh8anNAtf0Q5Ybl6T7nZBX50pUQ72x3Xhjlxe9kSqMSQNGKUHx71FKlt4Q5eqcQnXAdkpaY4hM7q6nm67/WegRtfYLYo+KAR94tm9ncuHfUfKpsApBL7jJT+rtUpnJgjEC8Ijc8B7dGEHHki3GL4IK/HEXGqLGMjdsCHDdAkOUtKNrluN/OFscLMkyJeZXh+AyN7wRSoR3dmlGche4QZflVTfpuu8zXrDOZdAu/Inp9L+Yqo+phy68/GX0WEWN4IgcjxWHqmbeX4zXvlHyqTCc4J1239AOFUBKf6yidJfd4F6zePDJAZPBALfL9OLfq0UG6U+X6xRBPZLnsTrl26C+XkjVyIxH9tLa86GybsDr1HSCI7go2i5W9lpOsEz3Qs4FS8tn2YWhx9WkfnJ+9Qj1YA/pjl8sdxcuMrhXtzydJnKcLjeNB1/OFmt8a/J4ZHKPPRt6xCuzy4b3qstW0p/mhhVviOB6vNmJkk8FbliGcmzWXuam3O3HTC/U2qGeKQy8BOroLt1FBp0puBZ5EF6Ke/bifCzqG1Ursx/y9uAwB67lkArPp3S9cJkbGrIIb9VdbwppvN4WIbiCunObaIjRDngjT3rD8lisxcELoUy3dy3DrVXp3ffOFnVgM+qZ6URLdIcvMxIYk30aDGlQGWJSJdYhcpkbfj/6fqYYaR0LP29F9eWQ5v+pKKVGJFeVx4d/H3T71GQ4A3p4SOeraNhqkUByfiz1iWwX0DfUO6hePv5xFNxZDxUU44ndB1Za3YLL3HBM5kV3m/my1mbcHjBk04t+IhtMY30nGo7pxlU8v5WSTsXclSPPMd3gOrUBunOXuTVaSN9i0/U/RFXd2WTd+B1gQLv1lnDRmShu+KAlBl5PSacCTww3nfK35A4ADUO0ixjJHRyynPAKSjoVOK4xXH8ZlqUhR3mw7CdK76J+1EOq8s7E9sIeeONvkaexJVRUvULBlT9jsIWSTsW8Qu1oKM8aPCFcpwfC76LhmCJcgYu3KflJg98FQ7wMDHGIDbF5gvqHx3taxfAsqvrOwljqv8kS4aNyq09CBdUr8mjEQuUJ7ShlbvuRGGEDpde6PXh0e5Ylouu7btI8OcCLPpb1KoGKLCfnx9IYkXqoTleY8JzcGUWXCF9nOsFvdbceyTFiobrT0jxhGndLQBpXwJisqgIuKadU4Fnw5WAI/9a5uRGta8ygh343np6typOcH0sDRcYcZNttsPMD/0zNMLPB4IolAnUui1ZwBDeRVnzDGdCKUqoLcqILIb1A9dIaq2tw3Cp87UhuJl9eCMa4VessHZbJC+ij1EvQT7OvqhUEbHu6L999Ejz07fjAOuF5edyGFw0aXvnTuH2Ikk8FjOveZxUHS2p1TEpDxB5Rzf2tz7i+1l304CovgDQfVeNgntRvtaBeqpdqcAfqKzXLzKJ75cgxtlu5CbcN6QRHcPwE47K9toiWzrngvmdQ8qkA1/RtkOZurR0P0jWVvfz99tLoVEo6FfPFwOshHXWWjob7zqInqJ9ST0FfdReOtB1dy/FclvAaufBbK0qJ602re8GIVsHYTC844lZs0w2fkMGWhLzqEhojgpv7aHbpgE1Jp2JebsfLIb272RDbQ1BP1bx1OHOOf8Qbk2D8U8T5HD1DxMNqMZgRrenWDI50LY3eCOn8URliWsVXA374udX0okWUdCrOyEUnQI/4A2WInXeIVLuKNEjQW1OU+ya6+av9ydWeZjj+ZfCmH9EaI+LAGt9SIrg97Z0To+DWJUhng3RNdQJIy/B0ubBkevG7KOlU4CnYhgi+Sa5uYl4sUydSb0F/DeFfPq3XsWZEcKHpRlWta7ZBQemE7Z+Zyyovo6RTkfFKJ1tu8Issjgd0DLEIPXQhjqBX/DAlnYqeVbueZ4pgDRq2TnlYmiuov+D9VDNecCE13fTCzIfvU+eypJ8nU/N20GO40X3Zot5NQ9li/4tMx/8e9rBavTS62l68B3rFSyjpVOAyN0jj87jAgHdgtL9IPfaiMuo1NeH0AKOUphPs0I5SygF09PCZYlBrvSmeHAA99Fe1A0hgNNKQReDoLHM7rFabZThBHo2al7lNH0H9gRfodqvgv51aso0BJcs4YQ+4gn+Wx1NoRAWVaxttsp0Bg1JPxVsKpaNtz78a3mx0x336uUT4Pt7ktErr5AAcR7vBxeCeVvUWx7O0XrCDwCFT8BjqOeo7tWr7AQb0GlD2DV0rpWt5wIPUL+RGhlZe7wDa3rW1Z4Li50HpR5Rxp11do9bAgkF+RffkANsL3gnlCNQig+S8WNpZwCClfgcbzEJ4CjVr+9Hj+sdZXvhNDNHrjcvgu144bDn+ZTrH3StjjMAYcelcA4yxEK3pvbp2JCWfCnlblRs+os6v4fnE6Saom2oKCvQchj/UrO0JHj9ouoGcM9MJTMgDpbw4AJfgQlw/SslPGnRTIb1rnnJTk/ObUMhNtUX4ed2zU/AeR3BT/yINPCkvlrYU1GfUa9MJf6R7zGbLsNThw7/SnTuTARev2m8u6f83SjoV0CO+0PCimxsSwJEvmCCvFcABoFd8m+XG23kx+DQR0GO5ZtUNf2Xm9Y7ZbDkZUXqDJcLfqbFRendMLsAuDG6xRPmtlHQq5KHIwv9+I6Y27EI8DG/Hz1DSqcmI8AN2sdqvVgKld6FZmi3qSBfTCX6fEUNvoOabXkDhLYw8aW8gli5v9bGuQryAkk5FNl/+RyjP3biIQHvS34tDMO4LKOl0wHgYPIiLrEIl4shq+wptPH4M9ZlabnqCF82A4j6pM/mP0o2+ugj+qLszossN/skU4QONWA4HPwegR/tXSjoVPatGngXPtRTc32He0d9+Io/k8OJtupH9tsFw+t+vuxpHhpRxDCqi+3R99qyI5kJ6jzRkobgIwYWOtFzohbnacy3hX4Xus4r6JuXH0mpBfTXdqGQ75fdTU80AarVZlhdcCA9YbcRxjFBBd+lGs6ylpS48hKghW6jAsE1nQMuFgXSOAJf1RnkqnU7Ul6UhovQ0qtpu8PG2ntxPBS4Bw5POCjG4YxoGWYjV8XrCv8NavE3rAhNI4+1Q4Q3ZXAxj0N9kRKQ1uJ+npmH+Ry4c1wgysegJ6hfqKerrzDPEUXprh1siKGSLw3vk0RkJFVGPKHeuWjOc8s3ZYr/WBSa2F77fKlTLKuqrfezGz3QPUM72RSfAC+KHmB6mm5gfS9ME9VLqpyj3Hba2djg1y8zknJUjz4Fx1rXoj+uMj9QUQ6VmCv/qjM6qGHjzQcV/wi4Ohyook3aKgca0bvBdGEOeSKmnQkV9w1+q9JLyYmmGoD7isMV0gusW5rbMjN39E4HumCH8m9WNwhqrdNCdKFaHYDzqYFSSkp80uIsbXNac3TdcldMWKQ1y9KhGeEHcMjdX0jqNAMrwWoz6YhQ5KS+WxgrqIXpHoJdf0227acd8seN40/HXofKmn/PDG4VgfNU3HOqeFIe9KxgR7i9syCHGhhOsxqAMJZ+KjBPPAyX5A/W4B+XF0hgZ3Tdruv66+SI8nqq/s8jktuPO+/V6263AIOGNBm7vgO4ZqvhGhB7yJrnhV6PHli40GrQX4UWtWsvmDBG+BTyAzSpqm5wfi4aA3qGHZorg53gSBFV7Z2IWBk+B3uReOtzp4MqqRwS4rKCs2WJ1ly38synpVMidJ0752w25+KYwOAS97X9S0qmx8uX32l51u+5KJpYDRRmi7cb3ZcTA66i6OxvL9edbhfhhtWhaZx2rNOgns8XwTEo6Fd1OfBKk81O5SEFnlQ4GA3Cuygs+QUmnAreRWaJ0IbzFA615UZYxghFw0DfQO9PRW2Y54zAK4Vugkh4ngzqg4uoXOWcowk1drq91gQke72564T1qDlKnPGA8IvRNEZ5LSadCGaR/ueWFehfKsoCgIaKexY+j3lEVM2MxHNwFH+5Wc35JlViPgOshe4/owR538LWUdCrMQmkOGNJDuuM1WR4v3m7l9S7oQfAMT3ib7+V1rOmF9Gu3pbmueMYDlXQeKG7QpbUqhq5lc4Nfdef0BuXoQquNwHpTDHK8V4j/DGXqoqRTgefv2E5wnRrT8iqdyQrqlS03rfvnU5Uy46G2FVWreG12UoXWI6NTDKbwf5TNxS+ipFNh5sM3Z4tDT+BWrqS86hNaVyvC31vF6DRKOhXZYu35oExyszSv0qlfpD6hXnnyHn+mLmq1WWCQS8CgRnQWTcuJXDVmW4vzmpR6KtClgd5opxpraKzSge/Ds/3acquzKelUWO62F0I631GLAtggJ5J9K7bcaInuzWUdh9zn55Q+h28zvTk/XOI0PGKI4Hpc+UPJpwJ6o4/YxcFyl3SBk/ObUKDHRpfXEP5PM4WBl1DSqTCd/hfbIryTDXJ8Qf1BPcKbqbWO2exkTsvJ4++/pNwxjVU6uPi3b3gYepKizppDnMAHt3cxlEXrzFNUDrniQwTfgvJp7TzBvZ3gev1SudBskAcJDldAfww3uOGMvp1ax2x2PHgcHlTqWu1lczgJXxyqQk+yuFdjNT7tzO+zvFBv2Ry4TfI8Hje6sQdeOpR8KjKiPNfyKg/KIBOPIfcJ6ouKhMdrdV96DGHnSv8AFfp9PYPEKQY5PzcILuLHKOlUzFldey68aVfL0+J0xrTFqnShwX36Ap7xSsmnIivCM6Fn3CSVjw2SDBFfTvEPUH+omphGYBeC15iu2lbUAIMMMm7wXko6FXNXjhxjuv4tckyrMcUgz4fFMY0XuBesrundxCyCXrwLQs2jda5B7jNE0BfoEbXmmplDsMArn26JcKOuOyYN0ot3mHm9S05x3yKMQ78n19VqlAd7SPj+Hkv4l+qcoI4Yjn8eGKVPL53OE2gHFfEON9qgL1QtTDOw3IoJBrlZax0rNpiMiEZ/yTgVrYt1Ml7lZHB7/1f3BUG7PCKM2FLSqbFxnhbXxHbcKh1ab+oGm6f9sYrThWy+vAgqf7ve25/m/JzgjwuWlrSOf5QRTbzwRzOiKSelvXh31gu0bkPG3hUMcgmktVdnWmi6idKHaHvWK2t5PMwkMZzgPdCTlKUCJzRMXUJjC3A1f6M7tgCX9TSrUHmYxiqpBZfNQXm22Ev1FjCreVr/c3LZXAcYpNKDqIx6QVXAtBJQto/i9c5yzJXQQHWJNEjcXBreCWOMl1PSqcg4pazlVf6iXKWEvOoRcHXltelu+IipeYL6or6dR5ki+hLuPNEJerW70Jh70NaMkjM64LYiL7wUGmJEb85PnX8CveO3dQ+Tyrg+XmizRWu8hmNa7LG96De4c4SSTsW8z5aOtt3oa9llw3sx3cT8prHQWBsk1A5+MZrgdABOC4CbAuMjNICUh0mhQcKYA1zENd0r9Q4kMoX/33IOUqc3IhcaDGm9bo9tOmG3Xaj+dWZFWANos0F0T/fCvz3daSGmQWRy24808+HVMN6iVTHpDRK/b7rhKjxyn5KfFMaS8vvBkHaoF0NyPvUKGrNcd1qI77DErlQ99hl90QnwXN+CutmjE1xqLwFDhHbKLof2hnbP5PQusGUaTM/irceBst2UXa55ByN+F4zAcIL8nAsm97bFy1Fsr/qkcnmT05+0UA8J/75lsgvd5xVqR8OL5Rb5fZ1eus0E2wjbGf791Z7F/nH0uEw78aZc/4vwuD00Bp0IolwEXqgMGvngYkp6QnBeC763STeamiTYQ8pncoMvohdAWY6L9Bbc8hfl92aUIcJwAgNu0M64a4Uel2lHcHyFx+7JRdgaSojjK3gD+1Zh4h3h3SuG5sAY8SG9zcfjizRIdMFF6Uo8dJmyToQOZV6JrtyMMkR4FmxXGNf/QncczbQIKxe81hLBBhmw0IggKoOu7LZE3EtJH4Sa8I/u725Cj3igkAuNy+ZylH0iluNfgZ/TcdfbTnDKR24UDzbAmJHXm04nup3yGZYIH1Vn4WgYpJqD3Gbmy2+mpPeBuwFkLywNsTXBEXShbS+qgHJ+ioqxH6Con4SyVHT2W7afoCHCi1WEf+paulvr1D9misg4pR51B6NeSB9vhAKD3GS4foaSPuxMER4Pir9OGnuL5+/U2T5hyT7g+MesV/4g/l69gJK/Ox2F2m8Ltic9KjMdweMRoSH79QyS1rF60QNdInwdTnsYIrqZAj0Jn2+2qAXRYIzbjEJ0dm9v7XD8Cb/fqnYszJQpDBq7Q/vBM2kfc8m0AZaofAAak658S270CQXHLMr1Ww9G8A3oFYe0xmRerFaPJP2tLsFVOtKF/p3pBkvwp9xYrGGIsjxtFPCR7SV3slQ+QE3JzARsEXzCLg7FWgYJio4GSIGUhL/XJxgVxBA9uNChbo8tFyqQ6BgilgOMOpLP1wYGie2E7WWJcuLYmJnGoCuHUUa7b3hQjanSH7eoNUYERce5PzyMCu/gAMXfqRYJ6JQHjSdtmdQtXlgO+Pcn4QVxm7zSYMoMEq/5G0YvZMhywiuw3agJmZkE3ppsOP6V2eKg1sLy9KIWgFvCv8taqRakg2F/xC4MllUPmdYg04pSfOiByqbrf1SWR0Qn2sK/s5UR4rEil7lB++D2L2wvLBMzQ6HTuL+srmxr7TycUvDgXrMYvJqKg4dbPQN67MuyxWpF3Zqc/N1mCI6BMV/TKf0HloOKdBiWD/7+azq+omWC7YFlghfDjZncwN9QcZiZDN7BaDoBuGNgkC1yx6Qr6lU2Qn4HncuCPYDtBsvxQptW9dgyn0JlL+a7cPXBi+KzIpoLrupG5UInp9FIwXbAlxGMW2/D9qFiMJ2AuTx+sSXCn0j3sMkGqQwxeswolg55byReY26J4Pp9AaKEdBolKo9KzXSiL2K+VISDyHilHnBVH2u6QaIhynG8/1PTiXm9aSdi5fzZ8Ca+R+7Mb9LEvbxNy4u3Qz7voGwPSc+qXc8zhH9rU+cvIV1M3/Awn/7nU9aHxMwH78Dya90KNp5AvWPaeBemmd+9z31nOhB5do0bbVRHXTTWIOXbXoS+4YbnUXYTghfa2CL6rppja3CPjT0QThm4wfdg7Fr3CdtYfnyOxq/sUUeMmF70e2wHyo7pZEAxTcsLNzdy+5O8TqAQV6BHvIiyqZuu5QMvtb2wwWteKZLrhr/A9CmrugEX+lP4PI0MMmF5TNf/q1ngYxWZMRgifIvtxdsaYZAyPF+oDhuufwUlP2lg/DQbDOB+dcNUcj6TEbW9K/gt7jKhLCYNPk+2UBluRJBJ1jO4v5l8eSElzzBPkZF3MA5qXWNuexSe98IVY6cL0mCJ0mmgsA9LQxIp5yDhe/h924v+gOlR0qnA58HnwufD50zMrw7B+sV6Nt3SuylphjmYDN7BWKimWqYmw/OgaDJKWeeO/Ikw3MAG5d+k9ktO1iCDGn4Pv2+5Ja3ry0eRJwg4QeoTBOR0UqHSkJPTmZlOLvc0Q/iX2l5laFLuGEYFl8lLUG+1vfKxlFpDwJ0nUJYtaiF4Qt6HEPw8fG8rfp+Saginek8cK8/WgeedTBQa6xPrNeOUPsvHKjJ1MRuPrXADD6OPdR2QjIaIPVehsm6+s/skSqaB1GZBT3I+KHK/XDeaVIYDRB1cXOk3Xf9D+H1KqGHMd+KT4HnvUGO/iQ0S61H2pKJcwPqlZBhmYt67fOQIMMhr5Nt8vDk/UDBUSBiTrc8W/VfR1xsOXvBqivIlkF80kQutFjJEMX5e52LYicjmd70KDPJnFIxJLAuK3FWCXoYIru3lYxWZNMxz/eMsEd6M82uJBjnaI7rxb3WDI/WArh0otAMu4h4MohxUHhAZPIK/m24genvXNn3HgwwyufH9h+ohsd5ofvJrmRW1F9DXGGbyzF8Rn2S60TpcNL1fwAINEX5nuMGfMMhCH2866OIZXngVuKCg6Pu70HKZG17cCn9vpSuI84RYD3Jh+RiDxPqikwfWnc7HKjKN4Mx8+RW2oEl4Mkh5ZKDwt1kieit9rGX0Xl07Enq+NbLHHn1BwE/lvgZrFvWNHEUfbRkwFnwr5L1VLi2k8sj6EsHdWH/0MYbRxyyEp5hO+ABGEMntGgCDmLJ5MnShIf/bsvSCQMXHDcv4e/pIyzG9+F3QC/Zj/cjyQH1lRPg6+jPDNI6MKM8FZdtkeRUYk5XkZtypBDcCmyL88VlXYQ8U/rinGP09/WnKwPlDGCcOg7v6Z6wv+jXDNB7bC3tA8c9vZpRyMuBpdeAaFvEn/WpKwXoBrwEXlp9Fv2KYDqIFUVOGYRiGYRiGYRiGYRiGYRiGYRiGYRiGYRiGYRiGYRiGYRiGYRiGYRiGYRiGYRiGYRiGYRiGYRiGYRiGYRiGYRiGYRiGYRiGYRiGYRiGYRiGYRiGYRiGYRiGYRiGYRiGYRiGYRiGYRiGYRiGYRiGYRiGYRiGYRiGYRiGYRiGYRiGYRiGYRimfTjssP8Hhdy+xTsMXAsAAAAASUVORK5CYII=;" vertex="1" parent="f_0w462XN24zRGfIKmap-64">
          <mxGeometry x="9.002307692307795" y="4.996666666666698" width="39.82" height="40" as="geometry" />
        </mxCell>
        <mxCell id="f_0w462XN24zRGfIKmap-68" value="3" style="ellipse;whiteSpace=wrap;html=1;aspect=fixed;fillColor=#0000FF;fontColor=#FFFFFF;" vertex="1" parent="1">
          <mxGeometry x="-316" y="221" width="22" height="22" as="geometry" />
        </mxCell>
        <mxCell id="f_0w462XN24zRGfIKmap-69" value="" style="group" vertex="1" connectable="0" parent="1">
          <mxGeometry x="-373" y="161" width="130" height="60" as="geometry" />
        </mxCell>
        <mxCell id="f_0w462XN24zRGfIKmap-70" value="" style="strokeColor=#dddddd;shadow=1;strokeWidth=1;rounded=1;absoluteArcSize=1;arcSize=2;" vertex="1" parent="f_0w462XN24zRGfIKmap-69">
          <mxGeometry width="130" height="60" as="geometry" />
        </mxCell>
        <mxCell id="f_0w462XN24zRGfIKmap-71" value="&lt;font color=&quot;#999999&quot; style=&quot;font-family: Helvetica; font-size: 12px; font-style: normal; font-variant-ligatures: normal; font-variant-caps: normal; font-weight: 400; letter-spacing: normal; orphans: 2; text-align: center; text-indent: 0px; text-transform: none; widows: 2; word-spacing: 0px; -webkit-text-stroke-width: 0px; white-space: normal; background-color: rgb(251, 251, 251); text-decoration-thickness: initial; text-decoration-style: initial; text-decoration-color: initial;&quot;&gt;&lt;span style=&quot;text-wrap: nowrap;&quot;&gt;Cloud&amp;nbsp;&lt;/span&gt;&lt;/font&gt;&lt;span style=&quot;text-wrap: nowrap; color: rgb(153, 153, 153); text-align: center;&quot;&gt;Batch&lt;/span&gt;&lt;div&gt;&lt;span style=&quot;text-wrap: nowrap; color: rgb(153, 153, 153); text-align: center;&quot;&gt;&lt;br&gt;&lt;/span&gt;&lt;/div&gt;&lt;div style=&quot;text-align: center;&quot;&gt;&lt;font color=&quot;#999999&quot;&gt;&lt;span style=&quot;text-wrap: nowrap;&quot;&gt;&lt;b&gt;UW QC&lt;/b&gt;&lt;/span&gt;&lt;/font&gt;&lt;/div&gt;" style="text;whiteSpace=wrap;html=1;" vertex="1" parent="f_0w462XN24zRGfIKmap-69">
          <mxGeometry x="44" y="5" width="79" height="50" as="geometry" />
        </mxCell>
        <mxCell id="f_0w462XN24zRGfIKmap-72" value="" style="shape=image;verticalLabelPosition=bottom;labelBackgroundColor=default;verticalAlign=top;aspect=fixed;imageAspect=0;image=data:image/png,iVBORw0KGgoAAAANSUhEUgAAAOMAAADkCAYAAABqi5P0AAAAAXNSR0IArs4c6QAAAARnQU1BAACxjwv8YQUAAAAJcEhZcwAAFxEAABcRAcom8z8AACUXSURBVHhe7Z0JmFxVlYCJuAM6gIwDDC4j4xJHcYxgwCT1luqm0ZjRD1rHZVwAcflwQWQwMEMl9e57VZ0FDbJMUCQyohBHFIm7glFGB0EMGEHBSBQSsnZXva2qu5OuOefe06GTvHRXv1tVXd11/u87XyfdVffed+8575577nYYwzAMwzAMwzAMwzAMwzAMwzAMwzAMwzAMwzAMwzAMwzAMwzAMwzAMwzAMwzAMwzAMwzAMwzAMwzAMwzAMwzAMwzAMwzAMwzAMwzAMwzAMwzAMwzAMwzAMwzAMwzAMwzAMwzAMwzAMwzAMwzAMwzAMwzAMwzAMwzAMwzAMwzAMwzAMwzAM0yxm52rPnJOrPZf+2x70rj2c/tUWYP1gPdF/GaYZ1GaZTvkzphtc1+P6x9Evp5TufHiK3TdcMOEn/WpKWbjCfwHU0XWmKF+C9UW/ZpjGAkr2Qbs4WO5eWauZbviFhbktU9pDWmLXiaYIf9RzFZQHfloroxPpT1PCOStHnmN54VVYP3Zh0Mf6oj8xTOOwhP92qzC4vWv5CChaFWXEcMte79ralLiIGeiBLBF8Mwvlsby4huWCHvs2/D19pKX0rl17OOQvsF7AEGV5sL4M4Z9NH2EYfTJOkLW9+Imu5bWa5YZS7L6hmlUcHDTc8N/pYy2jN1c7EhT/xmzfnhqUS5UHfmaLw2iQN/ZeXTuSPtoysB6sYnVQ1gvVkawvL96C9UcfY5j0gJKfDor1p7GGOCrZvr2obJHlRR+hjzcdDIyYXvx526vIHnpseWSPDb+Hf69qZQDFcqMPW14lwpfD2PKgyB4S6s9Y6r+JPs4wkweDIuAKbsguA6M7QMlGhf5WMpzgPfS1ppHL1Z5mOUEexqt7ssWneqCxgr/Hv4OB5PHz9NWmgc9tibA0fh2hQQYb2iXIxEwzepZVXgaK9IvsMnzbK1fwUCI/40VbDRH9C3294UhDdIOLIR/ogYYTyzEq9PcYI7/NHNOa+WgRPreqo+SyKAEXGj8jwru7vcrJ9HWGmZhsLjrBdoPvyd5HuX0TiuwZCvGjYDAmJdNIZlmOf55dqOyWrnFC/gcKfg4/bwn/fPy+SqZx4HNC7/voxIZIgmNaHE+K4PtYv5QMwxwa2xs51hT+LXZxEJU5WbEOITRmejCTi95AyTUEW/hnw3hwC42/6hYV+R3cgt+npBoC9IhzTC96YDzXNEmwPrFe4QVxayY3NVFfZprQk9v1PFME/4WheZQkhRpXvKjWBQoKafzSzJdfQclqYRYCK1sc3NS9AgNIwcF5jitBDb+H3884pYZENG2v+nJ8PnxOfN7kfA8tsm7BIA2nvDp7af/zKVmGeYpMrvZsUF4PXNNh+xDBkboEDVL2YP4Pup34JEo+FfbS0qng3j3UhYYoJmuIJPA9+X0vehjTo6RTgc+DbqZ8vhSGOCpYv7KenXIR652SZxgAgyPCvzTbNxyr4EdKxSfB6QWpsOCOzVucbtncgqL/KtMNfqN6xOR8JiNokJDe/fCSmE1ZTIp5i7ceh8+Diwxo+kRDAhlkArc+xnpvRdSXmSaYIrrA7hsK1JhPzxBHRa5CWbYHDeCL8Paf1CT8mYXKSyCN9WpuM30PtL9gj12r2SL4OaZPWdUFlh96xOvRNU3lvicKGuQeXDwRWKLUsnlapo3JesG7QDn8yQYj6hEcG0EPsNcW4Yo5q2vPoCzH5fTlwd+C4axT0yXjT6lMWjCiKdON1mE+lOW4zLngvmdg+bN9Q3u13PdDiKr3IMB2oCyZTiSTDxeCYu5IWjnSKMHpEbtQ2WuJMDfRnN+ivpGjMJIrp1QmGcmtWyBdTN/0wq9jwIqyTgTLa7j+FVh+Waak9Bogsv69eIclym+lrJlOIuvGGTDEzTRB3lTJYjjfjYbAZb0ol8sljo8yue1HGm6wWob/D1jm1miRy+bQ2EV0PeZLRdifWm2WmS9fhOVW5U9Oq1FC7bAZ24VKwHQCZr40B5TsIfVGbtSYbHyR82teFFiufx4VYx9y65Hwl0PvAK5g8xUfRZUHemzXX5a0FcwW5XOxvK0qD7aDNEgveigjSg2dp2XalIzrvxLGKPfK4EGLDHFU5I4GdMdc/xwqzmE4lgTXdHG2UK3grouk7zVLMD/M1xCly8eOaS134Bx4We0cuwOjFYLtoYYMwb0Zt/pKKg4zEzGdysugB/qpjAo2OjhSp5CyPZ51AxvLZDj+h+3CYFm5aY2J5NYvaooB88dyYHm6nMCCOnpclTPpO80VbBe1cMK/E9sLy8TMMHBXvCXCb2L0TmtMBm9vPUOGtz9OeYjwQXATHSjTDrmaJbUhQu8uy5O2lw+k8mM5bBG4psBlbmiIrfUaxgqOZ2WUFdorU9z199SEzEygO1c6BhTtS9I1lYaYTvHHGqHWxDcatHohjOj2iKMBHxmQ0TBICqCocrXYfU8SLIfsnb3oBmw/akpmOoPBCeiFVkLD7lHBiJSGiG9rGEPh2TdWIfokpFkaVeB0ggapM31By+5EuNFwynn8qZbhpTckPYNutAQ0T7tnDzzbyoXtdiIfMzkyudrTLTlPVtU2xC65Qbby1dEzZvD0M/jbUDPn3w4takG67UXb4N/n4Hwg/gR5UpWzXQxKV5RBgoBB+hPO0zJtS22WJcqfAoUd1jEYuc4UFVxE383knlpGdvLHH3kWjK9cMNThxi0Rq09UcCUoW3m5V3EftgjPtURQVn9P/u50FGw/bEd4tk/x8Y/TEOi5zrXcONTbgYGnrskdE3eb+eDVlPQ+Fl2y8yj43DU4KU5jwKYLvViqphtdRMXYDyjnRTDOqkxNj908wXa03SjCFw49KjMdsAvR2WBIu7XGdB66giMYYn/QLERzKOmDyKyovcDywpuxN9IbA04sFFzZazrBEso+ERhj5fBzrXpBtEpkexYqu8bO0zJtjOmE3aYbbqn3eIpkUdMPoNSbDDee8FQzcGFPhN7zu2p7UXPmLzFd6a65pc/1TnDyWw+40JbjXynHW00qz1SJatd4i+lVuulxmXYk6/jzDDf4k14QI6rZ+Ab24q3ZYuVMSnpCMvu2PaFBNjaAIg1RzkX6Nyzq23kUZTkuuOYUPy/nVWeUQSqPBdsZnm8+PS7TTpgFXG8a/FYdnKsR3pdjrWjAKsS9lHTddK+ovhK+dx9tUzoo7VQChkTj1rXzri0dTVnVxdyVfz3GEOGtujvz205wCAF1Yjr+A9ju9LhMO5DJ4XrTaD2+MXV6AQp6VCx1oloq5EvBi3+nplKS86lb4FnkTn8vXpfJpVuJMv/KkeNhLHt717LhkcQ8pqlgO5MHtH5B3n8VPS4zlXSviE+CMeJ38KDc9IYYyEXcdiEest3yRbrhc9MtF1UARcM9pB4RXN6fm307tQ63yojyByyv4mdbPAXTbFHuO94xEt2BekCPy0wFtlc+FnoxGcms93zTgyWQPSK4loMYpczcVXs6JZ+KBWLg7ZZbeVyrZyQ3DN7693ePE8mtBzxW0fYq92T7ZlbPuE+g3WX7i/BmPv5xiui6+MkjYBx1rYww6hviHhh/fK7r4pEjKPlUGEsD2/aqm9XC76T86hAwRHmzlAgfNTQ32uKxiqCsdJZOQl4zRLD95RAD9GHhal4211Jm5zY+Eyq+YBfl1WyJDVSP4HfxrWo4/lewl6XkUwHu5Kmg+A/pKj4Gf0w32Grnw4WUdCqyfdEJ4DX8UB7TOGOWxx1asC1RH3CIwLcmtxAzX1oMlT+ks7oGJ+jldIHj347zhJR0KizXny0juZqKrzbzRv22G7ybkk4FvlhMEXxDjjk7wBBHRa7SKVaGUT+oKphmAm7cR8AQo+yy9Ktr5MAfekRQ2J/NdwZeSkmnAjfAmk75btkjakwfyDGmF0em63+Ukk6FdN/d4AY1vTKzJvzrEVylg/phiOhjVCVMM7Dx+jEvLqmQdnJjTCg4JpMD/ug+y62mOtB3FHQFDVx5g+XRMUS5zC3eY4vSYp0DfXGXCo59s+SyJeXVCSL1w6uUUF+oaphGknEH3mZ60XYtQwSR6xu98GGrWDqNkk7F3FzpGFP4X5dTIqkDSMoQ1ZrWyOuFsTAlnwoYay6Bl8Ih727sJEE9Mb1wh9UXvY2qh2kEhluxoYI3qyVhyZVfj+D3oYH+ipfJUNKpmJOrPdf08IIcvWMVsfeSbpXwr+5Z9cizKPnJk8uN3t1YkS+bhLw6UUhfNvM15g0C3MnToNfY2CUXCKd3BeWbUoS7DOFrXWiKRgM9EE7q04bl5PwmEjTiruXymdb0rBoZ9zDh8anNAtf0Q5Ybl6T7nZBX50pUQ72x3Xhjlxe9kSqMSQNGKUHx71FKlt4Q5eqcQnXAdkpaY4hM7q6nm67/WegRtfYLYo+KAR94tm9ncuHfUfKpsApBL7jJT+rtUpnJgjEC8Ijc8B7dGEHHki3GL4IK/HEXGqLGMjdsCHDdAkOUtKNrluN/OFscLMkyJeZXh+AyN7wRSoR3dmlGche4QZflVTfpuu8zXrDOZdAu/Inp9L+Yqo+phy68/GX0WEWN4IgcjxWHqmbeX4zXvlHyqTCc4J1239AOFUBKf6yidJfd4F6zePDJAZPBALfL9OLfq0UG6U+X6xRBPZLnsTrl26C+XkjVyIxH9tLa86GybsDr1HSCI7go2i5W9lpOsEz3Qs4FS8tn2YWhx9WkfnJ+9Qj1YA/pjl8sdxcuMrhXtzydJnKcLjeNB1/OFmt8a/J4ZHKPPRt6xCuzy4b3qstW0p/mhhVviOB6vNmJkk8FbliGcmzWXuam3O3HTC/U2qGeKQy8BOroLt1FBp0puBZ5EF6Ke/bifCzqG1Ursx/y9uAwB67lkArPp3S9cJkbGrIIb9VdbwppvN4WIbiCunObaIjRDngjT3rD8lisxcELoUy3dy3DrVXp3ffOFnVgM+qZ6URLdIcvMxIYk30aDGlQGWJSJdYhcpkbfj/6fqYYaR0LP29F9eWQ5v+pKKVGJFeVx4d/H3T71GQ4A3p4SOeraNhqkUByfiz1iWwX0DfUO6hePv5xFNxZDxUU44ndB1Za3YLL3HBM5kV3m/my1mbcHjBk04t+IhtMY30nGo7pxlU8v5WSTsXclSPPMd3gOrUBunOXuTVaSN9i0/U/RFXd2WTd+B1gQLv1lnDRmShu+KAlBl5PSacCTww3nfK35A4ADUO0ixjJHRyynPAKSjoVOK4xXH8ZlqUhR3mw7CdK76J+1EOq8s7E9sIeeONvkaexJVRUvULBlT9jsIWSTsW8Qu1oKM8aPCFcpwfC76LhmCJcgYu3KflJg98FQ7wMDHGIDbF5gvqHx3taxfAsqvrOwljqv8kS4aNyq09CBdUr8mjEQuUJ7ShlbvuRGGEDpde6PXh0e5Ylouu7btI8OcCLPpb1KoGKLCfnx9IYkXqoTleY8JzcGUWXCF9nOsFvdbceyTFiobrT0jxhGndLQBpXwJisqgIuKadU4Fnw5WAI/9a5uRGta8ygh343np6typOcH0sDRcYcZNttsPMD/0zNMLPB4IolAnUui1ZwBDeRVnzDGdCKUqoLcqILIb1A9dIaq2tw3Cp87UhuJl9eCMa4VessHZbJC+ij1EvQT7OvqhUEbHu6L999Ejz07fjAOuF5edyGFw0aXvnTuH2Ikk8FjOveZxUHS2p1TEpDxB5Rzf2tz7i+1l304CovgDQfVeNgntRvtaBeqpdqcAfqKzXLzKJ75cgxtlu5CbcN6QRHcPwE47K9toiWzrngvmdQ8qkA1/RtkOZurR0P0jWVvfz99tLoVEo6FfPFwOshHXWWjob7zqInqJ9ST0FfdReOtB1dy/FclvAaufBbK0qJ602re8GIVsHYTC844lZs0w2fkMGWhLzqEhojgpv7aHbpgE1Jp2JebsfLIb272RDbQ1BP1bx1OHOOf8Qbk2D8U8T5HD1DxMNqMZgRrenWDI50LY3eCOn8URliWsVXA374udX0okWUdCrOyEUnQI/4A2WInXeIVLuKNEjQW1OU+ya6+av9ydWeZjj+ZfCmH9EaI+LAGt9SIrg97Z0To+DWJUhng3RNdQJIy/B0ubBkevG7KOlU4CnYhgi+Sa5uYl4sUydSb0F/DeFfPq3XsWZEcKHpRlWta7ZBQemE7Z+Zyyovo6RTkfFKJ1tu8Issjgd0DLEIPXQhjqBX/DAlnYqeVbueZ4pgDRq2TnlYmiuov+D9VDNecCE13fTCzIfvU+eypJ8nU/N20GO40X3Zot5NQ9li/4tMx/8e9rBavTS62l68B3rFSyjpVOAyN0jj87jAgHdgtL9IPfaiMuo1NeH0AKOUphPs0I5SygF09PCZYlBrvSmeHAA99Fe1A0hgNNKQReDoLHM7rFabZThBHo2al7lNH0H9gRfodqvgv51aso0BJcs4YQ+4gn+Wx1NoRAWVaxttsp0Bg1JPxVsKpaNtz78a3mx0x336uUT4Pt7ktErr5AAcR7vBxeCeVvUWx7O0XrCDwCFT8BjqOeo7tWr7AQb0GlD2DV0rpWt5wIPUL+RGhlZe7wDa3rW1Z4Li50HpR5Rxp11do9bAgkF+RffkANsL3gnlCNQig+S8WNpZwCClfgcbzEJ4CjVr+9Hj+sdZXvhNDNHrjcvgu144bDn+ZTrH3StjjMAYcelcA4yxEK3pvbp2JCWfCnlblRs+os6v4fnE6Saom2oKCvQchj/UrO0JHj9ouoGcM9MJTMgDpbw4AJfgQlw/SslPGnRTIb1rnnJTk/ObUMhNtUX4ed2zU/AeR3BT/yINPCkvlrYU1GfUa9MJf6R7zGbLsNThw7/SnTuTARev2m8u6f83SjoV0CO+0PCimxsSwJEvmCCvFcABoFd8m+XG23kx+DQR0GO5ZtUNf2Xm9Y7ZbDkZUXqDJcLfqbFRendMLsAuDG6xRPmtlHQq5KHIwv9+I6Y27EI8DG/Hz1DSqcmI8AN2sdqvVgKld6FZmi3qSBfTCX6fEUNvoOabXkDhLYw8aW8gli5v9bGuQryAkk5FNl/+RyjP3biIQHvS34tDMO4LKOl0wHgYPIiLrEIl4shq+wptPH4M9ZlabnqCF82A4j6pM/mP0o2+ugj+qLszossN/skU4QONWA4HPwegR/tXSjoVPatGngXPtRTc32He0d9+Io/k8OJtupH9tsFw+t+vuxpHhpRxDCqi+3R99qyI5kJ6jzRkobgIwYWOtFzohbnacy3hX4Xus4r6JuXH0mpBfTXdqGQ75fdTU80AarVZlhdcCA9YbcRxjFBBd+lGs6ylpS48hKghW6jAsE1nQMuFgXSOAJf1RnkqnU7Ul6UhovQ0qtpu8PG2ntxPBS4Bw5POCjG4YxoGWYjV8XrCv8NavE3rAhNI4+1Q4Q3ZXAxj0N9kRKQ1uJ+npmH+Ry4c1wgysegJ6hfqKerrzDPEUXprh1siKGSLw3vk0RkJFVGPKHeuWjOc8s3ZYr/WBSa2F77fKlTLKuqrfezGz3QPUM72RSfAC+KHmB6mm5gfS9ME9VLqpyj3Hba2djg1y8zknJUjz4Fx1rXoj+uMj9QUQ6VmCv/qjM6qGHjzQcV/wi4Ohyook3aKgca0bvBdGEOeSKmnQkV9w1+q9JLyYmmGoD7isMV0gusW5rbMjN39E4HumCH8m9WNwhqrdNCdKFaHYDzqYFSSkp80uIsbXNac3TdcldMWKQ1y9KhGeEHcMjdX0jqNAMrwWoz6YhQ5KS+WxgrqIXpHoJdf0227acd8seN40/HXofKmn/PDG4VgfNU3HOqeFIe9KxgR7i9syCHGhhOsxqAMJZ+KjBPPAyX5A/W4B+XF0hgZ3Tdruv66+SI8nqq/s8jktuPO+/V6263AIOGNBm7vgO4ZqvhGhB7yJrnhV6PHli40GrQX4UWtWsvmDBG+BTyAzSpqm5wfi4aA3qGHZorg53gSBFV7Z2IWBk+B3uReOtzp4MqqRwS4rKCs2WJ1ly38synpVMidJ0752w25+KYwOAS97X9S0qmx8uX32l51u+5KJpYDRRmi7cb3ZcTA66i6OxvL9edbhfhhtWhaZx2rNOgns8XwTEo6Fd1OfBKk81O5SEFnlQ4GA3Cuygs+QUmnAreRWaJ0IbzFA615UZYxghFw0DfQO9PRW2Y54zAK4Vugkh4ngzqg4uoXOWcowk1drq91gQke72564T1qDlKnPGA8IvRNEZ5LSadCGaR/ueWFehfKsoCgIaKexY+j3lEVM2MxHNwFH+5Wc35JlViPgOshe4/owR538LWUdCrMQmkOGNJDuuM1WR4v3m7l9S7oQfAMT3ib7+V1rOmF9Gu3pbmueMYDlXQeKG7QpbUqhq5lc4Nfdef0BuXoQquNwHpTDHK8V4j/DGXqoqRTgefv2E5wnRrT8iqdyQrqlS03rfvnU5Uy46G2FVWreG12UoXWI6NTDKbwf5TNxS+ipFNh5sM3Z4tDT+BWrqS86hNaVyvC31vF6DRKOhXZYu35oExyszSv0qlfpD6hXnnyHn+mLmq1WWCQS8CgRnQWTcuJXDVmW4vzmpR6KtClgd5opxpraKzSge/Ds/3acquzKelUWO62F0I631GLAtggJ5J9K7bcaInuzWUdh9zn55Q+h28zvTk/XOI0PGKI4Hpc+UPJpwJ6o4/YxcFyl3SBk/ObUKDHRpfXEP5PM4WBl1DSqTCd/hfbIryTDXJ8Qf1BPcKbqbWO2exkTsvJ4++/pNwxjVU6uPi3b3gYepKizppDnMAHt3cxlEXrzFNUDrniQwTfgvJp7TzBvZ3gev1SudBskAcJDldAfww3uOGMvp1ax2x2PHgcHlTqWu1lczgJXxyqQk+yuFdjNT7tzO+zvFBv2Ry4TfI8Hje6sQdeOpR8KjKiPNfyKg/KIBOPIfcJ6ouKhMdrdV96DGHnSv8AFfp9PYPEKQY5PzcILuLHKOlUzFldey68aVfL0+J0xrTFqnShwX36Ap7xSsmnIivCM6Fn3CSVjw2SDBFfTvEPUH+omphGYBeC15iu2lbUAIMMMm7wXko6FXNXjhxjuv4tckyrMcUgz4fFMY0XuBesrundxCyCXrwLQs2jda5B7jNE0BfoEbXmmplDsMArn26JcKOuOyYN0ot3mHm9S05x3yKMQ78n19VqlAd7SPj+Hkv4l+qcoI4Yjn8eGKVPL53OE2gHFfEON9qgL1QtTDOw3IoJBrlZax0rNpiMiEZ/yTgVrYt1Ml7lZHB7/1f3BUG7PCKM2FLSqbFxnhbXxHbcKh1ab+oGm6f9sYrThWy+vAgqf7ve25/m/JzgjwuWlrSOf5QRTbzwRzOiKSelvXh31gu0bkPG3hUMcgmktVdnWmi6idKHaHvWK2t5PMwkMZzgPdCTlKUCJzRMXUJjC3A1f6M7tgCX9TSrUHmYxiqpBZfNQXm22Ev1FjCreVr/c3LZXAcYpNKDqIx6QVXAtBJQto/i9c5yzJXQQHWJNEjcXBreCWOMl1PSqcg4pazlVf6iXKWEvOoRcHXltelu+IipeYL6or6dR5ki+hLuPNEJerW70Jh70NaMkjM64LYiL7wUGmJEb85PnX8CveO3dQ+Tyrg+XmizRWu8hmNa7LG96De4c4SSTsW8z5aOtt3oa9llw3sx3cT8prHQWBsk1A5+MZrgdABOC4CbAuMjNICUh0mhQcKYA1zENd0r9Q4kMoX/33IOUqc3IhcaDGm9bo9tOmG3Xaj+dWZFWANos0F0T/fCvz3daSGmQWRy24808+HVMN6iVTHpDRK/b7rhKjxyn5KfFMaS8vvBkHaoF0NyPvUKGrNcd1qI77DErlQ99hl90QnwXN+CutmjE1xqLwFDhHbKLof2hnbP5PQusGUaTM/irceBst2UXa55ByN+F4zAcIL8nAsm97bFy1Fsr/qkcnmT05+0UA8J/75lsgvd5xVqR8OL5Rb5fZ1eus0E2wjbGf791Z7F/nH0uEw78aZc/4vwuD00Bp0IolwEXqgMGvngYkp6QnBeC763STeamiTYQ8pncoMvohdAWY6L9Bbc8hfl92aUIcJwAgNu0M64a4Uel2lHcHyFx+7JRdgaSojjK3gD+1Zh4h3h3SuG5sAY8SG9zcfjizRIdMFF6Uo8dJmyToQOZV6JrtyMMkR4FmxXGNf/QncczbQIKxe81hLBBhmw0IggKoOu7LZE3EtJH4Sa8I/u725Cj3igkAuNy+ZylH0iluNfgZ/TcdfbTnDKR24UDzbAmJHXm04nup3yGZYIH1Vn4WgYpJqD3Gbmy2+mpPeBuwFkLywNsTXBEXShbS+qgHJ+ioqxH6Con4SyVHT2W7afoCHCi1WEf+paulvr1D9misg4pR51B6NeSB9vhAKD3GS4foaSPuxMER4Pir9OGnuL5+/U2T5hyT7g+MesV/4g/l69gJK/Ox2F2m8Ltic9KjMdweMRoSH79QyS1rF60QNdInwdTnsYIrqZAj0Jn2+2qAXRYIzbjEJ0dm9v7XD8Cb/fqnYszJQpDBq7Q/vBM2kfc8m0AZaofAAak658S270CQXHLMr1Ww9G8A3oFYe0xmRerFaPJP2tLsFVOtKF/p3pBkvwp9xYrGGIsjxtFPCR7SV3slQ+QE3JzARsEXzCLg7FWgYJio4GSIGUhL/XJxgVxBA9uNChbo8tFyqQ6BgilgOMOpLP1wYGie2E7WWJcuLYmJnGoCuHUUa7b3hQjanSH7eoNUYERce5PzyMCu/gAMXfqRYJ6JQHjSdtmdQtXlgO+Pcn4QVxm7zSYMoMEq/5G0YvZMhywiuw3agJmZkE3ppsOP6V2eKg1sLy9KIWgFvCv8taqRakg2F/xC4MllUPmdYg04pSfOiByqbrf1SWR0Qn2sK/s5UR4rEil7lB++D2L2wvLBMzQ6HTuL+srmxr7TycUvDgXrMYvJqKg4dbPQN67MuyxWpF3Zqc/N1mCI6BMV/TKf0HloOKdBiWD/7+azq+omWC7YFlghfDjZncwN9QcZiZDN7BaDoBuGNgkC1yx6Qr6lU2Qn4HncuCPYDtBsvxQptW9dgyn0JlL+a7cPXBi+KzIpoLrupG5UInp9FIwXbAlxGMW2/D9qFiMJ2AuTx+sSXCn0j3sMkGqQwxeswolg55byReY26J4Pp9AaKEdBolKo9KzXSiL2K+VISDyHilHnBVH2u6QaIhynG8/1PTiXm9aSdi5fzZ8Ca+R+7Mb9LEvbxNy4u3Qz7voGwPSc+qXc8zhH9rU+cvIV1M3/Awn/7nU9aHxMwH78Dya90KNp5AvWPaeBemmd+9z31nOhB5do0bbVRHXTTWIOXbXoS+4YbnUXYTghfa2CL6rppja3CPjT0QThm4wfdg7Fr3CdtYfnyOxq/sUUeMmF70e2wHyo7pZEAxTcsLNzdy+5O8TqAQV6BHvIiyqZuu5QMvtb2wwWteKZLrhr/A9CmrugEX+lP4PI0MMmF5TNf/q1ngYxWZMRgifIvtxdsaYZAyPF+oDhuufwUlP2lg/DQbDOB+dcNUcj6TEbW9K/gt7jKhLCYNPk+2UBluRJBJ1jO4v5l8eSElzzBPkZF3MA5qXWNuexSe98IVY6cL0mCJ0mmgsA9LQxIp5yDhe/h924v+gOlR0qnA58HnwufD50zMrw7B+sV6Nt3SuylphjmYDN7BWKimWqYmw/OgaDJKWeeO/Ikw3MAG5d+k9ktO1iCDGn4Pv2+5Ja3ry0eRJwg4QeoTBOR0UqHSkJPTmZlOLvc0Q/iX2l5laFLuGEYFl8lLUG+1vfKxlFpDwJ0nUJYtaiF4Qt6HEPw8fG8rfp+Saginek8cK8/WgeedTBQa6xPrNeOUPsvHKjJ1MRuPrXADD6OPdR2QjIaIPVehsm6+s/skSqaB1GZBT3I+KHK/XDeaVIYDRB1cXOk3Xf9D+H1KqGHMd+KT4HnvUGO/iQ0S61H2pKJcwPqlZBhmYt67fOQIMMhr5Nt8vDk/UDBUSBiTrc8W/VfR1xsOXvBqivIlkF80kQutFjJEMX5e52LYicjmd70KDPJnFIxJLAuK3FWCXoYIru3lYxWZNMxz/eMsEd6M82uJBjnaI7rxb3WDI/WArh0otAMu4h4MohxUHhAZPIK/m24genvXNn3HgwwyufH9h+ohsd5ofvJrmRW1F9DXGGbyzF8Rn2S60TpcNL1fwAINEX5nuMGfMMhCH2866OIZXngVuKCg6Pu70HKZG17cCn9vpSuI84RYD3Jh+RiDxPqikwfWnc7HKjKN4Mx8+RW2oEl4Mkh5ZKDwt1kieit9rGX0Xl07Enq+NbLHHn1BwE/lvgZrFvWNHEUfbRkwFnwr5L1VLi2k8sj6EsHdWH/0MYbRxyyEp5hO+ABGEMntGgCDmLJ5MnShIf/bsvSCQMXHDcv4e/pIyzG9+F3QC/Zj/cjyQH1lRPg6+jPDNI6MKM8FZdtkeRUYk5XkZtypBDcCmyL88VlXYQ8U/rinGP09/WnKwPlDGCcOg7v6Z6wv+jXDNB7bC3tA8c9vZpRyMuBpdeAaFvEn/WpKwXoBrwEXlp9Fv2KYDqIFUVOGYRiGYRiGYRiGYRiGYRiGYRiGYRiGYRiGYRiGYRiGYRiGYRiGYRiGYRiGYRiGYRiGYRiGYRiGYRiGYRiGYRiGYRiGYRiGYRiGYRiGYRiGYRiGYRiGYRiGYRiGYRiGYRiGYRiGYRiGYRiGYRiGYRiGYRiGYRiGYRiGYRiGYRiGYRiGYRimfTjssP8Hhdy+xTsMXAsAAAAASUVORK5CYII=;" vertex="1" parent="f_0w462XN24zRGfIKmap-69">
          <mxGeometry x="9.002307692307795" y="4.996666666666698" width="39.82" height="40" as="geometry" />
        </mxCell>
        <mxCell id="f_0w462XN24zRGfIKmap-73" value="&lt;span style=&quot;background-color: rgb(255, 255, 255);&quot;&gt;API Gateway&lt;/span&gt;" style="sketch=0;html=1;verticalAlign=top;labelPosition=center;verticalLabelPosition=bottom;align=center;spacingTop=-6;fontSize=11;fontStyle=1;fontColor=#999999;shape=image;aspect=fixed;imageAspect=0;image=data:image/svg+xml,PHN2ZyB4bWxucz0iaHR0cDovL3d3dy53My5vcmcvMjAwMC9zdmciIGhlaWdodD0iMzY3LjgxODMyODg1NzQyMTkiIHZpZXdCb3g9IjcuMTA1NDI3MzU3NjAxMDAyZS0xNSAwIDM2Ni40MTAxODY3Njc1NzgxIDM2Ny44MTgzMjg4NTc0MjE5IiBwcmVzZXJ2ZUFzcGVjdFJhdGlvPSJ4TWlkWU1pZCBtZWV0IiB3aWR0aD0iMzY2LjQxMDE5Njc2NzU3OTEiIHZlcnNpb249IjEuMSIgaWQ9InN2Zzk4NyIgem9vbUFuZFBhbj0ibWFnbmlmeSI+JiN4YTsgIDxwYXRoIGQ9Im0gNDguMjUxOTYsMTExLjUzOTA2IGMgLTcuNjE4NjQsMmUtNCAtMTMuNzk0NzIsNi4xNzYyOCAtMTMuNzk0OTMsMTMuNzk0OTIgMi4xZS00LDcuNjE4NjQgNi4xNzYyOSwxMy43OTQ3MiAxMy43OTQ5MywxMy43OTQ5MiBoIDE0NS4xNDY5MiB2IC0yNy41ODk4NCB6IG0gMjM4LjYwODU5LDU3LjQ1MTE3IGggNjUuNzU0NjkgYyA3LjYxODY0LC0yLjFlLTQgMTMuNzk0NzEsLTYuMTc2MjggMTMuNzk0OTIsLTEzLjc5NDkyIC0yLjFlLTQsLTcuNjE4NjQgLTYuMTc2MjgsLTEzLjc5NDcxIC0xMy43OTQ5MiwtMTMuNzk0OTIgSCAyODQuODUwNiBaIE0gMTMuNzk0OTIsMTcwLjk3NDYxIEMgNi4xNzYyODAxLDE3MC45NzQ4MiAyLjEwMDkxOWUtNCwxNzcuMTUwODkgOS4xODk5MjFlLTgsMTg0Ljc2OTUzIC04LjY5OTA4MWUtNCwxOTIuMzg4OTMgNi4xNzU1MjAxLDE5OC41NjYxOSAxMy43OTQ5MiwxOTguNTY2NCBIIDE5My4zOTg4OCBWIDE3MC45NzQ2MSBaIE0gMjg0LjMwNzgsMjI3LjU2NjQgaCA2OC4zMDc0NCBjIDcuNjE4NjQsLTIuMWUtNCAxMy43OTQ3MSwtNi4xNzYyOCAxMy43OTQ5MiwtMTMuNzk0OTIgLTIuMWUtNCwtNy42MTg2NCAtNi4xNzYyOCwtMTMuNzk0NzEgLTEzLjc5NDkyLC0xMy43OTQ5MiBoIC02NS45MjE3OCB6IG0gLTIzNi4wNTU4NCwxLjY5NzI3IGMgLTcuNjE4NjQsMmUtNCAtMTMuNzk0NzIsNi4xNzYyOCAtMTMuNzk0OTMsMTMuNzk0OTIgMi4xZS00LDcuNjE4NjQgNi4xNzYyOSwxMy43OTQ3MiAxMy43OTQ5MywxMy43OTQ5MiBIIDE5My4zOTg4OCBWIDIyOS4yNjM2NyBaIE0gMTg5LjUyMTQ5LDAgYyAtMjQuNTc0MTEsMCAtNDkuMTY3MzcsMjAuMDU1MDcgLTU5LjQzNzUsNzUuMzczMDQgaCAzMC41ODAwNyBjIDQuNjE2MzMsLTI0LjE2MjA2IDE1LjM0ODk2LC00Ny41MjE0OCAyNy44NTM1MiwtNDcuNTIxNDggMTIuMTU4OCwwIDM5LjQ1ODk4LDU3LjQ1MDQ0IDM5LjQ1ODk4LDE2MC40MTQwNiAwLDY5LjkxNTEzIC0xOS41NzgwOSwxNTIuMTE1MjQgLTQxLjE3MTg3LDE1Mi4xMTUyMyAtMTUuMjY4ODEsMmUtNSAtMjEuMjE2NjgsLTI4LjMzMzU2IC0yNS40NDMzNiwtNDYuNzE4NzQgbCAtMzAuNDE0MDYsLTAuMDY4NCBjIDQuMjIwNzQsMjAuNTQwODcgMTYuOTA3NjgsNzQuMjI0NiA1Ny43MTI4OSw3NC4yMjQ2IDUzLjQzNjcyLDAgNjguOTEyMTEsLTExMS45OTMwNSA2OC45MTIxMSwtMTgwLjQ2Mjg5IEMgMjU3LjU3MjI3LDkzLjgwMDc2IDIzNi41ODM0LDAgMTg5LjUyMTQ5LDAgWiIgc3R5bGU9ImNvbG9yOiMwMDAwMDA7b3BhY2l0eToxO2ZpbGw6IzQyODVmNDtmaWxsLW9wYWNpdHk6MTtzdHJva2UtbGluZWNhcDpyb3VuZDstaW5rc2NhcGUtc3Ryb2tlOm5vbmUiLz4mI3hhOzwvc3ZnPg==;imageBackground=default;" vertex="1" parent="1">
          <mxGeometry x="-325" y="42" width="30" height="30" as="geometry" />
        </mxCell>
        <mxCell id="f_0w462XN24zRGfIKmap-74" value="" style="aspect=fixed;sketch=0;html=1;dashed=0;whitespace=wrap;fillColor=#2875E2;strokeColor=#ffffff;points=[[0.005,0.63,0],[0.1,0.2,0],[0.9,0.2,0],[0.5,0,0],[0.995,0.63,0],[0.72,0.99,0],[0.5,1,0],[0.28,0.99,0]];shape=mxgraph.kubernetes.icon2;kubernetesLabel=1;prIcon=api" vertex="1" parent="1">
          <mxGeometry x="-297" y="-71" width="50" height="48" as="geometry" />
        </mxCell>
        <mxCell id="f_0w462XN24zRGfIKmap-75" value="&lt;b&gt;Blaze&amp;nbsp;&lt;/b&gt;" style="text;html=1;align=center;verticalAlign=middle;resizable=0;points=[];autosize=1;strokeColor=none;fillColor=none;" vertex="1" parent="1">
          <mxGeometry x="-302" y="-23" width="60" height="30" as="geometry" />
        </mxCell>
        <mxCell id="f_0w462XN24zRGfIKmap-76" value="" style="aspect=fixed;sketch=0;html=1;dashed=0;whitespace=wrap;fillColor=#2875E2;strokeColor=#ffffff;points=[[0.005,0.63,0],[0.1,0.2,0],[0.9,0.2,0],[0.5,0,0],[0.995,0.63,0],[0.72,0.99,0],[0.5,1,0],[0.28,0.99,0]];shape=mxgraph.kubernetes.icon2;kubernetesLabel=1;prIcon=api" vertex="1" parent="1">
          <mxGeometry x="-359" y="-72" width="50" height="48" as="geometry" />
        </mxCell>
        <mxCell id="f_0w462XN24zRGfIKmap-77" value="&lt;b&gt;Claims&lt;/b&gt;" style="text;html=1;align=center;verticalAlign=middle;resizable=0;points=[];autosize=1;strokeColor=none;fillColor=none;" vertex="1" parent="1">
          <mxGeometry x="-369" y="-24" width="60" height="30" as="geometry" />
        </mxCell>
        <mxCell id="f_0w462XN24zRGfIKmap-79" value="" style="endArrow=classic;startArrow=classic;html=1;rounded=0;exitX=0.75;exitY=0;exitDx=0;exitDy=0;entryX=1.1;entryY=1;entryDx=0;entryDy=0;entryPerimeter=0;" edge="1" parent="1" source="f_0w462XN24zRGfIKmap-73" target="f_0w462XN24zRGfIKmap-77">
          <mxGeometry width="50" height="50" relative="1" as="geometry">
            <mxPoint x="-348" y="56" as="sourcePoint" />
            <mxPoint x="-298" y="6" as="targetPoint" />
          </mxGeometry>
        </mxCell>
        <mxCell id="f_0w462XN24zRGfIKmap-81" value="" style="endArrow=classic;startArrow=classic;html=1;rounded=0;exitX=0.75;exitY=0;exitDx=0;exitDy=0;entryX=0.856;entryY=-0.016;entryDx=0;entryDy=0;entryPerimeter=0;" edge="1" parent="1">
          <mxGeometry width="50" height="50" relative="1" as="geometry">
            <mxPoint x="-310" y="160" as="sourcePoint" />
            <mxPoint x="-309.9518400000002" y="84.96000000000004" as="targetPoint" />
          </mxGeometry>
        </mxCell>
        <mxCell id="f_0w462XN24zRGfIKmap-83" value="" style="endArrow=classic;html=1;rounded=0;entryX=0;entryY=0.5;entryDx=0;entryDy=0;" edge="1" parent="1">
          <mxGeometry width="50" height="50" relative="1" as="geometry">
            <mxPoint x="-395" y="192" as="sourcePoint" />
            <mxPoint x="-371" y="193" as="targetPoint" />
          </mxGeometry>
        </mxCell>
        <mxCell id="f_0w462XN24zRGfIKmap-84" value="4" style="ellipse;whiteSpace=wrap;html=1;aspect=fixed;fillColor=#0000FF;fontColor=#FFFFFF;" vertex="1" parent="1">
          <mxGeometry x="-163" y="221" width="22" height="22" as="geometry" />
        </mxCell>
        <mxCell id="f_0w462XN24zRGfIKmap-85" value="" style="group" vertex="1" connectable="0" parent="1">
          <mxGeometry x="-220" y="161" width="130" height="60" as="geometry" />
        </mxCell>
        <mxCell id="f_0w462XN24zRGfIKmap-86" value="" style="strokeColor=#dddddd;shadow=1;strokeWidth=1;rounded=1;absoluteArcSize=1;arcSize=2;" vertex="1" parent="f_0w462XN24zRGfIKmap-85">
          <mxGeometry width="130" height="60" as="geometry" />
        </mxCell>
        <mxCell id="f_0w462XN24zRGfIKmap-87" value="&lt;font color=&quot;#999999&quot; style=&quot;font-family: Helvetica; font-size: 12px; font-style: normal; font-variant-ligatures: normal; font-variant-caps: normal; font-weight: 400; letter-spacing: normal; orphans: 2; text-align: center; text-indent: 0px; text-transform: none; widows: 2; word-spacing: 0px; -webkit-text-stroke-width: 0px; white-space: normal; background-color: rgb(251, 251, 251); text-decoration-thickness: initial; text-decoration-style: initial; text-decoration-color: initial;&quot;&gt;&lt;span style=&quot;text-wrap: nowrap;&quot;&gt;Cloud&amp;nbsp;&lt;/span&gt;&lt;/font&gt;&lt;span style=&quot;text-wrap: nowrap; color: rgb(153, 153, 153); text-align: center;&quot;&gt;Batch&lt;/span&gt;&lt;div&gt;&lt;span style=&quot;text-wrap: nowrap; color: rgb(153, 153, 153); text-align: center;&quot;&gt;&lt;br&gt;&lt;/span&gt;&lt;/div&gt;&lt;div style=&quot;text-align: center;&quot;&gt;&lt;font color=&quot;#999999&quot;&gt;&lt;span style=&quot;text-wrap: nowrap;&quot;&gt;&lt;b&gt;Pre-Renewal&lt;/b&gt;&lt;/span&gt;&lt;/font&gt;&lt;/div&gt;" style="text;whiteSpace=wrap;html=1;" vertex="1" parent="f_0w462XN24zRGfIKmap-85">
          <mxGeometry x="44" y="5" width="79" height="50" as="geometry" />
        </mxCell>
        <mxCell id="f_0w462XN24zRGfIKmap-88" value="" style="shape=image;verticalLabelPosition=bottom;labelBackgroundColor=default;verticalAlign=top;aspect=fixed;imageAspect=0;image=data:image/png,iVBORw0KGgoAAAANSUhEUgAAAOMAAADkCAYAAABqi5P0AAAAAXNSR0IArs4c6QAAAARnQU1BAACxjwv8YQUAAAAJcEhZcwAAFxEAABcRAcom8z8AACUXSURBVHhe7Z0JmFxVlYCJuAM6gIwDDC4j4xJHcYxgwCT1luqm0ZjRD1rHZVwAcflwQWQwMEMl9e57VZ0FDbJMUCQyohBHFIm7glFGB0EMGEHBSBQSsnZXva2qu5OuOefe06GTvHRXv1tVXd11/u87XyfdVffed+8575577nYYwzAMwzAMwzAMwzAMwzAMwzAMwzAMwzAMwzAMwzAMwzAMwzAMwzAMwzAMwzAMwzAMwzAMwzAMwzAMwzAMwzAMwzAMwzAMwzAMwzAMwzAMwzAMwzAMwzAMwzAMwzAMwzAMwzAMwzAMwzAMwzAMwzAMwzAMwzAMwzAMwzAMwzAMwzAMwzAM0yxm52rPnJOrPZf+2x70rj2c/tUWYP1gPdF/GaYZ1GaZTvkzphtc1+P6x9Evp5TufHiK3TdcMOEn/WpKWbjCfwHU0XWmKF+C9UW/ZpjGAkr2Qbs4WO5eWauZbviFhbktU9pDWmLXiaYIf9RzFZQHfloroxPpT1PCOStHnmN54VVYP3Zh0Mf6oj8xTOOwhP92qzC4vWv5CChaFWXEcMte79ralLiIGeiBLBF8Mwvlsby4huWCHvs2/D19pKX0rl17OOQvsF7AEGV5sL4M4Z9NH2EYfTJOkLW9+Imu5bWa5YZS7L6hmlUcHDTc8N/pYy2jN1c7EhT/xmzfnhqUS5UHfmaLw2iQN/ZeXTuSPtoysB6sYnVQ1gvVkawvL96C9UcfY5j0gJKfDor1p7GGOCrZvr2obJHlRR+hjzcdDIyYXvx526vIHnpseWSPDb+Hf69qZQDFcqMPW14lwpfD2PKgyB4S6s9Y6r+JPs4wkweDIuAKbsguA6M7QMlGhf5WMpzgPfS1ppHL1Z5mOUEexqt7ssWneqCxgr/Hv4OB5PHz9NWmgc9tibA0fh2hQQYb2iXIxEwzepZVXgaK9IvsMnzbK1fwUCI/40VbDRH9C3294UhDdIOLIR/ogYYTyzEq9PcYI7/NHNOa+WgRPreqo+SyKAEXGj8jwru7vcrJ9HWGmZhsLjrBdoPvyd5HuX0TiuwZCvGjYDAmJdNIZlmOf55dqOyWrnFC/gcKfg4/bwn/fPy+SqZx4HNC7/voxIZIgmNaHE+K4PtYv5QMwxwa2xs51hT+LXZxEJU5WbEOITRmejCTi95AyTUEW/hnw3hwC42/6hYV+R3cgt+npBoC9IhzTC96YDzXNEmwPrFe4QVxayY3NVFfZprQk9v1PFME/4WheZQkhRpXvKjWBQoKafzSzJdfQclqYRYCK1sc3NS9AgNIwcF5jitBDb+H3884pYZENG2v+nJ8PnxOfN7kfA8tsm7BIA2nvDp7af/zKVmGeYpMrvZsUF4PXNNh+xDBkboEDVL2YP4Pup34JEo+FfbS0qng3j3UhYYoJmuIJPA9+X0vehjTo6RTgc+DbqZ8vhSGOCpYv7KenXIR652SZxgAgyPCvzTbNxyr4EdKxSfB6QWpsOCOzVucbtncgqL/KtMNfqN6xOR8JiNokJDe/fCSmE1ZTIp5i7ceh8+Diwxo+kRDAhlkArc+xnpvRdSXmSaYIrrA7hsK1JhPzxBHRa5CWbYHDeCL8Paf1CT8mYXKSyCN9WpuM30PtL9gj12r2SL4OaZPWdUFlh96xOvRNU3lvicKGuQeXDwRWKLUsnlapo3JesG7QDn8yQYj6hEcG0EPsNcW4Yo5q2vPoCzH5fTlwd+C4axT0yXjT6lMWjCiKdON1mE+lOW4zLngvmdg+bN9Q3u13PdDiKr3IMB2oCyZTiSTDxeCYu5IWjnSKMHpEbtQ2WuJMDfRnN+ivpGjMJIrp1QmGcmtWyBdTN/0wq9jwIqyTgTLa7j+FVh+Waak9Bogsv69eIclym+lrJlOIuvGGTDEzTRB3lTJYjjfjYbAZb0ol8sljo8yue1HGm6wWob/D1jm1miRy+bQ2EV0PeZLRdifWm2WmS9fhOVW5U9Oq1FC7bAZ24VKwHQCZr40B5TsIfVGbtSYbHyR82teFFiufx4VYx9y65Hwl0PvAK5g8xUfRZUHemzXX5a0FcwW5XOxvK0qD7aDNEgveigjSg2dp2XalIzrvxLGKPfK4EGLDHFU5I4GdMdc/xwqzmE4lgTXdHG2UK3grouk7zVLMD/M1xCly8eOaS134Bx4We0cuwOjFYLtoYYMwb0Zt/pKKg4zEzGdysugB/qpjAo2OjhSp5CyPZ51AxvLZDj+h+3CYFm5aY2J5NYvaooB88dyYHm6nMCCOnpclTPpO80VbBe1cMK/E9sLy8TMMHBXvCXCb2L0TmtMBm9vPUOGtz9OeYjwQXATHSjTDrmaJbUhQu8uy5O2lw+k8mM5bBG4psBlbmiIrfUaxgqOZ2WUFdorU9z199SEzEygO1c6BhTtS9I1lYaYTvHHGqHWxDcatHohjOj2iKMBHxmQ0TBICqCocrXYfU8SLIfsnb3oBmw/akpmOoPBCeiFVkLD7lHBiJSGiG9rGEPh2TdWIfokpFkaVeB0ggapM31By+5EuNFwynn8qZbhpTckPYNutAQ0T7tnDzzbyoXtdiIfMzkyudrTLTlPVtU2xC65Qbby1dEzZvD0M/jbUDPn3w4takG67UXb4N/n4Hwg/gR5UpWzXQxKV5RBgoBB+hPO0zJtS22WJcqfAoUd1jEYuc4UFVxE383knlpGdvLHH3kWjK9cMNThxi0Rq09UcCUoW3m5V3EftgjPtURQVn9P/u50FGw/bEd4tk/x8Y/TEOi5zrXcONTbgYGnrskdE3eb+eDVlPQ+Fl2y8yj43DU4KU5jwKYLvViqphtdRMXYDyjnRTDOqkxNj908wXa03SjCFw49KjMdsAvR2WBIu7XGdB66giMYYn/QLERzKOmDyKyovcDywpuxN9IbA04sFFzZazrBEso+ERhj5fBzrXpBtEpkexYqu8bO0zJtjOmE3aYbbqn3eIpkUdMPoNSbDDee8FQzcGFPhN7zu2p7UXPmLzFd6a65pc/1TnDyWw+40JbjXynHW00qz1SJatd4i+lVuulxmXYk6/jzDDf4k14QI6rZ+Ab24q3ZYuVMSnpCMvu2PaFBNjaAIg1RzkX6Nyzq23kUZTkuuOYUPy/nVWeUQSqPBdsZnm8+PS7TTpgFXG8a/FYdnKsR3pdjrWjAKsS9lHTddK+ovhK+dx9tUzoo7VQChkTj1rXzri0dTVnVxdyVfz3GEOGtujvz205wCAF1Yjr+A9ju9LhMO5DJ4XrTaD2+MXV6AQp6VCx1oloq5EvBi3+nplKS86lb4FnkTn8vXpfJpVuJMv/KkeNhLHt717LhkcQ8pqlgO5MHtH5B3n8VPS4zlXSviE+CMeJ38KDc9IYYyEXcdiEest3yRbrhc9MtF1UARcM9pB4RXN6fm307tQ63yojyByyv4mdbPAXTbFHuO94xEt2BekCPy0wFtlc+FnoxGcms93zTgyWQPSK4loMYpczcVXs6JZ+KBWLg7ZZbeVyrZyQ3DN7693ePE8mtBzxW0fYq92T7ZlbPuE+g3WX7i/BmPv5xiui6+MkjYBx1rYww6hviHhh/fK7r4pEjKPlUGEsD2/aqm9XC76T86hAwRHmzlAgfNTQ32uKxiqCsdJZOQl4zRLD95RAD9GHhal4211Jm5zY+Eyq+YBfl1WyJDVSP4HfxrWo4/lewl6XkUwHu5Kmg+A/pKj4Gf0w32Grnw4WUdCqyfdEJ4DX8UB7TOGOWxx1asC1RH3CIwLcmtxAzX1oMlT+ks7oGJ+jldIHj347zhJR0KizXny0juZqKrzbzRv22G7ybkk4FvlhMEXxDjjk7wBBHRa7SKVaGUT+oKphmAm7cR8AQo+yy9Ktr5MAfekRQ2J/NdwZeSkmnAjfAmk75btkjakwfyDGmF0em63+Ukk6FdN/d4AY1vTKzJvzrEVylg/phiOhjVCVMM7Dx+jEvLqmQdnJjTCg4JpMD/ug+y62mOtB3FHQFDVx5g+XRMUS5zC3eY4vSYp0DfXGXCo59s+SyJeXVCSL1w6uUUF+oaphGknEH3mZ60XYtQwSR6xu98GGrWDqNkk7F3FzpGFP4X5dTIqkDSMoQ1ZrWyOuFsTAlnwoYay6Bl8Ih727sJEE9Mb1wh9UXvY2qh2kEhluxoYI3qyVhyZVfj+D3oYH+ipfJUNKpmJOrPdf08IIcvWMVsfeSbpXwr+5Z9cizKPnJk8uN3t1YkS+bhLw6UUhfNvM15g0C3MnToNfY2CUXCKd3BeWbUoS7DOFrXWiKRgM9EE7q04bl5PwmEjTiruXymdb0rBoZ9zDh8anNAtf0Q5Ybl6T7nZBX50pUQ72x3Xhjlxe9kSqMSQNGKUHx71FKlt4Q5eqcQnXAdkpaY4hM7q6nm67/WegRtfYLYo+KAR94tm9ncuHfUfKpsApBL7jJT+rtUpnJgjEC8Ijc8B7dGEHHki3GL4IK/HEXGqLGMjdsCHDdAkOUtKNrluN/OFscLMkyJeZXh+AyN7wRSoR3dmlGche4QZflVTfpuu8zXrDOZdAu/Inp9L+Yqo+phy68/GX0WEWN4IgcjxWHqmbeX4zXvlHyqTCc4J1239AOFUBKf6yidJfd4F6zePDJAZPBALfL9OLfq0UG6U+X6xRBPZLnsTrl26C+XkjVyIxH9tLa86GybsDr1HSCI7go2i5W9lpOsEz3Qs4FS8tn2YWhx9WkfnJ+9Qj1YA/pjl8sdxcuMrhXtzydJnKcLjeNB1/OFmt8a/J4ZHKPPRt6xCuzy4b3qstW0p/mhhVviOB6vNmJkk8FbliGcmzWXuam3O3HTC/U2qGeKQy8BOroLt1FBp0puBZ5EF6Ke/bifCzqG1Ursx/y9uAwB67lkArPp3S9cJkbGrIIb9VdbwppvN4WIbiCunObaIjRDngjT3rD8lisxcELoUy3dy3DrVXp3ffOFnVgM+qZ6URLdIcvMxIYk30aDGlQGWJSJdYhcpkbfj/6fqYYaR0LP29F9eWQ5v+pKKVGJFeVx4d/H3T71GQ4A3p4SOeraNhqkUByfiz1iWwX0DfUO6hePv5xFNxZDxUU44ndB1Za3YLL3HBM5kV3m/my1mbcHjBk04t+IhtMY30nGo7pxlU8v5WSTsXclSPPMd3gOrUBunOXuTVaSN9i0/U/RFXd2WTd+B1gQLv1lnDRmShu+KAlBl5PSacCTww3nfK35A4ADUO0ixjJHRyynPAKSjoVOK4xXH8ZlqUhR3mw7CdK76J+1EOq8s7E9sIeeONvkaexJVRUvULBlT9jsIWSTsW8Qu1oKM8aPCFcpwfC76LhmCJcgYu3KflJg98FQ7wMDHGIDbF5gvqHx3taxfAsqvrOwljqv8kS4aNyq09CBdUr8mjEQuUJ7ShlbvuRGGEDpde6PXh0e5Ylouu7btI8OcCLPpb1KoGKLCfnx9IYkXqoTleY8JzcGUWXCF9nOsFvdbceyTFiobrT0jxhGndLQBpXwJisqgIuKadU4Fnw5WAI/9a5uRGta8ygh343np6typOcH0sDRcYcZNttsPMD/0zNMLPB4IolAnUui1ZwBDeRVnzDGdCKUqoLcqILIb1A9dIaq2tw3Cp87UhuJl9eCMa4VessHZbJC+ij1EvQT7OvqhUEbHu6L999Ejz07fjAOuF5edyGFw0aXvnTuH2Ikk8FjOveZxUHS2p1TEpDxB5Rzf2tz7i+1l304CovgDQfVeNgntRvtaBeqpdqcAfqKzXLzKJ75cgxtlu5CbcN6QRHcPwE47K9toiWzrngvmdQ8qkA1/RtkOZurR0P0jWVvfz99tLoVEo6FfPFwOshHXWWjob7zqInqJ9ST0FfdReOtB1dy/FclvAaufBbK0qJ602re8GIVsHYTC844lZs0w2fkMGWhLzqEhojgpv7aHbpgE1Jp2JebsfLIb272RDbQ1BP1bx1OHOOf8Qbk2D8U8T5HD1DxMNqMZgRrenWDI50LY3eCOn8URliWsVXA374udX0okWUdCrOyEUnQI/4A2WInXeIVLuKNEjQW1OU+ya6+av9ydWeZjj+ZfCmH9EaI+LAGt9SIrg97Z0To+DWJUhng3RNdQJIy/B0ubBkevG7KOlU4CnYhgi+Sa5uYl4sUydSb0F/DeFfPq3XsWZEcKHpRlWta7ZBQemE7Z+Zyyovo6RTkfFKJ1tu8Issjgd0DLEIPXQhjqBX/DAlnYqeVbueZ4pgDRq2TnlYmiuov+D9VDNecCE13fTCzIfvU+eypJ8nU/N20GO40X3Zot5NQ9li/4tMx/8e9rBavTS62l68B3rFSyjpVOAyN0jj87jAgHdgtL9IPfaiMuo1NeH0AKOUphPs0I5SygF09PCZYlBrvSmeHAA99Fe1A0hgNNKQReDoLHM7rFabZThBHo2al7lNH0H9gRfodqvgv51aso0BJcs4YQ+4gn+Wx1NoRAWVaxttsp0Bg1JPxVsKpaNtz78a3mx0x336uUT4Pt7ktErr5AAcR7vBxeCeVvUWx7O0XrCDwCFT8BjqOeo7tWr7AQb0GlD2DV0rpWt5wIPUL+RGhlZe7wDa3rW1Z4Li50HpR5Rxp11do9bAgkF+RffkANsL3gnlCNQig+S8WNpZwCClfgcbzEJ4CjVr+9Hj+sdZXvhNDNHrjcvgu144bDn+ZTrH3StjjMAYcelcA4yxEK3pvbp2JCWfCnlblRs+os6v4fnE6Saom2oKCvQchj/UrO0JHj9ouoGcM9MJTMgDpbw4AJfgQlw/SslPGnRTIb1rnnJTk/ObUMhNtUX4ed2zU/AeR3BT/yINPCkvlrYU1GfUa9MJf6R7zGbLsNThw7/SnTuTARev2m8u6f83SjoV0CO+0PCimxsSwJEvmCCvFcABoFd8m+XG23kx+DQR0GO5ZtUNf2Xm9Y7ZbDkZUXqDJcLfqbFRendMLsAuDG6xRPmtlHQq5KHIwv9+I6Y27EI8DG/Hz1DSqcmI8AN2sdqvVgKld6FZmi3qSBfTCX6fEUNvoOabXkDhLYw8aW8gli5v9bGuQryAkk5FNl/+RyjP3biIQHvS34tDMO4LKOl0wHgYPIiLrEIl4shq+wptPH4M9ZlabnqCF82A4j6pM/mP0o2+ugj+qLszossN/skU4QONWA4HPwegR/tXSjoVPatGngXPtRTc32He0d9+Io/k8OJtupH9tsFw+t+vuxpHhpRxDCqi+3R99qyI5kJ6jzRkobgIwYWOtFzohbnacy3hX4Xus4r6JuXH0mpBfTXdqGQ75fdTU80AarVZlhdcCA9YbcRxjFBBd+lGs6ylpS48hKghW6jAsE1nQMuFgXSOAJf1RnkqnU7Ul6UhovQ0qtpu8PG2ntxPBS4Bw5POCjG4YxoGWYjV8XrCv8NavE3rAhNI4+1Q4Q3ZXAxj0N9kRKQ1uJ+npmH+Ry4c1wgysegJ6hfqKerrzDPEUXprh1siKGSLw3vk0RkJFVGPKHeuWjOc8s3ZYr/WBSa2F77fKlTLKuqrfezGz3QPUM72RSfAC+KHmB6mm5gfS9ME9VLqpyj3Hba2djg1y8zknJUjz4Fx1rXoj+uMj9QUQ6VmCv/qjM6qGHjzQcV/wi4Ohyook3aKgca0bvBdGEOeSKmnQkV9w1+q9JLyYmmGoD7isMV0gusW5rbMjN39E4HumCH8m9WNwhqrdNCdKFaHYDzqYFSSkp80uIsbXNac3TdcldMWKQ1y9KhGeEHcMjdX0jqNAMrwWoz6YhQ5KS+WxgrqIXpHoJdf0227acd8seN40/HXofKmn/PDG4VgfNU3HOqeFIe9KxgR7i9syCHGhhOsxqAMJZ+KjBPPAyX5A/W4B+XF0hgZ3Tdruv66+SI8nqq/s8jktuPO+/V6263AIOGNBm7vgO4ZqvhGhB7yJrnhV6PHli40GrQX4UWtWsvmDBG+BTyAzSpqm5wfi4aA3qGHZorg53gSBFV7Z2IWBk+B3uReOtzp4MqqRwS4rKCs2WJ1ly38synpVMidJ0752w25+KYwOAS97X9S0qmx8uX32l51u+5KJpYDRRmi7cb3ZcTA66i6OxvL9edbhfhhtWhaZx2rNOgns8XwTEo6Fd1OfBKk81O5SEFnlQ4GA3Cuygs+QUmnAreRWaJ0IbzFA615UZYxghFw0DfQO9PRW2Y54zAK4Vugkh4ngzqg4uoXOWcowk1drq91gQke72564T1qDlKnPGA8IvRNEZ5LSadCGaR/ueWFehfKsoCgIaKexY+j3lEVM2MxHNwFH+5Wc35JlViPgOshe4/owR538LWUdCrMQmkOGNJDuuM1WR4v3m7l9S7oQfAMT3ib7+V1rOmF9Gu3pbmueMYDlXQeKG7QpbUqhq5lc4Nfdef0BuXoQquNwHpTDHK8V4j/DGXqoqRTgefv2E5wnRrT8iqdyQrqlS03rfvnU5Uy46G2FVWreG12UoXWI6NTDKbwf5TNxS+ipFNh5sM3Z4tDT+BWrqS86hNaVyvC31vF6DRKOhXZYu35oExyszSv0qlfpD6hXnnyHn+mLmq1WWCQS8CgRnQWTcuJXDVmW4vzmpR6KtClgd5opxpraKzSge/Ds/3acquzKelUWO62F0I631GLAtggJ5J9K7bcaInuzWUdh9zn55Q+h28zvTk/XOI0PGKI4Hpc+UPJpwJ6o4/YxcFyl3SBk/ObUKDHRpfXEP5PM4WBl1DSqTCd/hfbIryTDXJ8Qf1BPcKbqbWO2exkTsvJ4++/pNwxjVU6uPi3b3gYepKizppDnMAHt3cxlEXrzFNUDrniQwTfgvJp7TzBvZ3gev1SudBskAcJDldAfww3uOGMvp1ax2x2PHgcHlTqWu1lczgJXxyqQk+yuFdjNT7tzO+zvFBv2Ry4TfI8Hje6sQdeOpR8KjKiPNfyKg/KIBOPIfcJ6ouKhMdrdV96DGHnSv8AFfp9PYPEKQY5PzcILuLHKOlUzFldey68aVfL0+J0xrTFqnShwX36Ap7xSsmnIivCM6Fn3CSVjw2SDBFfTvEPUH+omphGYBeC15iu2lbUAIMMMm7wXko6FXNXjhxjuv4tckyrMcUgz4fFMY0XuBesrundxCyCXrwLQs2jda5B7jNE0BfoEbXmmplDsMArn26JcKOuOyYN0ot3mHm9S05x3yKMQ78n19VqlAd7SPj+Hkv4l+qcoI4Yjn8eGKVPL53OE2gHFfEON9qgL1QtTDOw3IoJBrlZax0rNpiMiEZ/yTgVrYt1Ml7lZHB7/1f3BUG7PCKM2FLSqbFxnhbXxHbcKh1ab+oGm6f9sYrThWy+vAgqf7ve25/m/JzgjwuWlrSOf5QRTbzwRzOiKSelvXh31gu0bkPG3hUMcgmktVdnWmi6idKHaHvWK2t5PMwkMZzgPdCTlKUCJzRMXUJjC3A1f6M7tgCX9TSrUHmYxiqpBZfNQXm22Ev1FjCreVr/c3LZXAcYpNKDqIx6QVXAtBJQto/i9c5yzJXQQHWJNEjcXBreCWOMl1PSqcg4pazlVf6iXKWEvOoRcHXltelu+IipeYL6or6dR5ki+hLuPNEJerW70Jh70NaMkjM64LYiL7wUGmJEb85PnX8CveO3dQ+Tyrg+XmizRWu8hmNa7LG96De4c4SSTsW8z5aOtt3oa9llw3sx3cT8prHQWBsk1A5+MZrgdABOC4CbAuMjNICUh0mhQcKYA1zENd0r9Q4kMoX/33IOUqc3IhcaDGm9bo9tOmG3Xaj+dWZFWANos0F0T/fCvz3daSGmQWRy24808+HVMN6iVTHpDRK/b7rhKjxyn5KfFMaS8vvBkHaoF0NyPvUKGrNcd1qI77DErlQ99hl90QnwXN+CutmjE1xqLwFDhHbKLof2hnbP5PQusGUaTM/irceBst2UXa55ByN+F4zAcIL8nAsm97bFy1Fsr/qkcnmT05+0UA8J/75lsgvd5xVqR8OL5Rb5fZ1eus0E2wjbGf791Z7F/nH0uEw78aZc/4vwuD00Bp0IolwEXqgMGvngYkp6QnBeC763STeamiTYQ8pncoMvohdAWY6L9Bbc8hfl92aUIcJwAgNu0M64a4Uel2lHcHyFx+7JRdgaSojjK3gD+1Zh4h3h3SuG5sAY8SG9zcfjizRIdMFF6Uo8dJmyToQOZV6JrtyMMkR4FmxXGNf/QncczbQIKxe81hLBBhmw0IggKoOu7LZE3EtJH4Sa8I/u725Cj3igkAuNy+ZylH0iluNfgZ/TcdfbTnDKR24UDzbAmJHXm04nup3yGZYIH1Vn4WgYpJqD3Gbmy2+mpPeBuwFkLywNsTXBEXShbS+qgHJ+ioqxH6Con4SyVHT2W7afoCHCi1WEf+paulvr1D9misg4pR51B6NeSB9vhAKD3GS4foaSPuxMER4Pir9OGnuL5+/U2T5hyT7g+MesV/4g/l69gJK/Ox2F2m8Ltic9KjMdweMRoSH79QyS1rF60QNdInwdTnsYIrqZAj0Jn2+2qAXRYIzbjEJ0dm9v7XD8Cb/fqnYszJQpDBq7Q/vBM2kfc8m0AZaofAAak658S270CQXHLMr1Ww9G8A3oFYe0xmRerFaPJP2tLsFVOtKF/p3pBkvwp9xYrGGIsjxtFPCR7SV3slQ+QE3JzARsEXzCLg7FWgYJio4GSIGUhL/XJxgVxBA9uNChbo8tFyqQ6BgilgOMOpLP1wYGie2E7WWJcuLYmJnGoCuHUUa7b3hQjanSH7eoNUYERce5PzyMCu/gAMXfqRYJ6JQHjSdtmdQtXlgO+Pcn4QVxm7zSYMoMEq/5G0YvZMhywiuw3agJmZkE3ppsOP6V2eKg1sLy9KIWgFvCv8taqRakg2F/xC4MllUPmdYg04pSfOiByqbrf1SWR0Qn2sK/s5UR4rEil7lB++D2L2wvLBMzQ6HTuL+srmxr7TycUvDgXrMYvJqKg4dbPQN67MuyxWpF3Zqc/N1mCI6BMV/TKf0HloOKdBiWD/7+azq+omWC7YFlghfDjZncwN9QcZiZDN7BaDoBuGNgkC1yx6Qr6lU2Qn4HncuCPYDtBsvxQptW9dgyn0JlL+a7cPXBi+KzIpoLrupG5UInp9FIwXbAlxGMW2/D9qFiMJ2AuTx+sSXCn0j3sMkGqQwxeswolg55byReY26J4Pp9AaKEdBolKo9KzXSiL2K+VISDyHilHnBVH2u6QaIhynG8/1PTiXm9aSdi5fzZ8Ca+R+7Mb9LEvbxNy4u3Qz7voGwPSc+qXc8zhH9rU+cvIV1M3/Awn/7nU9aHxMwH78Dya90KNp5AvWPaeBemmd+9z31nOhB5do0bbVRHXTTWIOXbXoS+4YbnUXYTghfa2CL6rppja3CPjT0QThm4wfdg7Fr3CdtYfnyOxq/sUUeMmF70e2wHyo7pZEAxTcsLNzdy+5O8TqAQV6BHvIiyqZuu5QMvtb2wwWteKZLrhr/A9CmrugEX+lP4PI0MMmF5TNf/q1ngYxWZMRgifIvtxdsaYZAyPF+oDhuufwUlP2lg/DQbDOB+dcNUcj6TEbW9K/gt7jKhLCYNPk+2UBluRJBJ1jO4v5l8eSElzzBPkZF3MA5qXWNuexSe98IVY6cL0mCJ0mmgsA9LQxIp5yDhe/h924v+gOlR0qnA58HnwufD50zMrw7B+sV6Nt3SuylphjmYDN7BWKimWqYmw/OgaDJKWeeO/Ikw3MAG5d+k9ktO1iCDGn4Pv2+5Ja3ry0eRJwg4QeoTBOR0UqHSkJPTmZlOLvc0Q/iX2l5laFLuGEYFl8lLUG+1vfKxlFpDwJ0nUJYtaiF4Qt6HEPw8fG8rfp+Saginek8cK8/WgeedTBQa6xPrNeOUPsvHKjJ1MRuPrXADD6OPdR2QjIaIPVehsm6+s/skSqaB1GZBT3I+KHK/XDeaVIYDRB1cXOk3Xf9D+H1KqGHMd+KT4HnvUGO/iQ0S61H2pKJcwPqlZBhmYt67fOQIMMhr5Nt8vDk/UDBUSBiTrc8W/VfR1xsOXvBqivIlkF80kQutFjJEMX5e52LYicjmd70KDPJnFIxJLAuK3FWCXoYIru3lYxWZNMxz/eMsEd6M82uJBjnaI7rxb3WDI/WArh0otAMu4h4MohxUHhAZPIK/m24genvXNn3HgwwyufH9h+ohsd5ofvJrmRW1F9DXGGbyzF8Rn2S60TpcNL1fwAINEX5nuMGfMMhCH2866OIZXngVuKCg6Pu70HKZG17cCn9vpSuI84RYD3Jh+RiDxPqikwfWnc7HKjKN4Mx8+RW2oEl4Mkh5ZKDwt1kieit9rGX0Xl07Enq+NbLHHn1BwE/lvgZrFvWNHEUfbRkwFnwr5L1VLi2k8sj6EsHdWH/0MYbRxyyEp5hO+ABGEMntGgCDmLJ5MnShIf/bsvSCQMXHDcv4e/pIyzG9+F3QC/Zj/cjyQH1lRPg6+jPDNI6MKM8FZdtkeRUYk5XkZtypBDcCmyL88VlXYQ8U/rinGP09/WnKwPlDGCcOg7v6Z6wv+jXDNB7bC3tA8c9vZpRyMuBpdeAaFvEn/WpKwXoBrwEXlp9Fv2KYDqIFUVOGYRiGYRiGYRiGYRiGYRiGYRiGYRiGYRiGYRiGYRiGYRiGYRiGYRiGYRiGYRiGYRiGYRiGYRiGYRiGYRiGYRiGYRiGYRiGYRiGYRiGYRiGYRiGYRiGYRiGYRiGYRiGYRiGYRiGYRiGYRiGYRiGYRiGYRiGYRiGYRiGYRiGYRiGYRiGYRimfTjssP8Hhdy+xTsMXAsAAAAASUVORK5CYII=;" vertex="1" parent="f_0w462XN24zRGfIKmap-85">
          <mxGeometry x="9.002307692307795" y="4.996666666666698" width="39.82" height="40" as="geometry" />
        </mxCell>
        <mxCell id="f_0w462XN24zRGfIKmap-89" value="" style="endArrow=classic;html=1;rounded=0;entryX=0;entryY=0.5;entryDx=0;entryDy=0;" edge="1" parent="1">
          <mxGeometry width="50" height="50" relative="1" as="geometry">
            <mxPoint x="-243" y="192" as="sourcePoint" />
            <mxPoint x="-219" y="193" as="targetPoint" />
          </mxGeometry>
        </mxCell>
        <mxCell id="f_0w462XN24zRGfIKmap-90" value="End" style="strokeWidth=2;html=1;shape=mxgraph.flowchart.start_1;whiteSpace=wrap;fillColor=#fff2cc;strokeColor=#d6b656;" vertex="1" parent="1">
          <mxGeometry x="-63" y="161" width="100" height="60" as="geometry" />
        </mxCell>
        <mxCell id="f_0w462XN24zRGfIKmap-92" value="" style="endArrow=classic;html=1;rounded=0;entryX=0;entryY=0.5;entryDx=0;entryDy=0;" edge="1" parent="1">
          <mxGeometry width="50" height="50" relative="1" as="geometry">
            <mxPoint x="-87" y="190" as="sourcePoint" />
            <mxPoint x="-63" y="191" as="targetPoint" />
          </mxGeometry>
        </mxCell>
        <mxCell id="f_0w462XN24zRGfIKmap-94" value="" style="endArrow=classic;html=1;rounded=0;entryX=0;entryY=0.5;entryDx=0;entryDy=0;" edge="1" parent="1">
          <mxGeometry width="50" height="50" relative="1" as="geometry">
            <mxPoint x="-547" y="190" as="sourcePoint" />
            <mxPoint x="-523" y="191" as="targetPoint" />
          </mxGeometry>
        </mxCell>
        <mxCell id="f_0w462XN24zRGfIKmap-95" value="" style="endArrow=classic;html=1;rounded=0;entryX=0;entryY=0.5;entryDx=0;entryDy=0;" edge="1" parent="1">
          <mxGeometry width="50" height="50" relative="1" as="geometry">
            <mxPoint x="-704" y="189" as="sourcePoint" />
            <mxPoint x="-680" y="190" as="targetPoint" />
          </mxGeometry>
        </mxCell>
        <mxCell id="f_0w462XN24zRGfIKmap-96" value="" style="strokeColor=#dddddd;shadow=1;strokeWidth=1;rounded=1;absoluteArcSize=1;arcSize=2;" vertex="1" parent="1">
          <mxGeometry x="-399" y="300" width="109" height="44" as="geometry" />
        </mxCell>
        <mxCell id="f_0w462XN24zRGfIKmap-97" value="Discrepancy&amp;nbsp;&lt;br&gt;Queues" style="sketch=0;dashed=0;connectable=0;html=1;fillColor=#757575;strokeColor=none;shape=mxgraph.gcp2.task_queues;part=1;labelPosition=right;verticalLabelPosition=middle;align=left;verticalAlign=middle;spacingLeft=5;fontSize=12;" vertex="1" parent="f_0w462XN24zRGfIKmap-96">
          <mxGeometry y="0.5" width="32" height="32" relative="1" as="geometry">
            <mxPoint x="5" y="-16" as="offset" />
          </mxGeometry>
        </mxCell>
        <mxCell id="f_0w462XN24zRGfIKmap-98" value="" style="endArrow=none;dashed=1;html=1;dashPattern=1 3;strokeWidth=2;rounded=0;exitX=1;exitY=0.5;exitDx=0;exitDy=0;edgeStyle=elbowEdgeStyle;" edge="1" parent="1" source="f_0w462XN24zRGfIKmap-96">
          <mxGeometry width="50" height="50" relative="1" as="geometry">
            <mxPoint x="-290" y="370" as="sourcePoint" />
            <mxPoint x="-170" y="220" as="targetPoint" />
            <Array as="points">
              <mxPoint x="-170" y="270" />
            </Array>
          </mxGeometry>
        </mxCell>
        <mxCell id="f_0w462XN24zRGfIKmap-99" value="" style="endArrow=none;dashed=1;html=1;dashPattern=1 3;strokeWidth=2;rounded=0;entryX=0;entryY=0;entryDx=0;entryDy=0;" edge="1" parent="1">
          <mxGeometry width="50" height="50" relative="1" as="geometry">
            <mxPoint x="-331" y="300" as="sourcePoint" />
            <mxPoint x="-327.778174593052" y="224.22182540694803" as="targetPoint" />
          </mxGeometry>
        </mxCell>
        <mxCell id="f_0w462XN24zRGfIKmap-101" value="" style="endArrow=none;dashed=1;html=1;dashPattern=1 3;strokeWidth=2;rounded=0;entryX=0;entryY=0.5;entryDx=0;entryDy=0;edgeStyle=elbowEdgeStyle;" edge="1" parent="1" target="f_0w462XN24zRGfIKmap-96">
          <mxGeometry width="50" height="50" relative="1" as="geometry">
            <mxPoint x="-430" y="220" as="sourcePoint" />
            <mxPoint x="-240" y="120" as="targetPoint" />
            <Array as="points">
              <mxPoint x="-430" y="280" />
            </Array>
          </mxGeometry>
        </mxCell>
        <mxCell id="f_0w462XN24zRGfIKmap-102" value="" style="endArrow=none;dashed=1;html=1;dashPattern=1 3;strokeWidth=2;rounded=0;edgeStyle=elbowEdgeStyle;" edge="1" parent="1">
          <mxGeometry width="50" height="50" relative="1" as="geometry">
            <mxPoint x="-430" y="320" as="sourcePoint" />
            <mxPoint x="-600" y="230" as="targetPoint" />
            <Array as="points">
              <mxPoint x="-600" y="280" />
            </Array>
          </mxGeometry>
        </mxCell>
        <mxCell id="f_0w462XN24zRGfIKmap-107" value="Discrepancy" style="text;html=1;align=center;verticalAlign=middle;resizable=0;points=[];autosize=1;strokeColor=none;fillColor=none;spacing=0;fontSize=10;" vertex="1" parent="1">
          <mxGeometry x="-635" y="255" width="70" height="20" as="geometry" />
        </mxCell>
        <mxCell id="f_0w462XN24zRGfIKmap-108" value="Discrepancy" style="text;html=1;align=center;verticalAlign=middle;resizable=0;points=[];autosize=1;strokeColor=none;fillColor=none;spacing=0;fontSize=10;" vertex="1" parent="1">
          <mxGeometry x="-465" y="255" width="70" height="20" as="geometry" />
        </mxCell>
        <mxCell id="f_0w462XN24zRGfIKmap-109" value="Discrepancy / QC Failure" style="text;html=1;align=center;verticalAlign=middle;resizable=0;points=[];autosize=1;strokeColor=none;fillColor=none;spacing=0;fontSize=10;" vertex="1" parent="1">
          <mxGeometry x="-391" y="256" width="130" height="20" as="geometry" />
        </mxCell>
        <mxCell id="f_0w462XN24zRGfIKmap-110" value="Discrepancy" style="text;html=1;align=center;verticalAlign=middle;resizable=0;points=[];autosize=1;strokeColor=none;fillColor=none;spacing=0;fontSize=10;" vertex="1" parent="1">
          <mxGeometry x="-207" y="251" width="70" height="20" as="geometry" />
        </mxCell>
        <UserObject label="Click PSS" tags="Background" id="f_0w462XN24zRGfIKmap-111">
          <mxCell style="vsdxID=1022;fillColor=#dbeef3;gradientColor=none;shape=stencil(nZBLDoAgDERP0z3SIyjew0SURgSD+Lu9kMZoXLhwN9O+tukAlrNpJg1SzDH4QW/URgNYgZTkjA4UkwJUgGXng+6DX1zLfmoymdXo17xh5zmRJ6Q42BWCfc2oJfdAr+Yv+AP9Cb7OJ3H/2JG1HNGz/84klThPVCc=);points=[[0.5,1,0],[1,0.5,0],[0.5,0,0],[0,0.5,0],[0.5,0.5,0]];labelBackgroundColor=none;rounded=0;html=1;whiteSpace=wrap;" vertex="1" parent="1">
            <mxGeometry x="-220" y="-54" width="100" height="34" as="geometry" />
          </mxCell>
        </UserObject>
        <UserObject label="DMS" tags="Background" id="f_0w462XN24zRGfIKmap-112">
          <mxCell style="vsdxID=1022;fillColor=#dbeef3;gradientColor=none;shape=stencil(nZBLDoAgDERP0z3SIyjew0SURgSD+Lu9kMZoXLhwN9O+tukAlrNpJg1SzDH4QW/URgNYgZTkjA4UkwJUgGXng+6DX1zLfmoymdXo17xh5zmRJ6Q42BWCfc2oJfdAr+Yv+AP9Cb7OJ3H/2JG1HNGz/84klThPVCc=);points=[[0.5,1,0],[1,0.5,0],[0.5,0,0],[0,0.5,0],[0.5,0.5,0]];labelBackgroundColor=none;rounded=0;html=1;whiteSpace=wrap;" vertex="1" parent="1">
            <mxGeometry x="-220" y="-20" width="100" height="34" as="geometry" />
          </mxCell>
        </UserObject>
        <mxCell id="f_0w462XN24zRGfIKmap-113" value="" style="endArrow=classic;startArrow=classic;html=1;rounded=0;exitX=0.75;exitY=0;exitDx=0;exitDy=0;entryX=0.65;entryY=1.029;entryDx=0;entryDy=0;entryPerimeter=0;" edge="1" parent="1" target="f_0w462XN24zRGfIKmap-112">
          <mxGeometry width="50" height="50" relative="1" as="geometry">
            <mxPoint x="-153" y="162" as="sourcePoint" />
            <mxPoint x="-152.95184000000017" y="86.96000000000004" as="targetPoint" />
          </mxGeometry>
        </mxCell>
        <mxCell id="f_0w462XN24zRGfIKmap-115" value="" style="strokeColor=#dddddd;shadow=1;strokeWidth=1;rounded=1;absoluteArcSize=1;arcSize=2;" vertex="1" parent="1">
          <mxGeometry x="-200" y="370" width="130" height="66" as="geometry" />
        </mxCell>
        <mxCell id="f_0w462XN24zRGfIKmap-116" value="&lt;font color=&quot;#000000&quot;&gt;&lt;b&gt;Application&lt;/b&gt;&lt;/font&gt;&lt;br&gt;Cloud SQL" style="editableCssRules=.*;html=1;fontColor=#999999;shape=image;verticalLabelPosition=middle;verticalAlign=middle;labelPosition=right;align=left;spacingLeft=20;part=1;points=[];imageAspect=0;image=data:image/svg+xml,PHN2ZyB4bWxucz0iaHR0cDovL3d3dy53My5vcmcvMjAwMC9zdmciIHhtbG5zOnY9Imh0dHBzOi8vdmVjdGEuaW8vbmFubyIgd2lkdGg9IjE0LjY1OTk5OTg0NzQxMjExIiBoZWlnaHQ9IjIwIiB2aWV3Qm94PSIwIDAgMTQuNjU5OTk5ODQ3NDEyMTEgMjAiPiYjeGE7CTxzdHlsZSB0eXBlPSJ0ZXh0L2NzcyI+JiN4YTsJLnN0MHtmaWxsOiM0Mjg1ZjQ7fSYjeGE7CS5zdDF7ZmlsbDojNjY5ZGY2O30mI3hhOwkuc3Qye2ZpbGw6I2FlY2JmYTt9JiN4YTsJPC9zdHlsZT4mI3hhOwk8c3R5bGU+JiN4YTsJCS5Ee2ZpbGwtcnVsZTpldmVub2RkfSYjeGE7CTwvc3R5bGU+JiN4YTsJPHBhdGggZD0iTTcuMzMgMTUuMzV2LTMuMDFMMCA4LjQ0djMuMDF6bTAgNC42NXYtMy4wMUwwIDEzLjA5djMuMDF6IiBjbGFzcz0ic3QyIEQiLz4mI3hhOwk8cGF0aCBkPSJNMTQuNjYgOC40NGwtNy4zMyAzLjl2My4wMWw3LjMzLTMuOXptMCA0LjY1bC03LjMzIDMuOVYyMGw3LjMzLTMuOXoiIGNsYXNzPSJzdDEgRCIvPiYjeGE7CTxwYXRoIGQ9Ik03LjMzIDB2My4wMWw3LjMzIDMuOVYzLjl6IiBjbGFzcz0ic3QwIEQiLz4mI3hhOwk8cGF0aCBkPSJNMCA2LjkxbDcuMzMtMy45VjBMMCAzLjl6IiBjbGFzcz0iRCBzdDEiLz4mI3hhOwk8cGF0aCBkPSJNNy4zMyAxMC43OVY3Ljc3TDAgMy44N3YzLjAyeiIgY2xhc3M9IkQgc3QyIi8+JiN4YTsJPHBhdGggZD0iTTE0LjY2IDMuODdsLTcuMzMgMy45djMuMDJsNy4zMy0zLjl6IiBjbGFzcz0iRCBzdDEiLz4mI3hhOzwvc3ZnPg==;" vertex="1" parent="f_0w462XN24zRGfIKmap-115">
          <mxGeometry width="22" height="30" relative="1" as="geometry">
            <mxPoint x="19" y="15" as="offset" />
          </mxGeometry>
        </mxCell>
        <mxCell id="f_0w462XN24zRGfIKmap-117" value="" style="endArrow=classic;startArrow=classic;html=1;rounded=0;exitX=0.75;exitY=0;exitDx=0;exitDy=0;entryX=1.1;entryY=1;entryDx=0;entryDy=0;entryPerimeter=0;" edge="1" parent="1">
          <mxGeometry width="50" height="50" relative="1" as="geometry">
            <mxPoint x="-338" y="375" as="sourcePoint" />
            <mxPoint x="-339" y="339" as="targetPoint" />
          </mxGeometry>
        </mxCell>
        <mxCell id="f_0w462XN24zRGfIKmap-118" value="" style="endArrow=classic;startArrow=classic;html=1;rounded=0;exitX=0.949;exitY=0.485;exitDx=0;exitDy=0;entryX=0;entryY=0.5;entryDx=0;entryDy=0;exitPerimeter=0;" edge="1" parent="1" source="f_0w462XN24zRGfIKmap-61" target="f_0w462XN24zRGfIKmap-115">
          <mxGeometry width="50" height="50" relative="1" as="geometry">
            <mxPoint x="-276" y="409" as="sourcePoint" />
            <mxPoint x="-275.9518400000002" y="333.96000000000004" as="targetPoint" />
          </mxGeometry>
        </mxCell>
        <mxCell id="f_0w462XN24zRGfIKmap-119" value="" style="endArrow=classic;startArrow=classic;html=1;rounded=0;exitX=0.75;exitY=0;exitDx=0;exitDy=0;entryX=0.72;entryY=1;entryDx=0;entryDy=0;entryPerimeter=0;" edge="1" parent="1">
          <mxGeometry width="50" height="50" relative="1" as="geometry">
            <mxPoint x="-121" y="369" as="sourcePoint" />
            <mxPoint x="-116" y="221" as="targetPoint" />
          </mxGeometry>
        </mxCell>
        <mxCell id="f_0w462XN24zRGfIKmap-120" value="&lt;font style=&quot;font-size: 11px;&quot;&gt;Finalized&lt;/font&gt;&lt;div style=&quot;font-size: 11px;&quot;&gt;RN&lt;/div&gt;" style="text;html=1;align=center;verticalAlign=middle;resizable=0;points=[];autosize=1;strokeColor=none;fillColor=none;spacing=0;fontSize=10;" vertex="1" parent="1">
          <mxGeometry x="-124" y="234" width="60" height="40" as="geometry" />
        </mxCell>
        <mxCell id="f_0w462XN24zRGfIKmap-121" value="" style="endArrow=classic;startArrow=classic;html=1;rounded=0;exitX=0.75;exitY=0;exitDx=0;exitDy=0;entryX=1.1;entryY=1;entryDx=0;entryDy=0;entryPerimeter=0;" edge="1" parent="1">
          <mxGeometry width="50" height="50" relative="1" as="geometry">
            <mxPoint x="-913" y="246" as="sourcePoint" />
            <mxPoint x="-914" y="210" as="targetPoint" />
          </mxGeometry>
        </mxCell>
        <mxCell id="f_0w462XN24zRGfIKmap-122" value="" style="endArrow=classic;startArrow=classic;html=1;rounded=0;entryX=1.1;entryY=1;entryDx=0;entryDy=0;entryPerimeter=0;" edge="1" parent="1">
          <mxGeometry width="50" height="50" relative="1" as="geometry">
            <mxPoint x="-800" y="189" as="sourcePoint" />
            <mxPoint x="-850" y="189" as="targetPoint" />
          </mxGeometry>
        </mxCell>
        <mxCell id="f_0w462XN24zRGfIKmap-123" value="DWH" style="shape=datastore;whiteSpace=wrap;html=1;" vertex="1" parent="1">
          <mxGeometry x="-1210" y="183" width="60" height="60" as="geometry" />
        </mxCell>
        <mxCell id="f_0w462XN24zRGfIKmap-124" value="GC" style="strokeWidth=2;html=1;shape=mxgraph.flowchart.database;whiteSpace=wrap;" vertex="1" parent="1">
          <mxGeometry x="-1210" y="300" width="60" height="60" as="geometry" />
        </mxCell>
        <UserObject label="&lt;div style=&quot;font-size: 1px&quot;&gt;&lt;font style=&quot;font-size:16.93px;font-family:Segoe UI;color:#0070c0;direction:ltr;letter-spacing:0px;line-height:120%;opacity:1&quot;&gt;&lt;b&gt;On-Premise&lt;br&gt;&lt;/b&gt;&lt;/font&gt;&lt;/div&gt;" tags="Background" id="f_0w462XN24zRGfIKmap-125">
          <mxCell style="verticalAlign=middle;align=center;overflow=width;vsdxID=111;fillColor=none;gradientColor=none;shape=stencil(nZBLDoAgDERP0z3SIyjew0SURgSD+Lu9kMZoXLhwN9O+tukAlrNpJg1SzDH4QW/URgNYgZTkjA4UkwJUgGXng+6DX1zLfmoymdXo17xh5zmRJ6Q42BWCfc2oJfdAr+Yv+AP9Cb7OJ3H/2JG1HNGz/84klThPVCc=);strokeColor=none;points=[];labelBackgroundColor=none;rounded=0;html=1;whiteSpace=wrap;" vertex="1" parent="1">
            <mxGeometry x="-1280" y="262" width="146" height="38" as="geometry" />
          </mxCell>
        </UserObject>
        <mxCell id="f_0w462XN24zRGfIKmap-127" value="" style="endArrow=classic;html=1;rounded=0;entryX=0;entryY=0.5;entryDx=0;entryDy=0;" edge="1" parent="1">
          <mxGeometry width="50" height="50" relative="1" as="geometry">
            <mxPoint x="-992" y="278" as="sourcePoint" />
            <mxPoint x="-968" y="279" as="targetPoint" />
          </mxGeometry>
        </mxCell>
        <mxCell id="f_0w462XN24zRGfIKmap-128" value="" style="endArrow=classic;html=1;rounded=0;" edge="1" parent="1">
          <mxGeometry relative="1" as="geometry">
            <mxPoint x="-930" y="220" as="sourcePoint" />
            <mxPoint x="-770" y="220" as="targetPoint" />
          </mxGeometry>
        </mxCell>
        <mxCell id="f_0w462XN24zRGfIKmap-129" value="Label" style="edgeLabel;resizable=0;html=1;;align=center;verticalAlign=middle;" connectable="0" vertex="1" parent="f_0w462XN24zRGfIKmap-128">
          <mxGeometry relative="1" as="geometry" />
        </mxCell>
        <mxCell id="f_0w462XN24zRGfIKmap-130" value="Source" style="edgeLabel;resizable=0;html=1;;align=left;verticalAlign=bottom;" connectable="0" vertex="1" parent="f_0w462XN24zRGfIKmap-128">
          <mxGeometry x="-1" relative="1" as="geometry" />
        </mxCell>
        <mxCell id="f_0w462XN24zRGfIKmap-140" value="" style="endArrow=classic;html=1;rounded=0;" edge="1" parent="1">
          <mxGeometry relative="1" as="geometry">
            <mxPoint x="-1188" y="280" as="sourcePoint" />
            <mxPoint x="-1088" y="280" as="targetPoint" />
          </mxGeometry>
        </mxCell>
        <mxCell id="f_0w462XN24zRGfIKmap-141" value="Excel" style="edgeLabel;resizable=0;html=1;;align=center;verticalAlign=middle;" connectable="0" vertex="1" parent="f_0w462XN24zRGfIKmap-140">
          <mxGeometry relative="1" as="geometry" />
        </mxCell>
      </root>
    </mxGraphModel>
  </diagram>
</mxfile>
